<svg width="653" height="800" viewBox="0 0 653 800" fill="none" xmlns="http://www.w3.org/2000/svg">
<g opacity="0.2">
<g filter="url(#filter0_b_25_83)">
<path d="M460 860C205.949 860 0 654.051 0 400C0 340.5 11.2969 283.638 31.8628 231.442L121.568 283.645C109.029 320.123 102.222 359.267 102.222 400C102.222 597.595 262.405 757.778 460 757.778C577.246 757.778 681.32 701.38 746.573 614.233L828.996 674.715C745.134 787.175 611.072 860 460 860Z" fill="white" fill-opacity="0.7"/>
<path d="M912.128 314.815C917.297 342.42 920 370.895 920 400C920 414.771 919.304 429.38 917.942 443.795C642.851 359.209 501.45 393.151 255.556 493.704C467.265 336.564 596.289 268.629 912.128 314.815Z" fill="white" fill-opacity="0.7"/>
<path d="M907.622 506.445C898.128 546.52 883.392 584.566 864.177 619.821C664.93 511.336 576.378 501.126 306.667 493.704C580.035 427.711 719.174 412.603 907.622 506.445Z" fill="white" fill-opacity="0.7"/>
<path d="M460 859.5C206.225 859.5 0.5 653.775 0.5 400C0.5 340.769 11.7067 284.157 32.1149 232.167L120.962 283.871C108.491 320.29 101.722 359.355 101.722 400C101.722 597.871 262.129 758.278 460 758.278C577.233 758.278 681.315 701.971 746.677 614.929L828.293 674.82C744.502 786.929 610.726 859.5 460 859.5ZM544.943 328.489C642.974 297.689 754.015 292.231 911.702 315.258C916.823 342.724 919.5 371.049 919.5 400C919.5 414.547 918.824 428.936 917.502 443.137C780.204 400.975 676.164 388.35 575.748 398.825C476.204 409.209 380.256 442.292 259.045 491.738C363.42 414.408 447.818 359.004 544.943 328.489ZM638.991 440.636C731.301 440.341 813.032 459.953 907.044 506.716C897.597 546.439 882.992 584.163 863.977 619.143C764.558 565.039 692.653 535.404 611.949 518.375C531.894 501.482 443.201 496.998 310.441 493.308C445.31 460.833 547.37 440.929 638.991 440.636Z" stroke="white"/>
</g>
<g filter="url(#filter1_b_25_83)">
<path d="M53.325 184.825C130.538 39.1965 283.685 -60 460 -60C660.287 -60 830.677 68.0038 893.825 246.667C545.595 243.509 420.565 320.67 221.481 485.185C342.416 288.408 437.614 203.02 710.392 144.444C645.862 81.2104 557.484 42.2222 460 42.2222C321.579 42.2222 201.519 120.829 142.023 235.839L53.325 184.825Z" fill="white" fill-opacity="0.7"/>
<path d="M460 41.7222C321.572 41.7222 201.481 120.229 141.819 235.145L53.9932 184.633C131.196 39.394 284.049 -59.5 460 -59.5C659.816 -59.5 829.845 68.0426 893.115 246.16C719.354 244.638 601.156 263.145 501.539 302.584C402.567 341.767 321.975 401.597 223.487 482.88C283.306 385.849 336.991 316.137 409.29 263.393C482.224 210.185 574.142 174.214 710.497 144.933L711.406 144.738L710.742 144.087C646.123 80.7655 557.62 41.7222 460 41.7222Z" stroke="white"/>
</g>
</g>
<defs>
<filter id="filter0_b_25_83" x="-20" y="211.442" width="960" height="668.558" filterUnits="userSpaceOnUse" color-interpolation-filters="sRGB">
<feFlood flood-opacity="0" result="BackgroundImageFix"/>
<feGaussianBlur in="BackgroundImageFix" stdDeviation="10"/>
<feComposite in2="SourceAlpha" operator="in" result="effect1_backgroundBlur_25_83"/>
<feBlend mode="normal" in="SourceGraphic" in2="effect1_backgroundBlur_25_83" result="shape"/>
</filter>
<filter id="filter1_b_25_83" x="33.325" y="-80" width="880.5" height="585.185" filterUnits="userSpaceOnUse" color-interpolation-filters="sRGB">
<feFlood flood-opacity="0" result="BackgroundImageFix"/>
<feGaussianBlur in="BackgroundImageFix" stdDeviation="10"/>
<feComposite in2="SourceAlpha" operator="in" result="effect1_backgroundBlur_25_83"/>
<feBlend mode="normal" in="SourceGraphic" in2="effect1_backgroundBlur_25_83" result="shape"/>
</filter>
</defs>
</svg>
