<svg width="110" height="114" viewBox="0 0 110 114" fill="none" xmlns="http://www.w3.org/2000/svg">
<g id="MicrosoftTeamsLogo" clip-path="url(#clip0_73_949)">
<path id="Vector" d="M103.4 13.1477H57.2V2.19128C57.2 1.61012 56.9682 1.05276 56.5556 0.641812C56.1431 0.230867 55.5835 0 55 0C54.4165 0 53.8569 0.230867 53.4444 0.641812C53.0318 1.05276 52.8 1.61012 52.8 2.19128V13.1477H6.6C4.84957 13.1477 3.17084 13.8403 1.9331 15.0731C0.695355 16.306 0 17.978 0 19.7215V85.46C0 87.2034 0.695355 88.8755 1.9331 90.1084C3.17084 91.3412 4.84957 92.0338 6.6 92.0338H32.824L18.084 110.386C17.8926 110.609 17.7482 110.868 17.6594 111.148C17.5706 111.428 17.5391 111.723 17.5668 112.015C17.5945 112.307 17.6809 112.591 17.8209 112.849C17.9608 113.108 18.1514 113.335 18.3814 113.519C18.6113 113.702 18.876 113.838 19.1596 113.918C19.4432 113.997 19.74 114.02 20.0324 113.983C20.3248 113.946 20.6068 113.851 20.8616 113.704C21.1165 113.556 21.339 113.36 21.516 113.125L38.456 92.0338H71.544L88.484 113.125C88.8552 113.558 89.3809 113.83 89.95 113.883C90.519 113.937 91.0867 113.768 91.5327 113.412C91.9788 113.056 92.2682 112.541 92.3397 111.976C92.4113 111.411 92.2593 110.841 91.916 110.386L77.176 92.0338H103.4C105.15 92.0338 106.829 91.3412 108.067 90.1084C109.305 88.8755 110 87.2034 110 85.46V19.7215C110 17.978 109.305 16.306 108.067 15.0731C106.829 13.8403 105.15 13.1477 103.4 13.1477ZM105.6 85.46C105.6 86.0411 105.368 86.5985 104.956 87.0094C104.543 87.4204 103.983 87.6512 103.4 87.6512H6.6C6.01652 87.6512 5.45695 87.4204 5.04437 87.0094C4.63179 86.5985 4.4 86.0411 4.4 85.46V19.7215C4.4 19.1404 4.63179 18.583 5.04437 18.1721C5.45695 17.7611 6.01652 17.5302 6.6 17.5302H103.4C103.983 17.5302 104.543 17.7611 104.956 18.1721C105.368 18.583 105.6 19.1404 105.6 19.7215V85.46Z" fill="#F27B05"/>
<path id="Vector_2" fill-rule="evenodd" clip-rule="evenodd" d="M96.4 20.1477H57.2H52.8H13.6C11.8496 20.1477 10.1708 20.8403 8.9331 22.0731C7.69536 23.306 7 24.978 7 26.7215V78.46C7 80.2035 7.69536 81.8755 8.9331 83.1084C10.1708 84.3412 11.8496 85.0338 13.6 85.0338H32.824H38.456H71.544H77.176H96.4C98.1504 85.0338 99.8292 84.3412 101.067 83.1084C102.305 81.8755 103 80.2035 103 78.46V26.7215C103 24.978 102.305 23.306 101.067 22.0731C99.8292 20.8403 98.1504 20.1477 96.4 20.1477ZM97.9556 80.0094C98.3682 79.5985 98.6 79.0411 98.6 78.46V26.7215C98.6 26.1404 98.3682 25.583 97.9556 25.1721C97.5431 24.7611 96.9835 24.5303 96.4 24.5303H13.6C13.0165 24.5303 12.4569 24.7611 12.0444 25.1721C11.6318 25.583 11.4 26.1404 11.4 26.7215V78.46C11.4 79.0411 11.6318 79.5985 12.0444 80.0094C12.4569 80.4204 13.0165 80.6512 13.6 80.6512H96.4C96.9835 80.6512 97.5431 80.4204 97.9556 80.0094Z" fill="#03A447"/>
<path id="Vector_3" d="M56.6002 58.782V71.9297C56.6002 72.5109 56.3684 73.0682 55.9558 73.4792C55.5433 73.8901 54.9837 74.121 54.4002 74.121C53.8167 74.121 53.2571 73.8901 52.8446 73.4792C52.432 73.0682 52.2002 72.5109 52.2002 71.9297V58.782C52.2002 58.2008 52.432 57.6435 52.8446 57.2325C53.2571 56.8216 53.8167 56.5907 54.4002 56.5907C54.9837 56.5907 55.5433 56.8216 55.9558 57.2325C56.3684 57.6435 56.6002 58.2008 56.6002 58.782ZM74.2002 50.0169V71.9297C74.2002 72.5109 73.9684 73.0682 73.5558 73.4792C73.1433 73.8901 72.5837 74.121 72.0002 74.121C71.4167 74.121 70.8571 73.8901 70.4446 73.4792C70.032 73.0682 69.8002 72.5109 69.8002 71.9297V50.0169C69.8002 49.4357 70.032 48.8784 70.4446 48.4674C70.8571 48.0565 71.4167 47.8256 72.0002 47.8256C72.5837 47.8256 73.1433 48.0565 73.5558 48.4674C73.9684 48.8784 74.2002 49.4357 74.2002 50.0169ZM91.8002 41.2518V71.9297C91.8002 72.5109 91.5684 73.0682 91.1558 73.4792C90.7433 73.8901 90.1837 74.121 89.6002 74.121C89.0167 74.121 88.4571 73.8901 88.0446 73.4792C87.632 73.0682 87.4002 72.5109 87.4002 71.9297V41.2518C87.4002 40.6706 87.632 40.1132 88.0446 39.7023C88.4571 39.2914 89.0167 39.0605 89.6002 39.0605C90.1837 39.0605 90.7433 39.2914 91.1558 39.7023C91.5684 40.1132 91.8002 40.6706 91.8002 41.2518Z" fill="#03A447"/>
<g id="Vector_4">
<path d="M33 61C24.7157 61 18 54.2843 18 46C18 44.0598 18.3684 42.2056 19.039 40.5035L21.9642 42.2058C21.5553 43.3953 21.3333 44.6717 21.3333 46C21.3333 52.4433 26.5567 57.6667 33 57.6667C36.8233 57.6667 40.217 55.8276 42.3448 52.9859L45.0325 54.9581C42.2978 58.6253 37.9262 61 33 61Z" fill="#4B5457"/>
<path d="M47.7433 43.2222C47.9119 44.1224 48 45.0509 48 46C48 46.4817 47.9773 46.958 47.9329 47.4281C38.9625 44.6698 34.3516 45.7767 26.3333 49.0556C33.2369 43.9314 37.4442 41.7162 47.7433 43.2222Z" fill="#4B5457"/>
<path d="M47.5964 49.471C47.2868 50.7778 46.8063 52.0185 46.1797 53.1681C39.6825 49.6305 36.7949 49.2976 28 49.0556C36.9142 46.9036 41.4513 46.411 47.5964 49.471Z" fill="#4B5457"/>
<path d="M19.7388 38.9834C22.2567 34.2347 27.2506 31 33 31C39.531 31 45.0872 35.174 47.1464 41C35.7911 40.897 31.714 43.4131 25.2222 48.7778C29.1657 42.3611 32.27 39.5767 41.1649 37.6667C39.0607 35.6047 36.1788 34.3333 33 34.3333C28.4863 34.3333 24.5712 36.8966 22.6311 40.6469L19.7388 38.9834Z" fill="#F27B05"/>
</g>
</g>
<defs>
<clipPath id="clip0_73_949">
<rect width="110" height="114" fill="white"/>
</clipPath>
</defs>
</svg>
