<svg width="75" height="35" viewBox="0 0 75 35" fill="none" xmlns="http://www.w3.org/2000/svg">
<g clip-path="url(#clip0_25_588)">
<path fill-rule="evenodd" clip-rule="evenodd" d="M8.71306 17.0866V13.037C8.71306 13.037 8.14487 13.0601 8.14487 10.723C8.14487 10.3585 8.66476 9.97667 9.01135 9.75394C9.90624 9.17543 9.76987 7.54113 10.1335 7.54113C11.1051 7.54113 10.9858 6.63865 10.9858 6.09485C10.9858 5.47006 10.1335 6.09485 10.1335 6.09485V2.62378H3.31533V6.09485C3.31533 6.09485 2.46306 5.67254 2.46306 6.38411C2.46306 6.80353 2.29828 7.25188 3.03124 7.54113C3.59942 7.76675 3.97158 8.86882 4.2301 9.50808C4.48862 10.1473 5.24715 10.1647 5.24715 10.7287C5.24715 12.8143 4.73578 13.0428 4.73578 13.0428V17.0924L8.71306 17.0866Z" fill="white"/>
<path fill-rule="evenodd" clip-rule="evenodd" d="M7.29262 17.0866H8.71308V13.037C8.71308 13.037 8.14489 13.0601 8.14489 10.723C8.14489 10.3585 8.66478 9.97667 9.01137 9.75395C9.90626 9.17543 9.76989 7.54114 10.1335 7.54114C11.1051 7.54114 10.9858 6.63866 10.9858 6.09485C10.9858 5.47006 10.1335 6.09485 10.1335 6.09485L10.1676 5.86634L10.1335 2.62378H7.8608C7.8608 2.62378 9.07671 4.33328 8.99717 6.38411C8.93751 7.90271 7.81819 9.8089 7.00853 10.4337C6.81535 10.5812 7.29262 17.0866 7.29262 17.0866Z" fill="#F1EEE9"/>
<path fill-rule="evenodd" clip-rule="evenodd" d="M10.4687 5.90962C10.4687 5.90962 12.1278 0.598877 6.44034 0.598877C5.21591 0.598877 4.20738 0.983588 3.73579 1.49846C3.43466 1.82532 3.52272 2.20714 3.36647 2.5716C3.08238 3.22243 2.74147 3.33813 2.7642 3.93979C2.80144 4.6133 2.88019 5.28376 3 5.94722C3 5.99061 3.25 6.1526 3.31534 6.11499C3.38068 6.07739 3.31534 5.84888 3.34375 5.79103C3.43181 5.05342 3.34375 2.91293 4.73579 2.91293C5.34375 2.91293 6.0767 3.56665 6.72443 3.49144C7.29261 3.42202 7.8892 2.91293 8.42897 2.91293C9.61932 2.91293 9.89772 5.01871 10.1335 5.80549C10.1432 5.88134 10.1432 5.95815 10.1335 6.034C10.1335 6.08317 10.1335 6.0745 10.1335 6.09474C10.1335 6.11499 10.3892 5.93855 10.4687 5.90962Z" fill="#39322B"/>
<path fill-rule="evenodd" clip-rule="evenodd" d="M4.73295 5.43517C4.43917 5.39976 4.15204 5.32082 3.88068 5.20087C3.98819 5.08632 4.12446 5.00392 4.2747 4.96262C4.42494 4.92131 4.58342 4.92268 4.73295 4.96658C5.2642 5.09096 5.97727 5.25583 5.86931 5.43517C5.7784 5.57112 5.13636 5.49881 4.73295 5.43517Z" fill="#39322B"/>
<path fill-rule="evenodd" clip-rule="evenodd" d="M8.71592 5.43517C9.0097 5.39976 9.29682 5.32082 9.56819 5.20087C9.46068 5.08632 9.32441 5.00392 9.17417 4.96262C9.02393 4.92131 8.86545 4.92268 8.71592 4.96658C8.18467 5.09096 7.4716 5.25583 7.57955 5.43517C7.67046 5.57112 8.31251 5.49881 8.71592 5.43517Z" fill="#39322B"/>
<path fill-rule="evenodd" clip-rule="evenodd" d="M6.71589 8.11964C7.28408 8.11964 7.28408 7.94897 7.28408 7.94897V8.26426C7.28408 8.30262 7.26911 8.33941 7.24247 8.36653C7.21583 8.39366 7.1797 8.40889 7.14203 8.40889H6.29828C6.26061 8.40889 6.22448 8.39366 6.19784 8.36653C6.1712 8.33941 6.15624 8.30262 6.15624 8.26426V7.95476C6.15624 7.95476 6.14487 8.11964 6.71589 8.11964Z" fill="#F1EEE9"/>
<path fill-rule="evenodd" clip-rule="evenodd" d="M8.71305 15.3508V17.0864H4.73578V15.3508C4.73578 15.3508 5.75567 16.7971 6.72442 16.7971C7.74146 16.7971 8.71305 15.3508 8.71305 15.3508Z" fill="#BED6CE"/>
<path fill-rule="evenodd" clip-rule="evenodd" d="M4.73579 13.0369C4.28257 13.2777 3.80669 13.4716 3.31534 13.6154C2.57102 13.8323 1.6875 13.9046 1.04261 14.4831C0.190338 15.2381 0.190338 17.0865 0.190338 17.0865H4.73579V13.0369Z" fill="#009F90"/>
<path fill-rule="evenodd" clip-rule="evenodd" d="M8.71307 13.0369C9.1663 13.2777 9.64218 13.4716 10.1335 13.6154C10.8778 13.8323 11.7614 13.9046 12.4063 14.4831C13.2585 15.2381 13.2585 17.0865 13.2585 17.0865H8.71307V13.0369Z" fill="#009F90"/>
<path fill-rule="evenodd" clip-rule="evenodd" d="M4.73579 13.0369C4.73579 13.0369 3.83522 13.2162 3.59943 13.6154C3.41477 13.9278 3.88352 14.4831 3.88352 14.4831V15.3509C3.88352 15.3509 3.31534 15.6575 3.31534 15.9294C3.31534 16.2013 3.73579 16.4617 3.88352 16.6844C3.9245 16.7431 3.94652 16.8134 3.94652 16.8854C3.94652 16.9575 3.9245 17.0277 3.88352 17.0865H4.73579V13.0369Z" fill="#006C71"/>
<path fill-rule="evenodd" clip-rule="evenodd" d="M8.71307 13.0369C8.71307 13.0369 9.61364 13.2162 9.84944 13.6154C10.0341 13.9278 9.56535 14.4831 9.56535 14.4831V15.3509C9.56535 15.3509 10.1335 15.6575 10.1335 15.9294C10.1335 16.2013 9.70739 16.4617 9.57387 16.6844C9.53289 16.7431 9.51087 16.8134 9.51087 16.8854C9.51087 16.9575 9.53289 17.0277 9.57387 17.0865H8.7216L8.71307 13.0369Z" fill="#006C71"/>
<path d="M18.2386 14.7723C19.1016 14.7723 19.8011 13.3478 19.8011 11.5905C19.8011 9.83324 19.1016 8.40869 18.2386 8.40869C17.3757 8.40869 16.6761 9.83324 16.6761 11.5905C16.6761 13.3478 17.3757 14.7723 18.2386 14.7723Z" fill="#39322B"/>
<path d="M23.0682 14.7723C23.9311 14.7723 24.6307 13.3478 24.6307 11.5905C24.6307 9.83324 23.9311 8.40869 23.0682 8.40869C22.2052 8.40869 21.5057 9.83324 21.5057 11.5905C21.5057 13.3478 22.2052 14.7723 23.0682 14.7723Z" fill="#39322B"/>
<path fill-rule="evenodd" clip-rule="evenodd" d="M23.4943 4.64819L17.8125 5.80522C17.8125 5.80522 17.5284 6.7077 17.8125 8.69778C17.875 9.1172 18.3409 9.5453 18.6648 9.8548C18.9886 10.1643 19.233 10.0544 19.233 11.8796C19.233 13.7048 17.6136 13.4329 16.108 14.1936C14.6875 14.911 14.6875 17.0862 14.6875 17.0862H26.9034C26.9034 17.0862 26.7216 14.7317 25.767 14.1936C24.5142 13.485 22.0739 13.9767 22.0739 11.8796C22.0739 10.7631 22.0511 10.5317 22.642 9.8548C22.8381 9.62919 23.4347 9.27629 23.4943 8.98704C23.7613 7.55353 23.7613 6.0817 23.4943 4.64819Z" fill="white"/>
<path fill-rule="evenodd" clip-rule="evenodd" d="M20.9375 17.0862H26.9034C26.9034 17.0862 26.7216 14.7317 25.767 14.1936C24.5142 13.485 22.0739 13.9767 22.0739 11.8796C22.0739 10.7631 22.0511 10.5317 22.642 9.8548C22.8381 9.62919 23.4347 9.27629 23.4943 8.98704C23.6932 7.84737 24.1051 6.01348 23.875 4.88538C23.8125 4.57877 23.3068 4.94613 23.2102 4.64819C23.2102 4.64819 23.5511 6.15522 22.8125 8.1858C22.429 9.23869 21 10.066 21 11.0234C21 14.4279 20.9375 17.0862 20.9375 17.0862Z" fill="#F1EEE9"/>
<path fill-rule="evenodd" clip-rule="evenodd" d="M24.3466 13.9045C24.3466 13.9045 26.0511 12.0822 26.0511 10.1441C26.0511 8.02968 25.1023 7.69703 25.1989 6.38381C25.4574 2.84042 24.0966 0.887939 20.6534 0.887939C16.9602 0.887939 15.6989 3.3929 16.1079 6.67306C16.2301 7.64786 15.2557 8.09331 15.2557 9.56563C15.2557 11.9317 16.9602 13.9045 16.9602 13.9045C16.9602 13.9045 17.5284 13.5689 17.5909 13.0656C17.6534 12.5623 17.1648 11.8681 17.3239 11.1855C17.5284 10.3177 18.0085 9.59744 18.0966 8.69786C18.2301 7.34992 17.6222 6.09455 17.8125 6.09455C18.5369 6.09455 20.4176 6.63835 21.5057 6.09455C22.5937 5.55075 23.1591 4.48339 23.517 5.03298C23.75 5.40323 23.0597 7.2053 23.5114 9.45282C23.6619 10.2193 23.9943 10.8991 24.0398 11.7813C24.071 12.4148 23.7784 12.6491 23.7784 13.0425C23.7784 13.9536 24.3466 13.9045 24.3466 13.9045Z" fill="#009F90"/>
<path fill-rule="evenodd" clip-rule="evenodd" d="M21.7898 9.07668C21.4176 8.92916 21.0454 8.69775 20.6534 8.69775C20.2613 8.69775 19.892 8.92916 19.517 9.07668C19.517 9.07668 20.2216 9.85478 20.6534 9.85478C21.0852 9.85478 21.7898 9.07668 21.7898 9.07668Z" fill="#39322B"/>
<path fill-rule="evenodd" clip-rule="evenodd" d="M18.9489 14.1938L17.5284 17.0864H24.3466L22.642 14.1938H18.9489Z" fill="#006C71"/>
<path fill-rule="evenodd" clip-rule="evenodd" d="M18.5653 13.2798L17.9972 13.5372C17.9972 13.5372 19.4318 14.7723 20.7784 14.7723C22.125 14.7723 23.5256 13.5806 23.5256 13.5806L22.8892 13.3376C22.8892 13.3376 21.696 13.9161 20.767 13.9161C19.8381 13.9161 18.5653 13.2798 18.5653 13.2798Z" fill="#009F90"/>
<path fill-rule="evenodd" clip-rule="evenodd" d="M37.4062 17.0863C37.4062 17.0863 38.2585 15.3797 38.2585 14.1938C38.2585 13.6934 37.4062 13.0368 37.4062 13.0368C37.4062 13.0368 36.838 13.0599 36.838 10.7227C36.838 10.3582 37.3579 9.97643 37.7045 9.7537C38.5994 9.17519 38.463 7.54089 38.8267 7.54089C39.7983 7.54089 39.679 6.63841 39.679 6.09461C39.679 5.46982 38.8267 6.09461 38.8267 6.09461V2.62354H32.0085V6.09461C32.0085 6.09461 31.1562 5.6723 31.1562 6.38387C31.1562 6.80329 30.9915 7.25163 31.7244 7.54089C32.2926 7.76651 32.6648 8.86858 32.9233 9.50783C33.1818 10.1471 33.9403 10.1644 33.9403 10.7285C33.9403 12.814 33.429 13.0425 33.429 13.0425C33.429 13.0425 32.2926 13.7194 32.2926 13.9103C32.2926 14.8504 33.429 17.0921 33.429 17.0921L37.4062 17.0863Z" fill="white"/>
<path fill-rule="evenodd" clip-rule="evenodd" d="M35.4176 17.0863H37.4062C37.4062 17.0863 38.2585 15.0211 38.2585 13.9045C38.2585 13.5574 37.4062 13.0368 37.4062 13.0368C37.4062 13.0368 36.8381 13.0599 36.8381 10.7227C36.8381 10.3582 37.3579 9.97643 37.7045 9.7537C38.5994 9.17519 38.4631 7.54089 38.8267 7.54089C39.7983 7.54089 39.679 6.63841 39.679 6.09461C39.679 5.46982 38.8267 6.09461 38.8267 6.09461V2.62354H36.554C36.9063 3.94445 37.0971 5.3046 37.1221 6.67312C37.1221 9.27643 36.5114 9.80866 35.7017 10.4335C35.4918 10.8845 35.3943 11.3812 35.4176 11.8797V17.0863Z" fill="#F1EEE9"/>
<path fill-rule="evenodd" clip-rule="evenodd" d="M32.0341 5.77365C32.0057 5.84596 32.0625 6.02241 32.0057 6.0629C31.9489 6.1034 31.7614 5.99059 31.7216 5.97902C31.5986 5.29422 31.5151 4.60268 31.4716 3.90795C31.446 3.30919 31.7926 3.19059 32.071 2.53976C32.2273 2.1753 32.1392 1.79638 32.4403 1.46662C32.9119 0.951748 33.9204 -0.0114746 35.1449 -0.0114746C37.5511 -0.0114746 38.6335 1.07613 39.0824 2.3315C39.0992 2.40595 39.1405 2.47233 39.1993 2.51966C39.2582 2.567 39.3312 2.59246 39.4062 2.59183C39.7273 2.61208 40.2585 2.41538 40.2585 2.59183C40.2585 2.9939 39.3324 3.06332 39.3324 3.47695C39.3324 3.76621 39.9744 3.3439 39.9744 3.4596C39.9744 3.74886 39.3324 4.07282 39.304 4.32737C39.2756 4.58191 39.4716 4.84803 39.4062 5.19514C39.3259 5.39493 39.2309 5.58831 39.1221 5.77365C39.1221 5.77365 38.9233 6.0629 38.8381 6.0629C38.7983 6.0629 38.8381 5.83439 38.8381 5.77365C38.8381 4.28976 38.1477 4.81621 37.7017 4.61662C37.2784 4.35548 36.8954 4.03185 36.5653 3.65629C36.1875 3.23398 35.9773 2.83481 35.2756 2.83481C34.8011 2.83481 34.2244 3.05464 33.7074 3.14142C33.3409 3.20216 33.0398 3.08646 32.75 3.341C32.4602 3.59555 32.0596 5.55671 32.0341 5.77365Z" fill="#009F90"/>
<path fill-rule="evenodd" clip-rule="evenodd" d="M38.5426 7.83032C38.3332 7.87912 38.1384 7.97831 37.9744 8.11958C37.7386 8.29892 37.4631 8.62867 37.1221 8.69809C36.5767 8.80801 36.554 8.40883 35.2756 8.40883C33.9971 8.40883 33.9744 8.80512 33.429 8.69809C33.1079 8.63156 32.8068 8.28735 32.5767 8.11958C32.4127 7.97831 32.2179 7.87912 32.0085 7.83032C31.9063 7.88272 31.8234 7.96734 31.7722 8.07158C31.721 8.17582 31.7042 8.29411 31.7244 8.40883C32.0568 9.53693 33.4062 11.8799 35.2642 11.8799C37.1221 11.8799 38.4915 9.53115 38.8267 8.40883C38.8459 8.29418 38.8288 8.17625 38.7777 8.07221C38.7266 7.96817 38.6442 7.88343 38.5426 7.83032ZM35.2756 8.98735C36.1278 8.98735 36.8381 8.98735 36.8381 9.2766C36.7749 9.42021 36.6763 9.54471 36.5518 9.63798C36.4273 9.73125 36.2813 9.79011 36.1278 9.80883C35.8835 9.83776 35.7074 9.56007 35.2756 9.56586C34.8437 9.57164 34.6648 9.83776 34.4233 9.80594C34.2704 9.78878 34.1248 9.73078 34.001 9.63782C33.8773 9.54486 33.7799 9.42024 33.7187 9.2766C33.7131 8.99313 34.4233 8.98735 35.2756 8.98735Z" fill="#39322B"/>
<path fill-rule="evenodd" clip-rule="evenodd" d="M33.4261 5.72443C32.804 5.62319 32.2898 5.48435 32.2898 5.49014C32.63 5.27924 33.0321 5.19634 33.4261 5.25584C33.9574 5.38022 34.6704 5.5451 34.5625 5.72443C34.4716 5.86038 33.8295 5.78807 33.4261 5.72443Z" fill="#39322B"/>
<path fill-rule="evenodd" clip-rule="evenodd" d="M37.4091 5.72443C38.0313 5.62319 38.5455 5.48435 38.5455 5.49014C38.2052 5.27924 37.8031 5.19634 37.4091 5.25584C36.8778 5.38022 36.1648 5.5451 36.2727 5.72443C36.3636 5.86038 37.0057 5.78807 37.4091 5.72443Z" fill="#39322B"/>
<path fill-rule="evenodd" clip-rule="evenodd" d="M37.9744 13.3262C38.2444 13.4614 38.5311 13.5587 38.8267 13.6154C39.571 13.8324 40.4545 13.9047 41.0994 14.4832C41.9517 15.2382 41.9517 17.0865 41.9517 17.0865H28.8835C28.8835 17.0865 28.8835 15.2382 29.7358 14.4832C30.3722 13.9047 31.2557 13.8468 32.0085 13.6154C32.3041 13.5587 32.5908 13.4614 32.8608 13.3262C32.8608 13.3262 33.429 16.508 35.3182 16.508C37.3949 16.508 37.9744 13.3262 37.9744 13.3262Z" fill="#006C71"/>
<path fill-rule="evenodd" clip-rule="evenodd" d="M47.358 9.56572L45.6534 14.1938L50.767 13.6153L51.0511 12.4583L52.4716 9.85497L52.7557 8.40869L47.358 9.56572Z" fill="#39322B"/>
<path fill-rule="evenodd" clip-rule="evenodd" d="M52.1875 4.64839C52.1875 4.64839 51.6847 3.01409 50.9773 3.15872C49.3097 3.49715 46.5057 5.80542 46.5057 5.80542C46.5057 5.80542 46.2216 6.70789 46.5057 8.69798C46.5682 9.1174 47.0341 9.5455 47.3579 9.855C47.6818 10.1645 47.9261 10.0546 47.9261 11.8798C47.9261 13.705 46.3068 13.4331 44.8011 14.1938C43.3807 14.9112 43.3807 17.0864 43.3807 17.0864H55.5966C55.5966 17.0864 55.4148 14.7319 54.4602 14.1938C53.2074 13.4852 50.767 13.9769 50.767 11.8798C50.767 10.7633 50.7443 10.5319 51.3352 9.855C51.5312 9.62938 52.1278 9.27649 52.1875 8.98723C52.4545 7.55373 52.4545 6.08189 52.1875 4.64839Z" fill="white"/>
<path fill-rule="evenodd" clip-rule="evenodd" d="M53.0398 8.11943C52.9451 6.96241 52.8504 5.80538 52.7557 4.64836C52.7557 4.64836 52.1165 3.4653 51.5625 3.02274C51.1364 2.68142 50.7614 3.02274 50.767 3.20208C50.7926 3.83266 51.6591 6.98844 51.2216 8.18596C50.8381 9.23886 49.696 10.0661 49.696 11.0236C49.696 14.4281 49.6307 17.0979 49.6307 17.0979H55.5966C55.5966 17.0979 55.4148 14.7434 54.4602 14.2054C53.2074 13.4967 50.767 13.9884 50.767 11.8913C50.7056 11.4452 50.7424 10.9906 50.875 10.5608C50.9809 10.3002 51.1375 10.064 51.3352 9.86654C51.5909 9.60621 52.1307 9.34299 52.3864 9.08266C52.6989 8.75291 52.7273 8.43762 53.0398 8.11943Z" fill="#F1EEE9"/>
<path fill-rule="evenodd" clip-rule="evenodd" d="M50.4829 9.07668C50.1108 8.92916 49.7244 8.69775 49.3466 8.69775C48.9687 8.69775 48.5852 8.92916 48.2102 9.07668C48.2102 9.07668 48.9148 9.85478 49.3466 9.85478C49.7784 9.85478 50.4829 9.07668 50.4829 9.07668Z" fill="#39322B"/>
<path fill-rule="evenodd" clip-rule="evenodd" d="M51.2727 5.8342C51.4804 5.79285 51.6918 5.77443 51.9034 5.77924C51.7959 5.66469 51.6596 5.58229 51.5094 5.54099C51.3591 5.49968 51.2006 5.50105 51.0511 5.54495C50.5199 5.66933 50.0824 6.12346 50.1988 6.3028C50.2983 6.43296 50.9005 5.8747 51.2727 5.8342Z" fill="#39322B"/>
<path fill-rule="evenodd" clip-rule="evenodd" d="M51.0511 13.0367C52.0167 11.8432 52.7234 10.4552 53.125 8.96397C54.0511 5.53339 53.8551 0.887939 49.0625 0.887939C41.9176 0.887939 45.6534 13.9045 45.6534 13.9045C45.7915 13.895 45.9244 13.8472 46.0377 13.7661C46.1509 13.685 46.24 13.5737 46.2954 13.4446C46.5539 12.9181 46.6079 12.1169 47.0199 11.2086C47.7819 9.6246 48.6954 8.12092 49.7471 6.71934C50.5852 5.57968 51.1108 4.06976 51.3352 4.06976C51.8182 4.06976 52.3238 5.38298 52.3238 7.83009C52.3238 9.48753 51.3977 11.1594 50.9403 12.1487C50.8629 12.2893 50.8319 12.4514 50.8518 12.6113C50.8718 12.7712 50.9416 12.9203 51.0511 13.0367Z" fill="#ABAAA5"/>
<path fill-rule="evenodd" clip-rule="evenodd" d="M47.9261 12.7476C48.3809 12.9224 48.8607 13.0202 49.3466 13.0368C49.8322 13.0183 50.3118 12.9207 50.767 12.7476L51.0511 13.0368C49.9462 13.4216 48.747 13.4216 47.642 13.0368L47.9261 12.7476Z" fill="#39322B"/>
<path fill-rule="evenodd" clip-rule="evenodd" d="M49.6307 17.0862C49.6307 17.0862 49.3466 15.6399 47.5113 15.6399C45.6761 15.6399 45.3693 17.0862 45.3693 17.0862H49.6307Z" fill="#006C71"/>
<path fill-rule="evenodd" clip-rule="evenodd" d="M53.608 17.0862C53.608 17.0862 53.3239 15.6399 51.4886 15.6399C49.6534 15.6399 49.3466 17.0862 49.3466 17.0862H53.608Z" fill="#006C71"/>
<path fill-rule="evenodd" clip-rule="evenodd" d="M67.2358 7.54106C66.8721 7.54106 67.0085 9.17536 66.1136 9.75387C65.767 9.9766 65.2471 10.3584 65.2471 10.7229C65.2471 13.0601 65.8153 13.0369 65.8153 13.0369V17.0865H57.2926C57.2926 17.0865 57.2926 15.2382 58.1449 14.4832C58.7812 13.9047 59.6648 13.8468 60.4176 13.6154C60.909 13.4716 61.3848 13.2778 61.8381 13.0369C61.8381 13.0369 62.3494 12.8142 62.3494 10.7229C62.3494 10.1588 61.5767 10.1097 61.3324 9.50222C61.0881 8.89478 60.6932 7.76668 60.1335 7.53527C59.4006 7.24602 59.5653 6.79767 59.5653 6.37825C59.5653 5.66668 60.4176 6.08899 60.4176 6.08899V2.61792H67.2358V6.08899C67.2358 6.08899 68.0881 5.4642 68.0881 6.08899C68.0881 6.63858 68.2074 7.54106 67.2358 7.54106Z" fill="white"/>
<path fill-rule="evenodd" clip-rule="evenodd" d="M65.8153 17.0866H64.1108C64.1108 17.0866 63.9176 10.5812 64.1108 10.4337C64.9205 9.8089 66.0398 7.90271 66.0994 6.38411C66.179 4.33328 64.9631 2.62378 64.9631 2.62378H67.2358V6.09485C67.2358 6.09485 68.0881 5.47006 68.0881 6.09485C68.0881 6.63866 68.2074 7.54114 67.2358 7.54114C66.8722 7.54114 67.0085 9.17543 66.1136 9.75395C65.767 9.97667 65.2472 10.3585 65.2472 10.723C65.2472 13.0601 65.8153 13.037 65.8153 13.037C66.2686 13.2779 66.7444 13.4717 67.2358 13.6155C67.9801 13.8325 68.8636 13.9048 69.5085 14.4833C70.3608 15.2382 70.3608 17.0866 70.3608 17.0866H65.8153Z" fill="#F1EEE9"/>
<path fill-rule="evenodd" clip-rule="evenodd" d="M67.2358 5.80549C67.2358 5.96458 67.1733 6.11499 67.3295 6.11499C67.5064 6.04512 67.6677 5.93988 67.8039 5.80549C68.0024 5.35067 68.0994 4.85675 68.088 4.35921C68.0596 4.11623 68.3721 4.2464 68.3721 4.06995C68.3721 3.22532 68.1647 3.99185 68.088 3.7807C67.9772 3.47698 67.9005 2.91293 67.8039 2.62367C67.3238 1.21789 66.6676 1.52739 66.3835 1.17739C66.2642 1.02119 66.2784 0.598877 65.8153 0.598877C65.6761 0.598877 65.8153 1.17739 65.8153 1.17739C65.8153 1.17739 64.6789 0.179455 61.838 0.888133C60.321 1.26417 59.8125 2.30549 59.6449 3.02863C59.588 3.2716 59.2812 2.88979 59.2812 3.7807C59.2812 3.88193 59.5653 3.49144 59.5653 3.49144C59.5227 3.97256 59.5227 4.4566 59.5653 4.93772C59.5993 5.24404 59.6961 5.53968 59.8494 5.80549C59.9147 5.93855 60.0255 5.96747 60.1619 6.01954C60.2272 6.04268 60.375 6.14392 60.4176 6.09475C60.4602 6.04557 60.3949 5.86623 60.4176 5.80549C60.4176 5.80549 60.5369 5.84888 61.0426 5.62037C61.4886 5.41789 61.7301 5.22698 62.1221 5.22698C62.3068 5.22698 63.0397 4.91169 62.713 5.14888C62.463 5.33111 61.9716 5.49888 62.1221 5.51623C62.5369 5.56251 63.4261 5.33689 64.071 5.03317C64.4744 4.84516 64.6108 4.62532 65.0113 4.42284C65.2386 4.30714 65.4574 4.47491 65.6647 4.34764C66.196 4.02078 66.5852 3.47987 66.6676 3.47987C66.875 3.47987 66.7272 3.91665 66.8125 4.41417C66.9088 4.89086 67.0505 5.35685 67.2358 5.80549Z" fill="#39322B"/>
<path fill-rule="evenodd" clip-rule="evenodd" d="M61.8352 5.72448C61.5414 5.68906 61.2543 5.61013 60.9829 5.49018C61.0905 5.37562 61.2267 5.29323 61.377 5.25192C61.5272 5.21062 61.6857 5.21199 61.8352 5.25588C62.3665 5.38026 63.0795 5.54514 62.9716 5.72448C62.8807 5.86043 62.2386 5.78812 61.8352 5.72448Z" fill="#39322B"/>
<path fill-rule="evenodd" clip-rule="evenodd" d="M65.8182 5.72448C66.1119 5.68906 66.3991 5.61013 66.6704 5.49018C66.5629 5.37562 66.4267 5.29323 66.2764 5.25192C66.1262 5.21062 65.9677 5.21199 65.8182 5.25588C65.2869 5.38026 64.5738 5.54514 64.6818 5.72448C64.7727 5.86043 65.4147 5.78812 65.8182 5.72448Z" fill="#39322B"/>
<path fill-rule="evenodd" clip-rule="evenodd" d="M63.8182 8.69804C64.3863 8.69804 64.3863 8.53027 64.3863 8.53027V8.84267C64.3863 8.88103 64.3714 8.91782 64.3447 8.94494C64.3181 8.97206 64.282 8.9873 64.2443 8.9873H63.392C63.3543 8.9873 63.3182 8.97206 63.2916 8.94494C63.2649 8.91782 63.25 8.88103 63.25 8.84267V8.53027C63.25 8.53027 63.2471 8.69804 63.8182 8.69804Z" fill="#F1EEE9"/>
<path fill-rule="evenodd" clip-rule="evenodd" d="M62.1221 12.4585L63.5426 13.6155H64.1108L65.5312 12.4585L66.3835 13.3263L65.5312 15.0618L64.3949 13.9048H63.2585L62.1221 15.0618L61.2699 13.3263L62.1221 12.4585Z" fill="#009F90"/>
<path fill-rule="evenodd" clip-rule="evenodd" d="M63.2585 13.9047L63.5426 13.6155H64.1108L64.3949 13.9047V14.194L64.1108 14.4832L64.679 17.0866H62.9744L63.5426 14.4832L63.2585 14.194V13.9047Z" fill="#006C71"/>
<path d="M74.8722 33.8921H0.193176V34.8061H74.8722V33.8921Z" fill="#009F90"/>
<path d="M7.06043 26.2397C7.06043 27.6029 6.6715 28.647 5.89363 29.372C5.11955 30.097 3.99995 30.4595 2.53485 30.4595H0.189923V22.1786H2.78973C4.14155 22.1786 5.19129 22.5354 5.93895 23.2491C6.6866 23.9628 7.06043 24.9597 7.06043 26.2397ZM5.2366 26.2851C5.2366 24.5065 4.45119 23.6173 2.88035 23.6173H1.94578V29.0095H2.6991C4.39077 29.0095 5.2366 28.1013 5.2366 26.2851ZM8.56707 22.4901C8.56707 21.9275 8.88048 21.6462 9.50731 21.6462C10.1341 21.6462 10.4475 21.9275 10.4475 22.4901C10.4475 22.7582 10.3682 22.9678 10.2096 23.1188C10.0548 23.2661 9.82072 23.3397 9.50731 23.3397C8.88048 23.3397 8.56707 23.0565 8.56707 22.4901ZM10.3682 30.4595H8.6407V24.1271H10.3682V30.4595ZM17.6975 24.1271V25.005L16.7063 25.2599C16.8876 25.5431 16.9782 25.8603 16.9782 26.2114C16.9782 26.8911 16.7403 27.4216 16.2645 27.803C15.7925 28.1806 15.1355 28.3694 14.2934 28.3694L13.9819 28.3524L13.727 28.3241C13.5496 28.4601 13.4608 28.6111 13.4608 28.7772C13.4608 29.0265 13.778 29.1511 14.4124 29.1511H15.4886C16.1833 29.1511 16.712 29.3002 17.0745 29.5985C17.4408 29.8968 17.6239 30.3349 17.6239 30.9126C17.6239 31.6527 17.3143 32.2267 16.695 32.6345C16.0795 33.0423 15.194 33.2462 14.0386 33.2462C13.155 33.2462 12.4791 33.0914 12.0108 32.7817C11.5464 32.4759 11.3141 32.0454 11.3141 31.4903C11.3141 31.109 11.4331 30.7899 11.671 30.5331C11.9089 30.2763 12.2582 30.0932 12.7188 29.9837C12.5414 29.9082 12.3865 29.7854 12.2544 29.6155C12.1222 29.4418 12.0561 29.2587 12.0561 29.0661C12.0561 28.8244 12.126 28.6243 12.2657 28.4657C12.4054 28.3034 12.6074 28.1448 12.8718 27.9899C12.5395 27.8465 12.2751 27.6161 12.0788 27.2989C11.8862 26.9817 11.7899 26.6079 11.7899 26.1774C11.7899 25.4864 12.0146 24.9521 12.4639 24.5745C12.9133 24.1969 13.5552 24.0081 14.3897 24.0081C14.5672 24.0081 14.7768 24.0251 15.0184 24.0591C15.2639 24.0893 15.4206 24.1119 15.4886 24.1271H17.6975ZM12.8095 31.3544C12.8095 31.5923 12.9227 31.7792 13.1493 31.9151C13.3796 32.0511 13.7006 32.119 14.1122 32.119C14.7315 32.119 15.2167 32.0341 15.5679 31.8642C15.919 31.6942 16.0946 31.462 16.0946 31.1675C16.0946 30.9296 15.9908 30.7653 15.7831 30.6747C15.5754 30.5841 15.2544 30.5388 14.8202 30.5388H13.9253C13.6081 30.5388 13.3419 30.6124 13.1266 30.7597C12.9152 30.9107 12.8095 31.109 12.8095 31.3544ZM13.4382 26.2001C13.4382 26.5437 13.5156 26.8156 13.6704 27.0157C13.829 27.2159 14.0688 27.3159 14.3897 27.3159C14.7145 27.3159 14.9524 27.2159 15.1034 27.0157C15.2544 26.8156 15.33 26.5437 15.33 26.2001C15.33 25.4373 15.0166 25.056 14.3897 25.056C13.7554 25.056 13.4382 25.4373 13.4382 26.2001ZM18.6718 22.4901C18.6718 21.9275 18.9852 21.6462 19.612 21.6462C20.2388 21.6462 20.5522 21.9275 20.5522 22.4901C20.5522 22.7582 20.4729 22.9678 20.3143 23.1188C20.1595 23.2661 19.9254 23.3397 19.612 23.3397C18.9852 23.3397 18.6718 23.0565 18.6718 22.4901ZM20.4729 30.4595H18.7454V24.1271H20.4729V30.4595ZM24.9589 29.1964C25.261 29.1964 25.6235 29.1303 26.0464 28.9981V30.2839C25.6159 30.4765 25.0873 30.5728 24.4604 30.5728C23.7694 30.5728 23.2653 30.3991 22.9481 30.0517C22.6347 29.7005 22.478 29.1756 22.478 28.4771V25.4241H21.6511V24.6935L22.6026 24.1157L23.1011 22.779H24.2055V24.1271H25.9784V25.4241H24.2055V28.4771C24.2055 28.7225 24.2735 28.9037 24.4095 29.0208C24.5492 29.1379 24.7323 29.1964 24.9589 29.1964ZM31.3536 30.4595L31.0194 29.5985H30.9741C30.6833 29.9648 30.3832 30.2197 30.0735 30.3632C29.7677 30.5029 29.3674 30.5728 28.8727 30.5728C28.2648 30.5728 27.7852 30.3991 27.4341 30.0517C27.0867 29.7043 26.913 29.2096 26.913 28.5677C26.913 27.8955 27.1471 27.4009 27.6153 27.0837C28.0873 26.7627 28.7972 26.5853 29.745 26.5513L30.8438 26.5173V26.2397C30.8438 25.5978 30.5153 25.2769 29.8583 25.2769C29.3523 25.2769 28.7576 25.4298 28.0741 25.7356L27.502 24.5688C28.2308 24.1875 29.0389 23.9968 29.9263 23.9968C30.7759 23.9968 31.4272 24.1818 31.8804 24.5519C32.3335 24.9219 32.56 25.4845 32.56 26.2397V30.4595H31.3536ZM30.8438 27.5255L30.1755 27.5481C29.6733 27.5632 29.2994 27.6539 29.054 27.82C28.8085 27.9862 28.6858 28.2392 28.6858 28.579C28.6858 29.0661 28.9652 29.3097 29.5241 29.3097C29.9244 29.3097 30.2434 29.1945 30.4813 28.9642C30.723 28.7338 30.8438 28.428 30.8438 28.0466V27.5255ZM36.0718 30.4595H34.3442V21.6462H36.0718V30.4595ZM37.6464 29.6495C37.6464 29.3323 37.7313 29.0925 37.9013 28.9302C38.0712 28.7678 38.3185 28.6866 38.6432 28.6866C38.9567 28.6866 39.1983 28.7697 39.3682 28.9358C39.5419 29.102 39.6288 29.3399 39.6288 29.6495C39.6288 29.9478 39.5419 30.1838 39.3682 30.3575C39.1945 30.5274 38.9529 30.6124 38.6432 30.6124C38.3261 30.6124 38.0806 30.5293 37.9069 30.3632C37.7332 30.1933 37.6464 29.9554 37.6464 29.6495ZM44.5282 30.4595H42.7723V23.6399H40.5237V22.1786H46.7768V23.6399H44.5282V30.4595ZM49.2917 27.2819C49.2917 27.9088 49.3936 28.3826 49.5975 28.7036C49.8052 29.0246 50.1413 29.1851 50.6057 29.1851C51.0664 29.1851 51.3968 29.0265 51.597 28.7093C51.8009 28.3883 51.9028 27.9125 51.9028 27.2819C51.9028 26.6551 51.8009 26.185 51.597 25.8716C51.393 25.5582 51.0589 25.4015 50.5944 25.4015C50.1337 25.4015 49.8014 25.5582 49.5975 25.8716C49.3936 26.1812 49.2917 26.6513 49.2917 27.2819ZM53.67 27.2819C53.67 28.3128 53.3981 29.119 52.8544 29.7005C52.3106 30.282 51.5535 30.5728 50.5831 30.5728C49.9751 30.5728 49.4389 30.4406 48.9745 30.1763C48.51 29.9082 48.1532 29.5249 47.904 29.0265C47.6548 28.528 47.5302 27.9465 47.5302 27.2819C47.5302 26.2473 47.8001 25.443 48.3401 24.869C48.8801 24.2951 49.6391 24.0081 50.6171 24.0081C51.225 24.0081 51.7612 24.1403 52.2257 24.4046C52.6901 24.6689 53.047 25.0484 53.2962 25.5431C53.5454 26.0377 53.67 26.6174 53.67 27.2819ZM56.4737 27.2819C56.4737 27.9088 56.5757 28.3826 56.7796 28.7036C56.9873 29.0246 57.3233 29.1851 57.7878 29.1851C58.2485 29.1851 58.5789 29.0265 58.779 28.7093C58.9829 28.3883 59.0848 27.9125 59.0848 27.2819C59.0848 26.6551 58.9829 26.185 58.779 25.8716C58.5751 25.5582 58.2409 25.4015 57.7764 25.4015C57.3158 25.4015 56.9835 25.5582 56.7796 25.8716C56.5757 26.1812 56.4737 26.6513 56.4737 27.2819ZM60.852 27.2819C60.852 28.3128 60.5802 29.119 60.0364 29.7005C59.4927 30.282 58.7356 30.5728 57.7651 30.5728C57.1572 30.5728 56.621 30.4406 56.1565 30.1763C55.6921 29.9082 55.3352 29.5249 55.086 29.0265C54.8368 28.528 54.7122 27.9465 54.7122 27.2819C54.7122 26.2473 54.9822 25.443 55.5222 24.869C56.0621 24.2951 56.8211 24.0081 57.7991 24.0081C58.407 24.0081 58.9432 24.1403 59.4077 24.4046C59.8722 24.6689 60.229 25.0484 60.4782 25.5431C60.7274 26.0377 60.852 26.6174 60.852 27.2819ZM64.0069 30.4595H62.2794V21.6462H64.0069V30.4595ZM70.243 28.579C70.243 29.2285 70.0165 29.7231 69.5634 30.063C69.114 30.4028 68.44 30.5728 67.5413 30.5728C67.0806 30.5728 66.6879 30.5407 66.3632 30.4765C66.0384 30.416 65.7345 30.3254 65.4513 30.2046V28.7772C65.7722 28.9283 66.1328 29.0548 66.5331 29.1567C66.9371 29.2587 67.2921 29.3097 67.5979 29.3097C68.2248 29.3097 68.5382 29.1284 68.5382 28.7659C68.5382 28.63 68.4966 28.5205 68.4136 28.4374C68.3305 28.3506 68.187 28.2543 67.9831 28.1485C67.7792 28.039 67.5073 27.9125 67.1675 27.769C66.6804 27.5651 66.3216 27.3763 66.0913 27.2026C65.8647 27.0289 65.6986 26.8307 65.5929 26.6079C65.4909 26.3813 65.4399 26.1038 65.4399 25.7753C65.4399 25.2127 65.657 24.7784 66.0913 24.4726C66.5293 24.1629 67.1486 24.0081 67.9491 24.0081C68.7119 24.0081 69.4539 24.1743 70.1751 24.5065L69.654 25.7526C69.3368 25.6167 69.0404 25.5053 68.7647 25.4185C68.4891 25.3316 68.2078 25.2882 67.9208 25.2882C67.411 25.2882 67.1561 25.426 67.1561 25.7017C67.1561 25.8565 67.2373 25.9905 67.3997 26.1038C67.5658 26.2171 67.9264 26.3851 68.4815 26.6079C68.9762 26.808 69.3387 26.995 69.569 27.1687C69.7994 27.3424 69.9693 27.5425 70.0788 27.769C70.1883 27.9956 70.243 28.2656 70.243 28.579Z" fill="black"/>
<path d="M74.0682 21.7346C74.5122 21.7346 74.8722 21.3681 74.8722 20.916C74.8722 20.4639 74.5122 20.0974 74.0682 20.0974C73.6242 20.0974 73.2642 20.4639 73.2642 20.916C73.2642 21.3681 73.6242 21.7346 74.0682 21.7346Z" fill="#009F90"/>
<path d="M74.0682 25.4949C74.5122 25.4949 74.8722 25.1284 74.8722 24.6763C74.8722 24.2242 74.5122 23.8577 74.0682 23.8577C73.6242 23.8577 73.2642 24.2242 73.2642 24.6763C73.2642 25.1284 73.6242 25.4949 74.0682 25.4949Z" fill="#009F90"/>
<path d="M74.0682 29.2554C74.5122 29.2554 74.8722 28.8889 74.8722 28.4368C74.8722 27.9847 74.5122 27.6182 74.0682 27.6182C73.6242 27.6182 73.2642 27.9847 73.2642 28.4368C73.2642 28.8889 73.6242 29.2554 74.0682 29.2554Z" fill="#009F90"/>
</g>
<defs>
<clipPath id="clip0_25_588">
<rect width="75" height="35" fill="white"/>
</clipPath>
</defs>
</svg>
