<?xml version="1.0" encoding="utf-8"?><svg viewBox="0 0 653 800" xmlns="http://www.w3.org/2000/svg" xmlns:xlink="http://www.w3.org/1999/xlink"><style>:root>svg{display:none}:root>svg:target{display:block}</style><svg fill="none" viewBox="0 0 363 435" id="banner-logo" xmlns="http://www.w3.org/2000/svg"><g opacity=".2"><g filter="url(#afilter0_b_25_571)"><path d="M247.5 465C110.81 465 0 354.191 0 217.5c0-32.014 6.078-62.608 17.144-90.691l48.265 28.087C58.662 174.523 55 195.584 55 217.5 55 323.815 141.185 410 247.5 410c63.084 0 119.08-30.344 154.189-77.233l44.347 32.542C400.914 425.817 328.783 465 247.5 465z" fill="#fff" fill-opacity=".7"/><path d="M490.764 171.667A248.786 248.786 0 01495 217.5c0 7.948-.375 15.808-1.107 23.564-148.011-45.512-224.091-27.249-356.393 26.853 113.909-84.548 183.33-121.1 353.264-96.25z" fill="#fff" fill-opacity=".7"/><path d="M488.34 274.772a245.837 245.837 0 01-23.375 61.001C357.761 277.404 310.117 271.91 165 267.917c147.084-35.507 221.947-43.636 323.34 6.855z" fill="#fff" fill-opacity=".7"/><path d="M247.5 464.5c-136.414 0-247-110.586-247-247 0-31.744 5.988-62.089 16.896-89.966l47.407 27.588C58.123 174.69 54.5 195.672 54.5 217.5c0 106.591 86.409 193 193 193 63.07 0 119.074-30.253 154.292-77.038l43.541 31.951C400.283 425.571 328.438 464.5 247.5 464.5zm45.772-285.256c52.667-16.547 112.331-19.493 197.067-7.134a248.455 248.455 0 014.161 45.39c0 7.723-.354 15.363-1.048 22.905-73.758-22.624-129.697-29.4-183.698-23.767-53.127 5.542-104.344 23.093-168.763 49.314 55.477-41.034 100.522-70.445 152.281-86.708zm50.534 60.351c49.574-.158 93.471 10.361 143.956 35.448a245.34 245.34 0 01-22.997 60.052c-53.398-29.046-92.065-44.973-135.462-54.13-42.746-9.02-90.06-11.467-160.526-13.444 71.727-17.232 126.146-27.77 175.029-27.926z" stroke="#fff"/></g><g filter="url(#afilter1_b_25_571)"><path d="M28.691 101.727C70.236 23.372 152.635-30 247.5-30c107.763 0 199.44 68.872 233.417 165-187.363-1.699-254.634 39.817-361.75 128.333C184.235 157.458 235.456 111.516 382.222 80c-34.72-34.023-82.271-55-134.722-55-74.476 0-139.074 42.294-171.085 104.174L28.69 101.727z" fill="#fff" fill-opacity=".7"/><path d="M247.5 24.5c-74.484 0-139.112 42.194-171.289 103.98L29.36 101.534C70.893 23.57 153-29.5 247.5-29.5c107.293 0 198.609 68.41 232.707 163.994-93.327-.793-156.869 9.168-210.442 30.377-52.926 20.953-96.084 52.871-148.589 96.156 31.886-51.58 60.608-88.704 99.176-116.841 39.205-28.601 88.626-47.946 161.975-63.697l.909-.195-.664-.651C347.763 45.533 300.087 24.5 247.5 24.5z" stroke="#fff"/></g></g><defs><filter id="afilter0_b_25_571" x="-20" y="106.809" width="535" height="378.192" filterUnits="userSpaceOnUse" color-interpolation-filters="sRGB"><feFlood flood-opacity="0" result="BackgroundImageFix"/><feGaussianBlur in="BackgroundImageFix" stdDeviation="10"/><feComposite in2="SourceAlpha" operator="in" result="effect1_backgroundBlur_25_571"/><feBlend in="SourceGraphic" in2="effect1_backgroundBlur_25_571" result="shape"/></filter><filter id="afilter1_b_25_571" x="8.691" y="-50" width="492.226" height="333.333" filterUnits="userSpaceOnUse" color-interpolation-filters="sRGB"><feFlood flood-opacity="0" result="BackgroundImageFix"/><feGaussianBlur in="BackgroundImageFix" stdDeviation="10"/><feComposite in2="SourceAlpha" operator="in" result="effect1_backgroundBlur_25_571"/><feBlend in="SourceGraphic" in2="effect1_backgroundBlur_25_571" result="shape"/></filter></defs></svg><svg fill="none" viewBox="0 0 363 435" id="contacts-logo" xmlns="http://www.w3.org/2000/svg"><g opacity=".2"><g filter="url(#bfilter0_b_25_571)"><path d="M247.5 465C110.81 465 0 354.191 0 217.5c0-32.014 6.078-62.608 17.144-90.691l48.265 28.087C58.662 174.523 55 195.584 55 217.5 55 323.815 141.185 410 247.5 410c63.084 0 119.08-30.344 154.189-77.233l44.347 32.542C400.914 425.817 328.783 465 247.5 465z" fill="#fff" fill-opacity=".7"/><path d="M490.764 171.667A248.786 248.786 0 01495 217.5c0 7.948-.375 15.808-1.107 23.564-148.011-45.512-224.091-27.249-356.393 26.853 113.909-84.548 183.33-121.1 353.264-96.25z" fill="#fff" fill-opacity=".7"/><path d="M488.34 274.772a245.837 245.837 0 01-23.375 61.001C357.761 277.404 310.117 271.91 165 267.917c147.084-35.507 221.947-43.636 323.34 6.855z" fill="#fff" fill-opacity=".7"/><path d="M247.5 464.5c-136.414 0-247-110.586-247-247 0-31.744 5.988-62.089 16.896-89.966l47.407 27.588C58.123 174.69 54.5 195.672 54.5 217.5c0 106.591 86.409 193 193 193 63.07 0 119.074-30.253 154.292-77.038l43.541 31.951C400.283 425.571 328.438 464.5 247.5 464.5zm45.772-285.256c52.667-16.547 112.331-19.493 197.067-7.134a248.455 248.455 0 014.161 45.39c0 7.723-.354 15.363-1.048 22.905-73.758-22.624-129.697-29.4-183.698-23.767-53.127 5.542-104.344 23.093-168.763 49.314 55.477-41.034 100.522-70.445 152.281-86.708zm50.534 60.351c49.574-.158 93.471 10.361 143.956 35.448a245.34 245.34 0 01-22.997 60.052c-53.398-29.046-92.065-44.973-135.462-54.13-42.746-9.02-90.06-11.467-160.526-13.444 71.727-17.232 126.146-27.77 175.029-27.926z" stroke="#fff"/></g><g filter="url(#bfilter1_b_25_571)"><path d="M28.691 101.727C70.236 23.372 152.635-30 247.5-30c107.763 0 199.44 68.872 233.417 165-187.363-1.699-254.634 39.817-361.75 128.333C184.235 157.458 235.456 111.516 382.222 80c-34.72-34.023-82.271-55-134.722-55-74.476 0-139.074 42.294-171.085 104.174L28.69 101.727z" fill="#fff" fill-opacity=".7"/><path d="M247.5 24.5c-74.484 0-139.112 42.194-171.289 103.98L29.36 101.534C70.893 23.57 153-29.5 247.5-29.5c107.293 0 198.609 68.41 232.707 163.994-93.327-.793-156.869 9.168-210.442 30.377-52.926 20.953-96.084 52.871-148.589 96.156 31.886-51.58 60.608-88.704 99.176-116.841 39.205-28.601 88.626-47.946 161.975-63.697l.909-.195-.664-.651C347.763 45.533 300.087 24.5 247.5 24.5z" stroke="#fff"/></g></g><defs><filter id="bfilter0_b_25_571" x="-20" y="106.809" width="535" height="378.192" filterUnits="userSpaceOnUse" color-interpolation-filters="sRGB"><feFlood flood-opacity="0" result="BackgroundImageFix"/><feGaussianBlur in="BackgroundImageFix" stdDeviation="10"/><feComposite in2="SourceAlpha" operator="in" result="effect1_backgroundBlur_25_571"/><feBlend in="SourceGraphic" in2="effect1_backgroundBlur_25_571" result="shape"/></filter><filter id="bfilter1_b_25_571" x="8.691" y="-50" width="492.226" height="333.333" filterUnits="userSpaceOnUse" color-interpolation-filters="sRGB"><feFlood flood-opacity="0" result="BackgroundImageFix"/><feGaussianBlur in="BackgroundImageFix" stdDeviation="10"/><feComposite in2="SourceAlpha" operator="in" result="effect1_backgroundBlur_25_571"/><feBlend in="SourceGraphic" in2="effect1_backgroundBlur_25_571" result="shape"/></filter></defs></svg><svg fill="none" viewBox="0 0 653 800" id="hero-logo" xmlns="http://www.w3.org/2000/svg"><g opacity=".2"><g filter="url(#cfilter0_b_25_83)"><path d="M460 860C205.949 860 0 654.051 0 400c0-59.5 11.297-116.362 31.863-168.558l89.705 52.203c-12.539 36.478-19.346 75.622-19.346 116.355 0 197.595 160.183 357.778 357.778 357.778 117.246 0 221.32-56.398 286.573-143.545l82.423 60.482C745.134 787.175 611.072 860 460 860z" fill="#fff" fill-opacity=".7"/><path d="M912.128 314.815C917.297 342.42 920 370.895 920 400c0 14.771-.696 29.38-2.058 43.795-275.091-84.586-416.492-50.644-662.386 49.909 211.709-157.14 340.733-225.075 656.572-178.889z" fill="#fff" fill-opacity=".7"/><path d="M907.622 506.445a456.907 456.907 0 01-43.445 113.376C664.93 511.336 576.378 501.126 306.667 493.704c273.368-65.993 412.507-81.101 600.955 12.741z" fill="#fff" fill-opacity=".7"/><path d="M460 859.5C206.225 859.5.5 653.775.5 400c0-59.231 11.207-115.843 31.615-167.833l88.847 51.704c-12.471 36.419-19.24 75.484-19.24 116.129 0 197.871 160.407 358.278 358.278 358.278 117.233 0 221.315-56.307 286.677-143.349l81.616 59.891C744.502 786.929 610.726 859.5 460 859.5zm84.943-531.011c98.031-30.8 209.072-36.258 366.759-13.231 5.121 27.466 7.798 55.791 7.798 84.742a465.3 465.3 0 01-1.998 43.137c-137.298-42.162-241.338-54.787-341.754-44.312-99.544 10.384-195.492 43.467-316.703 92.913 104.375-77.33 188.773-132.734 285.898-163.249zm94.048 112.147c92.31-.295 174.041 19.317 268.053 66.08a456.428 456.428 0 01-43.067 112.427c-99.419-54.104-171.324-83.739-252.028-100.768-80.055-16.893-168.748-21.377-301.508-25.067 134.869-32.475 236.929-52.379 328.55-52.672z" stroke="#fff"/></g><g filter="url(#cfilter1_b_25_83)"><path d="M53.325 184.825C130.538 39.197 283.685-60 460-60c200.287 0 370.677 128.004 433.825 306.667-348.23-3.158-473.26 74.003-672.344 238.518C342.416 288.408 437.614 203.02 710.392 144.444 645.862 81.21 557.484 42.222 460 42.222c-138.421 0-258.481 78.607-317.977 193.617l-88.698-51.014z" fill="#fff" fill-opacity=".7"/><path d="M460 41.722c-138.428 0-258.519 78.507-318.181 193.423l-87.826-50.512C131.196 39.394 284.05-59.5 460-59.5c199.816 0 369.845 127.543 433.115 305.66-173.761-1.522-291.959 16.985-391.576 56.424-98.972 39.183-179.564 99.013-278.052 180.296 59.819-97.031 113.504-166.743 185.803-219.487 72.934-53.208 164.852-89.179 301.207-118.46l.909-.195-.664-.651C646.123 80.766 557.62 41.722 460 41.722z" stroke="#fff"/></g></g><defs><filter id="cfilter0_b_25_83" x="-20" y="211.442" width="960" height="668.558" filterUnits="userSpaceOnUse" color-interpolation-filters="sRGB"><feFlood flood-opacity="0" result="BackgroundImageFix"/><feGaussianBlur in="BackgroundImageFix" stdDeviation="10"/><feComposite in2="SourceAlpha" operator="in" result="effect1_backgroundBlur_25_83"/><feBlend in="SourceGraphic" in2="effect1_backgroundBlur_25_83" result="shape"/></filter><filter id="cfilter1_b_25_83" x="33.325" y="-80" width="880.5" height="585.185" filterUnits="userSpaceOnUse" color-interpolation-filters="sRGB"><feFlood flood-opacity="0" result="BackgroundImageFix"/><feGaussianBlur in="BackgroundImageFix" stdDeviation="10"/><feComposite in2="SourceAlpha" operator="in" result="effect1_backgroundBlur_25_83"/><feBlend in="SourceGraphic" in2="effect1_backgroundBlur_25_83" result="shape"/></filter></defs></svg><svg fill="none" viewBox="0 0 110 114" id="icon-certificate" xmlns="http://www.w3.org/2000/svg"><g clip-path="url(#dclip0_73_841)"><path d="M110 62.912a26.624 26.624 0 00-3.148-12.59 26.532 26.532 0 00-8.718-9.59 26.407 26.407 0 00-24.99-2.289 26.49 26.49 0 00-10.305 7.849 26.605 26.605 0 00-5.369 11.81 26.645 26.645 0 00.85 12.95 26.578 26.578 0 006.865 11.002v29.901a2.05 2.05 0 00.966 1.74 2.039 2.039 0 001.983.089l15.385-7.719 15.384 7.719a2.035 2.035 0 002.352-.384c.382-.383.597-.903.597-1.445v-29.9a26.504 26.504 0 006.027-8.735c1.4-3.29 2.122-6.83 2.121-10.408zm-48.889 0c0-4.445 1.314-8.791 3.777-12.488a22.423 22.423 0 0110.056-8.279 22.342 22.342 0 0112.946-1.279 22.386 22.386 0 0111.473 6.152 22.493 22.493 0 016.132 11.51 22.54 22.54 0 01-1.275 12.986 22.463 22.463 0 01-8.252 10.088 22.358 22.358 0 01-12.45 3.788 22.398 22.398 0 01-15.836-6.59 22.539 22.539 0 01-6.57-15.888zm36.667 45.738l-13.348-6.698a2.032 2.032 0 00-1.823 0l-13.348 6.698V85.278a26.32 26.32 0 0014.26 4.199 26.32 26.32 0 0014.259-4.2v23.373z" fill="#03A447"/><g fill="#F27B05"><path d="M52.963 95.608c0 .541-.215 1.061-.597 1.444-.382.384-.9.599-1.44.599H6.11a6.101 6.101 0 01-4.321-1.796A6.14 6.14 0 010 91.521V6.13a6.14 6.14 0 011.79-4.335A6.101 6.101 0 016.11 0h89.63c1.62 0 3.175.646 4.321 1.796a6.14 6.14 0 011.79 4.334c0 .542-.215 1.062-.597 1.445a2.033 2.033 0 01-2.88 0 2.047 2.047 0 01-.597-1.445c0-.542-.215-1.061-.597-1.445a2.034 2.034 0 00-1.44-.598H6.11c-.54 0-1.058.215-1.44.598a2.047 2.047 0 00-.597 1.445v85.39c0 .543.215 1.062.597 1.446.382.383.9.598 1.44.598h44.815c.54 0 1.058.215 1.44.599.382.383.597.903.597 1.445zm6.852-62.609c0 .542-.215 1.062-.597 1.445s-.9.599-1.44.599h-40.37c-.54 0-1.059-.216-1.441-.599a2.047 2.047 0 010-2.89c.382-.383.9-.598 1.44-.598h40.37c.541 0 1.06.215 1.441.598.382.384.597.903.597 1.445zm20-16.347c0 .542-.215 1.061-.597 1.445-.382.383-.9.598-1.44.598h-60.37c-.54 0-1.059-.215-1.441-.598a2.047 2.047 0 011.44-3.489h60.37c.541 0 1.06.215 1.441.599.382.383.597.903.597 1.445z"/><path d="M39.218 66.444a2.047 2.047 0 000-2.89 2.034 2.034 0 00-1.44-.598h-20.37c-.54 0-1.059.215-1.441.598a2.047 2.047 0 000 2.89c.382.383.9.599 1.44.599h20.37c.541 0 1.06-.216 1.441-.599zM49.218 50.097a2.047 2.047 0 000-2.89 2.034 2.034 0 00-1.44-.599h-30.37c-.54 0-1.059.216-1.441.599a2.047 2.047 0 000 2.89c.382.383.9.598 1.44.598h30.37c.541 0 1.06-.215 1.441-.598zM39.218 82.444a2.047 2.047 0 000-2.89 2.034 2.034 0 00-1.44-.598h-20.37c-.54 0-1.059.215-1.441.598a2.047 2.047 0 000 2.89c.382.383.9.599 1.44.599h20.37c.541 0 1.06-.216 1.441-.599z"/></g><path d="M84 78c-8.284 0-15-6.716-15-15 0-1.94.368-3.794 1.039-5.496l2.925 1.702a11.65 11.65 0 00-.63 3.794c0 6.443 5.223 11.667 11.666 11.667a11.65 11.65 0 009.345-4.681l2.688 1.972A14.978 14.978 0 0184 78z" fill="#4B5457"/><path d="M98.743 60.222a15.079 15.079 0 01.19 4.206c-8.97-2.758-13.581-1.651-21.6 1.628 6.904-5.125 11.111-7.34 21.41-5.834z" fill="#4B5457"/><path d="M98.596 66.471a14.899 14.899 0 01-1.416 3.697c-6.498-3.538-9.385-3.87-18.18-4.112 8.914-2.152 13.451-2.645 19.596.415z" fill="#4B5457"/><path d="M70.739 55.983C73.257 51.235 78.25 48 84 48c6.531 0 12.087 4.174 14.146 10-11.355-.103-15.432 2.413-21.924 7.778 3.944-6.417 7.048-9.201 15.943-11.111A11.629 11.629 0 0084 51.333a11.666 11.666 0 00-10.369 6.314l-2.892-1.664z" fill="#F27B05"/></g><defs><clipPath id="dclip0_73_841"><path fill="#fff" d="M0 0h110v114H0z"/></clipPath></defs></svg><svg fill="none" viewBox="0 0 22 21" id="icon-close" xmlns="http://www.w3.org/2000/svg"><path d="M21 19.148L1.851 0 .437 1.414l19.149 19.149L21 19.148z" fill="#000"/><path d="M1 19.148L20.149 0l1.414 1.414L2.414 20.563 1 19.148z" fill="#000"/></svg><svg fill="none" viewBox="0 0 110 114" id="icon-home" xmlns="http://www.w3.org/2000/svg"><g clip-path="url(#fclip0_73_816)"><path d="M108.103 110.2h-9.482V36.105c0-1.511-.6-2.961-1.667-4.03a5.684 5.684 0 00-4.023-1.67H60.69V5.709A5.707 5.707 0 0057.688.676a5.681 5.681 0 00-5.846.282l-37.93 25.33a5.694 5.694 0 00-2.533 4.75V110.2H1.897a1.9 1.9 0 000 3.8h106.206a1.898 1.898 0 001.342-3.243 1.895 1.895 0 00-1.342-.557zM92.931 34.205a1.895 1.895 0 011.897 1.9V110.2H60.69V34.205H92.93zm-77.759-3.163a1.902 1.902 0 01.844-1.586l37.931-25.33a1.894 1.894 0 012.95 1.582V110.2H15.172V31.042zm30.345 42.663v7.599a1.902 1.902 0 01-1.896 1.9 1.895 1.895 0 01-1.897-1.9v-7.6a1.902 1.902 0 011.897-1.9 1.895 1.895 0 011.896 1.9zm-15.172 0v7.599a1.901 1.901 0 01-1.897 1.9 1.895 1.895 0 01-1.896-1.9v-7.6a1.901 1.901 0 011.896-1.9 1.895 1.895 0 011.897 1.9zm0 21.597v7.6a1.902 1.902 0 01-1.897 1.899 1.896 1.896 0 01-1.896-1.899v-7.6a1.901 1.901 0 011.896-1.9 1.895 1.895 0 011.897 1.9zm15.172 0v7.6a1.896 1.896 0 11-3.793 0v-7.6a1.902 1.902 0 011.897-1.9 1.895 1.895 0 011.896 1.9z" fill="#F27B05"/><g fill="#03A447"><path fill-rule="evenodd" clip-rule="evenodd" d="M44.962 82.647c.355-.356.555-.84.555-1.343v-7.6a1.902 1.902 0 00-1.896-1.9 1.895 1.895 0 00-1.897 1.9v7.6a1.902 1.902 0 001.897 1.9c.503 0 .985-.2 1.34-.557zm-15.173 0c.356-.356.556-.84.556-1.343v-7.6a1.901 1.901 0 00-1.897-1.9 1.895 1.895 0 00-1.896 1.9v7.6a1.901 1.901 0 001.896 1.9c.503 0 .986-.2 1.341-.557zm0 21.598c.356-.356.556-.84.556-1.343v-7.6a1.901 1.901 0 00-1.897-1.9 1.895 1.895 0 00-1.896 1.9v7.6a1.902 1.902 0 001.896 1.899c.503 0 .986-.2 1.341-.556zm15.173 0c.355-.356.555-.84.555-1.343v-7.6a1.902 1.902 0 00-1.896-1.9 1.895 1.895 0 00-1.897 1.9v7.6a1.896 1.896 0 003.238 1.343z"/><path d="M60.69 30.406V5.708A5.707 5.707 0 0057.688.676a5.681 5.681 0 00-5.846.282l-37.93 25.33a5.694 5.694 0 00-2.533 4.75V110.2h3.793V31.042a1.903 1.903 0 01.844-1.586l37.931-25.33a1.894 1.894 0 012.95 1.582V110.2h3.793V30.405z"/></g><path fill-rule="evenodd" clip-rule="evenodd" d="M84.962 52.647c.355-.356.555-.84.555-1.343v-7.6a1.902 1.902 0 00-1.896-1.9 1.895 1.895 0 00-1.897 1.9v7.6a1.902 1.902 0 001.897 1.9c.503 0 .985-.2 1.34-.557zm-15.173 0c.356-.356.556-.84.556-1.343v-7.6a1.902 1.902 0 00-1.897-1.9 1.895 1.895 0 00-1.896 1.9v7.6a1.901 1.901 0 001.896 1.9c.503 0 .986-.2 1.341-.557zm0 51.598c.356-.356.556-.84.556-1.344v-7.599a1.901 1.901 0 00-1.897-1.9 1.895 1.895 0 00-1.896 1.9v7.599a1.896 1.896 0 003.238 1.344zm15.173 0c.355-.356.555-.84.555-1.344v-7.599a1.902 1.902 0 00-1.896-1.9 1.895 1.895 0 00-1.897 1.9v7.599a1.896 1.896 0 003.238 1.344z" fill="#F27B05"/><path d="M92.004 66.5v8a1.5 1.5 0 01-3 0v-4.375l-9.439 9.44a1.5 1.5 0 01-2.125 0l-3.936-3.94-7.939 7.936a1.503 1.503 0 01-2.125-2.125l9-9a1.502 1.502 0 012.125 0l3.939 3.939L86.879 68h-4.375a1.5 1.5 0 110-3h8a1.5 1.5 0 011.5 1.5z" fill="#F27B05"/><path d="M36 57c-8.284 0-15-6.716-15-15 0-1.94.368-3.794 1.039-5.496l2.925 1.702a11.65 11.65 0 00-.63 3.794c0 6.443 5.223 11.667 11.666 11.667a11.65 11.65 0 009.345-4.681l2.688 1.972A14.978 14.978 0 0136 57z" fill="#4B5457"/><path d="M50.743 39.222a15.079 15.079 0 01.19 4.206c-8.97-2.758-13.581-1.651-21.6 1.628 6.904-5.125 11.111-7.34 21.41-5.834z" fill="#4B5457"/><path d="M50.596 45.471a14.899 14.899 0 01-1.416 3.697c-6.498-3.538-9.385-3.87-18.18-4.112 8.914-2.152 13.451-2.645 19.596.415z" fill="#4B5457"/><path d="M22.739 34.983C25.257 30.235 30.25 27 36 27c6.531 0 12.087 4.174 14.146 10-11.355-.103-15.432 2.413-21.924 7.778 3.944-6.417 7.048-9.201 15.943-11.111A11.629 11.629 0 0036 30.333a11.666 11.666 0 00-10.369 6.314l-2.892-1.664z" fill="#F27B05"/></g><defs><clipPath id="fclip0_73_816"><path fill="#fff" d="M0 0h110v114H0z"/></clipPath></defs></svg><svg fill="none" viewBox="0 0 40 40" id="icon-pdf" xmlns="http://www.w3.org/2000/svg"><path fill-rule="evenodd" clip-rule="evenodd" d="M4 29.625H0v9.998h1.978v-3.355h2.007c.717 0 1.328-.143 1.83-.433a2.931 2.931 0 001.157-1.185 3.55 3.55 0 00.403-1.692c0-.625-.133-1.19-.395-1.693a2.94 2.94 0 00-1.15-1.192c-.5-.3-1.107-.448-1.83-.448zm1.362 3.333c.01.329-.064.655-.212.95-.133.256-.34.466-.595.602a1.984 1.984 0 01-.937.205H1.97V31.2h1.65c.545 0 .973.15 1.28.453.307.305.462.74.462 1.305zm3.043-3.333v9.998h3.65c1.002 0 1.835-.2 2.495-.593a3.625 3.625 0 001.488-1.723c.325-.75.49-1.654.49-2.71 0-1.05-.163-1.944-.49-2.687a3.565 3.565 0 00-1.473-1.7c-.66-.39-1.497-.585-2.512-.585H8.405zm1.978 1.613h1.407c.62 0 1.125.125 1.523.38.412.27.723.669.884 1.134.198.503.296 1.13.296 1.883.007.499-.05.996-.17 1.48a2.85 2.85 0 01-.49 1.055 2 2 0 01-.835.63 3.245 3.245 0 01-1.208.205h-1.407v-6.768zm9.357 4.407v3.977h-1.975v-9.997h6.37v1.633H19.74v2.792h4.015v1.595H19.74z" fill="#F27B05"/><path fill-rule="evenodd" clip-rule="evenodd" d="M35 11.25V35a5 5 0 01-5 5h-2.5v-2.5H30a2.5 2.5 0 002.5-2.5V11.25h-5a3.75 3.75 0 01-3.75-3.75v-5H10A2.5 2.5 0 007.5 5v22.5H5V5a5 5 0 015-5h13.75L35 11.25z" fill="#4B5457"/></svg><svg fill="none" viewBox="0 0 110 114" id="icon-people" xmlns="http://www.w3.org/2000/svg"><g clip-path="url(#hclip0_73_830)"><path d="M110 39.812v32.505a19.717 19.717 0 01-5.69 13.856 19.826 19.826 0 01-13.802 5.891 32.918 32.918 0 01-12.06 15.898A33.056 33.056 0 0159.397 114a33.056 33.056 0 01-19.05-6.038 32.918 32.918 0 01-12.061-15.898H6.6c-1.75 0-3.43-.693-4.667-1.927A6.573 6.573 0 010 85.481V32.824c0-1.746.695-3.42 1.933-4.655A6.609 6.609 0 016.6 26.241h34.139a19.699 19.699 0 01.64-14.593A19.776 19.776 0 0151.902 1.486a19.85 19.85 0 0114.645-.169 19.78 19.78 0 0110.755 9.917A15.433 15.433 0 0188.131 8.91a15.409 15.409 0 019.59 5.526 15.331 15.331 0 01-1.169 20.58h8.63a4.822 4.822 0 013.405 1.403A4.803 4.803 0 01110 39.812zM78.776 15.605c.75 3.558.5 7.253-.722 10.679a19.748 19.748 0 01-6.202 8.734H85.8c1.766 0 3.506-.424 5.073-1.236a10.991 10.991 0 003.93-3.43 10.954 10.954 0 001.346-10.028 10.968 10.968 0 00-2.888-4.34 11.029 11.029 0 00-14.484-.379zM45.492 26.241H59.4c1.75 0 3.43.694 4.667 1.928A6.573 6.573 0 0166 32.824v.707a15.386 15.386 0 006.62-5.995 15.326 15.326 0 00-.86-17.046 15.397 15.397 0 00-7.188-5.304 15.44 15.44 0 00-8.932-.426 15.408 15.408 0 00-7.663 4.595 15.322 15.322 0 00-2.486 16.886zM6.6 87.676h52.8c.584 0 1.143-.23 1.556-.642.412-.412.644-.97.644-1.552V32.824c0-.582-.232-1.14-.644-1.552a2.203 2.203 0 00-1.556-.642H6.6c-.583 0-1.143.23-1.556.642-.412.412-.644.97-.644 1.552v52.658c0 .582.232 1.14.644 1.552.413.411.973.642 1.556.642zM88 81.094V41.6c0-.582-.232-1.14-.644-1.551a2.203 2.203 0 00-1.556-.643H66v46.076c0 1.746-.695 3.42-1.933 4.654a6.609 6.609 0 01-4.667 1.928H33a28.55 28.55 0 0012.958 14.206 28.658 28.658 0 0019.05 2.793 28.61 28.61 0 0016.51-9.886A28.476 28.476 0 0088 81.094zm17.6-41.282a.406.406 0 00-.407-.406h-13.2c.255.704.385 1.446.385 2.194v39.494c0 2.184-.218 4.364-.649 6.506a15.415 15.415 0 009.888-4.976 15.336 15.336 0 003.983-10.306V39.811z" fill="#F27B05"/><path fill-rule="evenodd" clip-rule="evenodd" d="M28.287 92.064H6.6a6.61 6.61 0 01-4.667-1.927A6.573 6.573 0 010 85.481V32.824c0-1.746.695-3.42 1.933-4.655A6.61 6.61 0 016.6 26.241H59.4c1.75 0 3.43.694 4.667 1.928A6.574 6.574 0 0166 32.824v52.658c0 1.746-.695 3.42-1.933 4.654a6.61 6.61 0 01-4.667 1.928H28.287zM59.4 87.676H6.6a2.203 2.203 0 01-1.556-.642 2.191 2.191 0 01-.644-1.552V32.824c0-.582.232-1.14.644-1.552A2.203 2.203 0 016.6 30.63h52.8c.584 0 1.143.23 1.556.642.412.412.644.97.644 1.552v52.658c0 .582-.232 1.14-.644 1.552a2.203 2.203 0 01-1.556.642z" fill="#03A447"/><path d="M33 72c-8.284 0-15-6.716-15-15 0-1.94.368-3.794 1.039-5.496l2.925 1.702a11.65 11.65 0 00-.63 3.794c0 6.443 5.223 11.667 11.666 11.667a11.65 11.65 0 009.345-4.681l2.688 1.972A14.978 14.978 0 0133 72z" fill="#4B5457"/><path d="M47.743 54.222a15.079 15.079 0 01.19 4.206c-8.97-2.758-13.581-1.651-21.6 1.628 6.904-5.125 11.111-7.34 21.41-5.834z" fill="#4B5457"/><path d="M47.596 60.471a14.899 14.899 0 01-1.416 3.697c-6.498-3.538-9.385-3.87-18.18-4.112 8.914-2.152 13.451-2.645 19.596.415z" fill="#4B5457"/><path d="M19.739 49.983C22.257 45.235 27.25 42 33 42c6.531 0 12.087 4.174 14.146 10-11.355-.103-15.432 2.413-21.924 7.778 3.944-6.417 7.048-9.201 15.943-11.111A11.629 11.629 0 0033 45.333a11.666 11.666 0 00-10.369 6.314l-2.892-1.664z" fill="#F27B05"/></g><defs><clipPath id="hclip0_73_830"><path fill="#fff" d="M0 0h110v114H0z"/></clipPath></defs></svg><svg fill="none" viewBox="0 0 110 114" id="icon-people-2" xmlns="http://www.w3.org/2000/svg"><g clip-path="url(#iclip0_73_961)"><g fill="#F27B05"><path d="M25.205 31.24c-2.538-.001-5.026-.719-7.18-2.072a13.633 13.633 0 01-5.003-5.581 13.75 13.75 0 011.46-14.384 13.577 13.577 0 016.02-4.448 13.483 13.483 0 017.447-.567 13.54 13.54 0 016.617 3.486 13.686 13.686 0 013.784 6.483c.128.501.45.931.893 1.194a1.929 1.929 0 002.656-.69c.261-.446.336-.979.207-1.48a17.608 17.608 0 00-4.03-7.48 17.44 17.44 0 00-7.047-4.695 17.336 17.336 0 00-8.413-.81 17.385 17.385 0 00-7.803 3.264 17.545 17.545 0 00-5.366 6.575A17.676 17.676 0 0010.2 26.53a17.513 17.513 0 005.94 6.052A30.806 30.806 0 00.389 43.734a1.962 1.962 0 00.388 2.734 1.928 1.928 0 002.714-.39 26.972 26.972 0 019.564-8.072 26.773 26.773 0 0112.15-2.862c.515 0 1.008-.206 1.372-.572a1.96 1.96 0 000-2.76 1.932 1.932 0 00-1.371-.572zM84.963 31.24c2.538-.001 5.026-.719 7.18-2.072a13.634 13.634 0 005.003-5.581 13.748 13.748 0 00-1.46-14.384 13.578 13.578 0 00-6.02-4.448 13.483 13.483 0 00-7.447-.567 13.54 13.54 0 00-6.617 3.486 13.688 13.688 0 00-3.784 6.483c-.129.501-.45.931-.893 1.194a1.929 1.929 0 01-2.656-.69 1.965 1.965 0 01-.207-1.48 17.607 17.607 0 014.03-7.48 17.44 17.44 0 017.047-4.695 17.336 17.336 0 018.413-.81 17.384 17.384 0 017.803 3.264 17.55 17.55 0 015.366 6.575 17.683 17.683 0 01-.753 16.495 17.513 17.513 0 01-5.94 6.052 30.804 30.804 0 0115.752 11.152 1.959 1.959 0 01-.388 2.734 1.927 1.927 0 01-2.714-.39 26.964 26.964 0 00-9.564-8.072 26.773 26.773 0 00-12.15-2.862 1.932 1.932 0 01-1.372-.572 1.96 1.96 0 010-2.76 1.932 1.932 0 011.371-.572z"/></g><path d="M83.862 79.072c.257.447.326.98.194 1.48a1.95 1.95 0 01-.902 1.184 1.895 1.895 0 01-.969.264 1.929 1.929 0 01-1.677-.976 29.667 29.667 0 00-10.803-10.727 29.409 29.409 0 00-14.663-3.92 29.41 29.41 0 00-14.664 3.92 29.668 29.668 0 00-10.803 10.727 1.927 1.927 0 01-2.606.643 1.95 1.95 0 01-.892-1.147 1.964 1.964 0 01.144-1.448A33.17 33.17 0 0145.217 63.94a21.413 21.413 0 01-9.594-10.18 21.613 21.613 0 01-1.3-13.973A21.491 21.491 0 0141.87 27.99a21.234 21.234 0 0113.172-4.585c4.776 0 9.415 1.614 13.171 4.585a21.491 21.491 0 017.547 11.798 21.614 21.614 0 01-1.3 13.973 21.414 21.414 0 01-9.593 10.18 33.17 33.17 0 0118.995 15.13zm-28.82-16.595c3.45 0 6.824-1.03 9.694-2.961a17.545 17.545 0 006.427-7.886 17.684 17.684 0 00.993-10.152 17.61 17.61 0 00-4.776-8.997 17.412 17.412 0 00-8.934-4.808 17.337 17.337 0 00-10.082 1 17.477 17.477 0 00-7.831 6.471 17.658 17.658 0 00-2.94 9.762c0 4.66 1.837 9.13 5.11 12.424a17.389 17.389 0 0012.338 5.147z" fill="#03A447"/><path d="M55 114c-8.284 0-15-6.716-15-15 0-1.94.368-3.794 1.039-5.496l2.925 1.702a11.65 11.65 0 00-.63 3.794c0 6.443 5.223 11.667 11.666 11.667 3.823 0 7.217-1.839 9.345-4.681l2.688 1.972A14.979 14.979 0 0155 114z" fill="#4B5457"/><path d="M69.743 96.222a15.079 15.079 0 01.19 4.206c-8.97-2.758-13.581-1.651-21.6 1.628 6.904-5.125 11.111-7.34 21.41-5.834z" fill="#4B5457"/><path d="M69.596 102.471a14.901 14.901 0 01-1.416 3.697c-6.498-3.537-9.385-3.87-18.18-4.112 8.914-2.152 13.451-2.645 19.596.415z" fill="#4B5457"/><path d="M41.739 91.983C44.257 87.235 49.25 84 55 84c6.531 0 12.087 4.174 14.146 10-11.355-.103-15.432 2.413-21.924 7.778 3.944-6.417 7.048-9.201 15.943-11.111A11.629 11.629 0 0055 87.333a11.666 11.666 0 00-10.369 6.314l-2.892-1.664z" fill="#F27B05"/></g><defs><clipPath id="iclip0_73_961"><path fill="#fff" d="M0 0h110v114H0z"/></clipPath></defs></svg><svg fill="none" viewBox="0 0 110 114" id="icon-tv" xmlns="http://www.w3.org/2000/svg"><g clip-path="url(#jclip0_73_949)"><path d="M103.4 13.148H57.2V2.19c0-.58-.232-1.138-.644-1.55a2.204 2.204 0 00-3.112 0c-.412.412-.644.97-.644 1.55v10.957H6.6c-1.75 0-3.43.692-4.667 1.925A6.56 6.56 0 000 19.721V85.46a6.56 6.56 0 001.933 4.648A6.613 6.613 0 006.6 92.034h26.224l-14.74 18.352a2.183 2.183 0 00.297 3.133 2.217 2.217 0 001.651.464 2.217 2.217 0 001.484-.858l16.94-21.091h33.088l16.94 21.091a2.204 2.204 0 003.049.287 2.189 2.189 0 00.383-3.026l-14.74-18.352H103.4c1.75 0 3.429-.693 4.667-1.926A6.56 6.56 0 00110 85.46V19.722a6.56 6.56 0 00-1.933-4.649 6.615 6.615 0 00-4.667-1.925zm2.2 72.312c0 .581-.232 1.139-.644 1.55a2.207 2.207 0 01-1.556.641H6.6c-.583 0-1.143-.23-1.556-.642A2.187 2.187 0 014.4 85.46V19.722c0-.582.232-1.139.644-1.55A2.204 2.204 0 016.6 17.53h96.8c.583 0 1.143.231 1.556.642.412.411.644.968.644 1.55V85.46z" fill="#F27B05"/><path fill-rule="evenodd" clip-rule="evenodd" d="M96.4 20.148H13.6c-1.75 0-3.43.692-4.667 1.925A6.56 6.56 0 007 26.721V78.46a6.56 6.56 0 001.933 4.648 6.613 6.613 0 004.667 1.926h82.8c1.75 0 3.43-.693 4.667-1.926A6.56 6.56 0 00103 78.46V26.722a6.56 6.56 0 00-1.933-4.649 6.614 6.614 0 00-4.667-1.925zm1.556 59.861c.412-.41.644-.968.644-1.549V26.722c0-.582-.232-1.139-.644-1.55a2.204 2.204 0 00-1.556-.642H13.6c-.583 0-1.143.231-1.556.642-.412.411-.644.968-.644 1.55V78.46c0 .581.232 1.139.644 1.55.413.41.973.641 1.556.641h82.8c.584 0 1.143-.23 1.556-.642z" fill="#03A447"/><path d="M56.6 58.782V71.93c0 .58-.232 1.138-.644 1.55a2.204 2.204 0 01-3.111 0 2.187 2.187 0 01-.645-1.55V58.782c0-.581.232-1.138.645-1.55a2.204 2.204 0 013.11 0c.413.412.645.969.645 1.55zm17.6-8.765V71.93c0 .58-.232 1.138-.644 1.55a2.204 2.204 0 01-3.111 0 2.187 2.187 0 01-.645-1.55V50.017c0-.581.232-1.139.645-1.55a2.204 2.204 0 013.11 0c.413.411.645.969.645 1.55zm17.6-8.765V71.93c0 .58-.232 1.138-.644 1.55a2.204 2.204 0 01-3.111 0 2.187 2.187 0 01-.645-1.55V41.252c0-.581.232-1.139.645-1.55a2.204 2.204 0 013.11 0c.413.411.645.969.645 1.55z" fill="#03A447"/><path d="M33 61c-8.284 0-15-6.716-15-15 0-1.94.368-3.794 1.039-5.496l2.925 1.702a11.65 11.65 0 00-.63 3.794c0 6.443 5.223 11.667 11.666 11.667a11.65 11.65 0 009.345-4.681l2.688 1.972A14.978 14.978 0 0133 61z" fill="#4B5457"/><path d="M47.743 43.222a15.079 15.079 0 01.19 4.206c-8.97-2.758-13.581-1.651-21.6 1.628 6.904-5.125 11.111-7.34 21.41-5.834z" fill="#4B5457"/><path d="M47.596 49.471a14.899 14.899 0 01-1.416 3.697c-6.498-3.538-9.385-3.87-18.18-4.112 8.914-2.152 13.451-2.645 19.596.415z" fill="#4B5457"/><path d="M19.739 38.983C22.257 34.235 27.25 31 33 31c6.531 0 12.087 4.174 14.146 10-11.355-.103-15.432 2.413-21.924 7.778 3.944-6.417 7.048-9.201 15.943-11.111A11.629 11.629 0 0033 34.333a11.666 11.666 0 00-10.369 6.314l-2.892-1.664z" fill="#F27B05"/></g><defs><clipPath id="jclip0_73_949"><path fill="#fff" d="M0 0h110v114H0z"/></clipPath></defs></svg><svg fill="none" viewBox="0 0 146 38" id="logo" xmlns="http://www.w3.org/2000/svg"><g clip-path="url(#kclip0_154_50)"><g fill="#F27B05"><path d="M44.406 8l-.06.235a1.421 1.421 0 00-.228.039c-.087.021-.166.05-.235.087a.887.887 0 00-.225.164c-.058.06-.13.145-.214.254-.248.325-.567.763-.956 1.314-.387.55-.672.945-.855 1.186a8.044 8.044 0 01-.638.76 2.917 2.917 0 01-.49.415 1.334 1.334 0 01-.382.18 1.338 1.338 0 01-.352.049.856.856 0 01-.546-.177c-.15-.119-.225-.258-.225-.419 0-.064.007-.125.02-.18a.586.586 0 01.097-.184.437.437 0 01.168-.135.701.701 0 01.677.077c.13.086.275.229.436.428.115-.06.229-.148.343-.264a3.11 3.11 0 00.295-.35c-.27-.61-.529-1.185-.775-1.724a30.157 30.157 0 00-.51-1.085 1.213 1.213 0 00-.1-.168.564.564 0 00-.195-.154 1.044 1.044 0 00-.201-.074.977.977 0 00-.205-.039L39.11 8h2.576l-.06.235c-.19.007-.351.026-.483.058-.13.03-.194.068-.194.113 0 .03.006.062.02.096l.03.071c.051.125.154.357.308.696l.537 1.166a32.955 32.955 0 00.889-1.32c.12-.185.207-.33.258-.432a.615.615 0 00.077-.21c0-.06-.055-.11-.164-.148a2.16 2.16 0 00-.466-.09l.06-.235h1.908zM48.863 12.077l-.074.29c-.221.084-.398.148-.53.193a1.487 1.487 0 01-.46.065c-.265 0-.472-.063-.62-.19a.608.608 0 01-.221-.477c0-.051.002-.117.007-.196.006-.082.025-.183.057-.303l.241-.857a2.379 2.379 0 00.074-.431.352.352 0 00-.077-.242c-.052-.058-.139-.087-.262-.087a.942.942 0 00-.325.087c-.141.056-.299.161-.473.316l-.553 2.325h-1.11l.476-1.98.05-.236c.022-.096.033-.177.033-.241 0-.123-.026-.206-.08-.251-.051-.048-.146-.071-.285-.071a.813.813 0 00-.221.032 3.269 3.269 0 00-.192.061l.074-.29c.181-.07.355-.13.52-.18.166-.052.322-.077.47-.077.263 0 .46.05.59.15.132.1.219.24.261.42h.024c.219-.191.445-.34.677-.445.235-.107.484-.16.748-.16.248 0 .442.065.58.196.141.13.212.29.212.476 0 .05-.005.12-.014.21a1.422 1.422 0 01-.053.283l-.255.905a2.506 2.506 0 00-.06.258c-.018.096-.027.17-.027.219 0 .124.028.209.083.254.059.045.16.068.302.068a.94.94 0 00.228-.032c.085-.024.147-.044.185-.062zM53.983 10.535c0 .287-.053.562-.16.824a2.107 2.107 0 01-1.074 1.134 1.88 1.88 0 01-.785.16c-.214 0-.388-.02-.52-.06a1.05 1.05 0 01-.338-.168l-.205.857a1.515 1.515 0 00-.02.09.5.5 0 00-.01.077c0 .05.011.095.034.136.022.04.055.07.1.09.05.021.129.042.238.06.11.022.2.035.272.04L51.46 14H49.04l.053-.225c.059-.005.131-.013.218-.026.088-.01.154-.023.198-.036a.343.343 0 00.175-.112c.04-.05.07-.117.087-.203l.664-2.809.05-.238c.023-.097.034-.176.034-.238 0-.114-.025-.196-.074-.245-.05-.052-.146-.077-.292-.077-.067 0-.14.01-.218.032a2.289 2.289 0 00-.194.061l.074-.29c.18-.07.354-.13.52-.18.165-.052.321-.077.469-.077.123 0 .231.011.325.035a.71.71 0 01.248.106c.06.041.11.09.148.148.04.058.074.117.1.178h.027a2.4 2.4 0 01.6-.38c.195-.082.382-.123.56-.123.39 0 .682.11.876.332.197.219.295.52.295.902zm-1.492 1.268c.096-.186.169-.383.218-.589.05-.206.074-.437.074-.692 0-.106-.008-.202-.024-.29a.64.64 0 00-.084-.232.413.413 0 00-.164-.155.53.53 0 00-.255-.054.654.654 0 00-.349.106c-.114.07-.197.137-.251.2l-.416 1.768a.53.53 0 00.134.37c.09.097.218.145.386.145a.627.627 0 00.399-.155c.13-.103.24-.243.332-.421zM57.44 12.168h-.026a6.405 6.405 0 01-.225.177 1.61 1.61 0 01-.265.16 1.705 1.705 0 01-.299.117 1.141 1.141 0 01-.342.048c-.389 0-.682-.11-.878-.329-.197-.22-.296-.522-.296-.905 0-.294.055-.57.165-.827.11-.258.256-.485.44-.68a2.07 2.07 0 01.65-.457c.248-.114.51-.17.785-.17.2 0 .376.022.526.067.152.045.276.106.372.183l1.03-.203.047.052-.493 1.98c-.018.067-.037.15-.057.252-.02.099-.03.174-.03.225 0 .123.029.207.087.255.058.045.159.067.302.067a.882.882 0 00.224-.035c.09-.024.153-.043.188-.058l-.073.29c-.222.083-.4.148-.534.193a1.484 1.484 0 01-.46.064c-.23 0-.414-.043-.553-.128a.703.703 0 01-.285-.338zm.4-2.042a.839.839 0 00-.02-.168.412.412 0 00-.071-.164.371.371 0 00-.158-.126.63.63 0 00-.65.11c-.123.1-.233.236-.329.406a2.283 2.283 0 00-.221.586 2.87 2.87 0 00-.08.68c0 .105.007.202.023.292.017.09.045.167.083.229a.42.42 0 00.161.155.55.55 0 00.259.054.576.576 0 00.301-.087c.099-.06.19-.133.272-.219l.43-1.748zM64.02 9.98a.683.683 0 01-.282.587c-.185.137-.455.229-.808.274l-.004.035c.28.002.518.062.715.18a.556.556 0 01.295.503c0 .356-.169.632-.507.828-.337.193-.823.29-1.458.29-.548 0-.956-.107-1.224-.32-.267-.212-.4-.567-.4-1.066 0-.27.045-.523.135-.76.089-.238.23-.45.422-.637.19-.183.434-.327.731-.432.3-.107.653-.16 1.06-.16.425 0 .751.058.98.176.23.118.345.286.345.503zm-1.174.043c0-.153-.031-.269-.094-.348-.063-.08-.158-.12-.285-.12a.727.727 0 00-.624.335c-.156.224-.256.54-.298.95l.453-.064c.344-.051.57-.142.68-.27a.71.71 0 00.168-.483zm-.208 2.112a.928.928 0 00.094-.277c.016-.094.023-.19.023-.286a.54.54 0 00-.14-.384c-.092-.103-.244-.154-.457-.154-.136 0-.257.01-.362.032-.103.02-.199.036-.288.052a3.394 3.394 0 00-.013.287c0 .358.044.618.134.779.091.159.262.238.513.238a.545.545 0 00.308-.08.558.558 0 00.188-.207zM69.18 12.37c-.22.084-.397.149-.53.194a1.487 1.487 0 01-.459.064.972.972 0 01-.603-.18.59.59 0 01-.235-.49 1.52 1.52 0 01.06-.502l.208-.747c.054-.198.09-.35.11-.458a1.44 1.44 0 00.034-.28.155.155 0 00-.08-.142.405.405 0 00-.225-.051.504.504 0 00-.214.045.639.639 0 00-.209.177c-.073.09-.145.21-.214.357a6.38 6.38 0 00-.235.59c-.083.238-.168.462-.255.67a2.805 2.805 0 01-.288.531c-.114.161-.23.283-.349.364a.762.762 0 01-.44.12.55.55 0 01-.362-.12c-.096-.082-.144-.199-.144-.351 0-.182.05-.326.151-.431a.498.498 0 01.376-.158c.11 0 .206.025.288.077.083.05.156.104.218.164.09-.135.176-.306.258-.512.083-.208.136-.346.158-.412.067-.183.14-.368.218-.557.078-.19.18-.36.305-.512.126-.153.287-.277.483-.374.2-.097.45-.145.752-.145.297 0 .532.05.704.148.172.097.258.217.258.361 0 .084-.007.167-.02.251a2.25 2.25 0 01-.06.261l-.296 1.053c-.02.071-.039.155-.057.251-.017.095-.026.17-.026.226 0 .124.028.21.083.254.056.045.156.068.299.068a.94.94 0 00.228-.032c.085-.024.146-.044.184-.061l-.073.29zM72.53 9.556a.828.828 0 00-.271.045.723.723 0 00-.235.138.68.68 0 00-.168.242.91.91 0 00-.06.344.6.6 0 00.147.422c.099.107.253.161.463.161h.258l.105-.364c.044-.167.08-.323.107-.467.027-.144.04-.244.04-.302 0-.063-.035-.114-.104-.155a.532.532 0 00-.282-.064zm1.486.296c0 .086-.009.174-.027.264-.018.09-.033.159-.047.206l-.298 1.053c-.02.071-.04.155-.057.251a1.28 1.28 0 00-.027.226c0 .124.028.21.084.254.056.045.155.068.298.068a.94.94 0 00.228-.032c.085-.024.147-.044.185-.061l-.074.29c-.221.083-.398.147-.53.193a1.487 1.487 0 01-.46.064.972.972 0 01-.603-.18.59.59 0 01-.235-.49c0-.111.005-.2.014-.264.009-.067.025-.148.05-.245l.077-.27h-.208a.994.994 0 00-.258.025.744.744 0 00-.222.123c-.089.066-.165.14-.228.222-.062.08-.12.16-.174.242-.047.07-.105.16-.174.267a1.964 1.964 0 01-.225.29.834.834 0 01-.292.225.864.864 0 01-.335.058c-.172 0-.306-.04-.403-.122a.438.438 0 01-.14-.345c0-.182.05-.326.15-.431a.51.51 0 01.38-.158c.107 0 .207.028.301.084.096.055.176.107.238.154.063-.111.137-.226.222-.344a.929.929 0 01.332-.284v-.029c-.302-.026-.535-.116-.698-.27a.749.749 0 01-.241-.56c0-.32.166-.57.5-.751.335-.183.831-.274 1.489-.274.485 0 .84.053 1.066.158.228.103.342.234.342.393zM79.82 11.675a3.49 3.49 0 00.179-.683c.04-.251.06-.49.06-.715 0-.253-.038-.438-.114-.554-.076-.118-.198-.177-.366-.177a.635.635 0 00-.46.2c-.133.133-.246.326-.338.58a3.335 3.335 0 00-.174.72 5.54 5.54 0 00-.044.635c0 .245.037.43.11.554.077.125.202.187.376.187a.605.605 0 00.453-.206c.13-.138.236-.318.319-.541zm-2.323-.638h-.557l-.369 1.533h-1.11l.476-1.98c.014-.06.03-.14.05-.236.023-.096.034-.177.034-.241 0-.123-.027-.206-.08-.251-.052-.048-.147-.071-.286-.071a.813.813 0 00-.221.032 3.263 3.263 0 00-.191.061l.074-.29c.18-.07.354-.13.52-.18a1.58 1.58 0 01.469-.077c.275 0 .482.064.62.193a.629.629 0 01.208.48 1.913 1.913 0 01-.067.496l-.053.222h.55c.127-.427.38-.773.761-1.037.382-.264.838-.396 1.368-.396.26 0 .487.034.681.103a1.3 1.3 0 01.48.277c.13.122.226.264.288.425.063.159.094.34.094.54 0 .26-.054.518-.16.774-.108.253-.255.469-.44.647a2.185 2.185 0 01-.725.454c-.275.105-.58.158-.915.158-.459 0-.826-.121-1.104-.364-.275-.245-.412-.577-.412-.998 0-.052.001-.097.003-.136.005-.04.01-.086.014-.138zM87.738 12.628c-.239 0-.423-.044-.553-.132-.13-.09-.225-.236-.285-.438h-.024a3.463 3.463 0 01-.627.46 1.432 1.432 0 01-.674.145c-.24 0-.43-.059-.573-.177a.649.649 0 01-.238-.438h-.024c-.282.232-.51.393-.684.483a1.373 1.373 0 01-.63.132c-.258 0-.454-.065-.59-.196a.642.642 0 01-.202-.477c0-.064.003-.13.01-.2.009-.07.03-.168.064-.292l.251-.905c.023-.082.043-.165.06-.248.018-.086.027-.163.027-.23 0-.124-.029-.208-.087-.253-.056-.046-.155-.068-.298-.068a.726.726 0 00-.235.039 7.462 7.462 0 01-.161.054l.074-.29c.18-.07.353-.13.516-.18.163-.051.319-.077.466-.077.271 0 .477.064.618.193a.613.613 0 01.214.473c0 .04-.004.11-.013.213a1.4 1.4 0 01-.054.287l-.245.856c-.022.075-.04.157-.053.245a1.37 1.37 0 00-.02.187c0 .12.029.205.087.254.06.05.145.074.255.074a.507.507 0 00.238-.083c.098-.056.24-.162.426-.32l.553-2.324 1.063-.046.04.046-.47 1.964a3.28 3.28 0 00-.053.258c-.011.08-.017.138-.017.177 0 .066.012.123.034.17.022.046.051.08.087.104a.314.314 0 00.114.045c.038.006.076.01.114.01a.53.53 0 00.262-.084c.098-.056.24-.162.426-.32l.553-2.324 1.063-.046.04.046-.476 1.98a5.2 5.2 0 00-.053.245c-.02.099-.03.176-.03.232 0 .122.024.207.073.254.05.045.147.068.292.068a.94.94 0 00.228-.032c.085-.024.146-.044.184-.061l-.073.29-.171.073a.52.52 0 00-.242.178.783.783 0 00-.087.306l-.05.431a.569.569 0 01-.161.358.834.834 0 01-.316.19 1.56 1.56 0 01-.405.077c-.141.01-.289.016-.443.016l-.087-.26c.183-.003.32-.035.409-.098a.391.391 0 00.174-.231l.064-.255a.543.543 0 01.255-.328c.139-.084.238-.146.298-.187l-.006-.032a1.351 1.351 0 01-.221.02zM92.135 12.168h-.027a6.5 6.5 0 01-.225.177c-.07.053-.158.107-.265.16a1.705 1.705 0 01-.298.117 1.141 1.141 0 01-.343.048c-.389 0-.681-.11-.878-.329-.197-.22-.295-.522-.295-.905 0-.294.054-.57.164-.827.11-.258.256-.485.44-.68a2.07 2.07 0 01.65-.457c.248-.114.51-.17.785-.17.2 0 .376.022.526.067.152.045.276.106.373.183l1.03-.203.046.052-.493 1.98c-.018.067-.037.15-.057.252-.02.099-.03.174-.03.225 0 .123.029.207.087.255.058.045.159.067.302.067a.882.882 0 00.225-.035c.09-.024.152-.043.187-.058l-.073.29c-.222.083-.4.148-.534.193a1.484 1.484 0 01-.46.064c-.23 0-.414-.043-.552-.128a.703.703 0 01-.285-.338zm.399-2.042a.839.839 0 00-.02-.168.412.412 0 00-.071-.164.371.371 0 00-.158-.126.63.63 0 00-.65.11c-.123.1-.233.236-.329.406a2.283 2.283 0 00-.221.586 2.87 2.87 0 00-.08.68c0 .105.007.202.023.292.018.09.046.167.084.229a.42.42 0 00.16.155.55.55 0 00.259.054.576.576 0 00.302-.087c.098-.06.189-.133.271-.219l.43-1.748zM97.292 9.556a.828.828 0 00-.272.045.722.722 0 00-.234.138.68.68 0 00-.168.242.91.91 0 00-.06.344.6.6 0 00.147.422c.098.107.253.161.463.161h.258l.104-.364a6.3 6.3 0 00.107-.467c.027-.144.04-.244.04-.302 0-.063-.034-.114-.103-.155a.532.532 0 00-.282-.064zm1.486.296c0 .086-.01.174-.027.264-.018.09-.034.159-.047.206l-.299 1.053c-.02.071-.039.155-.057.251-.017.095-.026.17-.026.226 0 .124.028.21.083.254.056.045.156.068.299.068a.94.94 0 00.228-.032c.085-.024.146-.044.184-.061l-.073.29c-.222.083-.398.147-.53.193a1.487 1.487 0 01-.46.064.972.972 0 01-.603-.18.59.59 0 01-.235-.49c0-.111.004-.2.013-.264.01-.067.026-.148.05-.245l.078-.27h-.208a.993.993 0 00-.258.025.744.744 0 00-.222.123c-.09.066-.165.14-.228.222-.063.08-.12.16-.174.242l-.175.267a1.964 1.964 0 01-.224.29.834.834 0 01-.292.225.864.864 0 01-.336.058c-.172 0-.306-.04-.402-.122a.438.438 0 01-.14-.345c0-.182.05-.326.15-.431a.51.51 0 01.379-.158.58.58 0 01.302.084c.096.055.175.107.238.154.063-.111.136-.226.221-.344a.929.929 0 01.332-.284v-.029c-.302-.026-.534-.116-.697-.27a.749.749 0 01-.242-.56c0-.32.167-.57.5-.751.335-.183.832-.274 1.49-.274.484 0 .84.053 1.066.158.228.103.342.234.342.393zM106.587 9.813c0 .18-.052.322-.157.425a.527.527 0 01-.383.155.622.622 0 01-.318-.09 1.104 1.104 0 01-.245-.19 5.18 5.18 0 01-.164.322c-.068.124-.15.233-.249.325v.023c.253.058.427.15.524.277.096.124.171.32.224.589.023.116.053.214.091.293.04.077.078.131.114.161a.26.26 0 00.127.058.643.643 0 00.282-.022c.069-.02.134-.042.194-.068l-.073.296c-.206.086-.386.15-.54.193a2.05 2.05 0 01-.55.065c-.083 0-.162-.008-.238-.023a.588.588 0 01-.383-.277.934.934 0 01-.104-.302 5.32 5.32 0 01-.03-.19 1.92 1.92 0 00-.027-.178c-.033-.208-.08-.346-.141-.415-.06-.07-.175-.106-.345-.106h-.094l-.339 1.436h-1.11l.476-1.98c.014-.06.031-.14.051-.236.022-.096.033-.177.033-.241 0-.123-.026-.206-.08-.251-.052-.048-.147-.071-.285-.071a.815.815 0 00-.222.032 3.55 3.55 0 00-.191.061l.074-.29c.181-.07.354-.13.52-.18.165-.052.322-.077.469-.077.275 0 .482.064.621.193a.63.63 0 01.208.48 1.69 1.69 0 01-.067.496l-.091.357h.094a.7.7 0 00.352-.093.705.705 0 00.262-.258c.06-.103.131-.24.211-.409.083-.17.187-.327.312-.473a.874.874 0 01.268-.216.838.838 0 01.389-.08c.168 0 .298.043.389.131a.448.448 0 01.141.348zM111.614 10.64a1.932 1.932 0 01-.617 1.421 2.277 2.277 0 01-.748.454 2.747 2.747 0 01-.959.158c-.477 0-.861-.121-1.154-.364-.293-.245-.439-.577-.439-.998 0-.286.054-.55.164-.796.112-.245.267-.458.466-.64.197-.179.438-.32.725-.422.286-.106.595-.158.929-.158.505 0 .903.119 1.194.357.292.236.439.566.439.989zm-1.181-.363c0-.251-.044-.436-.134-.554a.444.444 0 00-.382-.177.68.68 0 00-.473.2c-.143.13-.259.324-.349.58a3.302 3.302 0 00-.168.692 5.07 5.07 0 00-.05.663c0 .26.045.449.134.567.09.116.219.174.389.174a.632.632 0 00.477-.216c.134-.144.24-.32.318-.531a3.49 3.49 0 00.178-.683c.04-.251.06-.49.06-.715zM114.742 12.518c-.047-.62-.081-1.063-.104-1.33a9.317 9.317 0 00-.174-1.079h-.034a6.377 6.377 0 01-.318 1.186 3.487 3.487 0 01-.406.782 1.643 1.643 0 01-.419.419.724.724 0 01-.379.135c-.172 0-.305-.04-.399-.122a.434.434 0 01-.145-.345.59.59 0 01.155-.431.493.493 0 01.375-.161.55.55 0 01.295.08c.088.054.163.11.225.17.21-.276.378-.613.503-1.01.128-.398.204-.775.228-1.134h-.617l.077-.264 1.691-.068a8.7 8.7 0 01.231 1.034c.063.365.108.748.138 1.15l1.422-2.132 1.063-.049.04.046-.476 1.98a4.436 4.436 0 00-.054.248c-.02.103-.03.18-.03.229 0 .124.028.21.084.254.056.045.155.068.298.068a.94.94 0 00.228-.032c.085-.024.147-.044.185-.061l-.074.29a27.97 27.97 0 01-.523.193 1.392 1.392 0 01-.45.064.959.959 0 01-.6-.18.594.594 0 01-.231-.49c0-.111.003-.196.01-.254.006-.058.023-.14.05-.248l.302-1.166-.034-.013-1.516 2.242h-.617zM123.871 12.077l-.074.29c-.222.084-.398.148-.53.193a1.488 1.488 0 01-.46.065c-.266 0-.472-.063-.62-.19a.607.607 0 01-.221-.477c0-.051.002-.117.006-.196a1.91 1.91 0 01.057-.303l.242-.857a2.467 2.467 0 00.074-.431.349.349 0 00-.078-.242c-.051-.058-.138-.087-.261-.087a.936.936 0 00-.325.087 1.68 1.68 0 00-.473.316l-.554 2.325h-1.11l.476-1.98c.014-.06.031-.14.051-.236.022-.096.033-.177.033-.241 0-.123-.027-.206-.08-.251-.052-.048-.147-.071-.285-.071a.815.815 0 00-.222.032 3.55 3.55 0 00-.191.061l.074-.29c.181-.07.354-.13.52-.18.165-.052.322-.077.469-.077.264 0 .461.05.591.15a.7.7 0 01.261.42h.024c.219-.191.445-.34.677-.445.235-.107.484-.16.748-.16.248 0 .442.065.58.196.141.13.212.29.212.476 0 .05-.005.12-.014.21a1.376 1.376 0 01-.054.283l-.254.905a2.373 2.373 0 00-.088.477c0 .124.028.209.084.254.058.045.159.068.302.068a.94.94 0 00.228-.032c.085-.024.147-.044.185-.062zM127.207 12.168h-.027a5.814 5.814 0 01-.225.177 1.57 1.57 0 01-.265.16 1.676 1.676 0 01-.298.117 1.142 1.142 0 01-.342.048c-.389 0-.682-.11-.879-.329-.197-.22-.295-.522-.295-.905 0-.294.055-.57.164-.827.11-.258.256-.485.44-.68.185-.193.402-.346.65-.457.249-.114.51-.17.785-.17.201 0 .377.022.527.067.152.045.276.106.372.183l1.03-.203.046.052-.493 1.98a5.91 5.91 0 00-.057.252c-.02.099-.03.174-.03.225 0 .123.029.207.087.255.059.045.159.067.302.067a.88.88 0 00.225-.035c.089-.024.152-.043.188-.058l-.074.29c-.221.083-.399.148-.533.193a1.485 1.485 0 01-.46.064c-.23 0-.414-.043-.553-.128a.707.707 0 01-.285-.338zm.399-2.042a.868.868 0 00-.02-.168.414.414 0 00-.071-.164.367.367 0 00-.157-.126.63.63 0 00-.651.11c-.123.1-.232.236-.328.406a2.295 2.295 0 00-.222.586c-.053.22-.08.447-.08.68 0 .105.008.202.023.292a.7.7 0 00.084.229c.04.067.094.118.161.155a.547.547 0 00.258.054.576.576 0 00.302-.087c.098-.06.189-.133.272-.219l.429-1.748zM131.747 10.728h1.083l.319-1.333 1.07-.046.04.046-.476 1.98a4.436 4.436 0 00-.054.248c-.02.103-.03.18-.03.229 0 .124.028.21.084.254.056.045.155.068.298.068.068 0 .144-.01.229-.032a1.44 1.44 0 00.184-.061l-.074.29c-.221.083-.398.147-.53.193a1.486 1.486 0 01-.459.064.973.973 0 01-.604-.18.592.592 0 01-.235-.49c0-.111.004-.195.01-.251.007-.056.024-.14.051-.251l.1-.419h-1.08l-.368 1.533h-1.111l.477-1.98.05-.236c.022-.096.034-.177.034-.241 0-.123-.027-.206-.081-.251-.051-.048-.146-.071-.285-.071a.808.808 0 00-.221.032 3.338 3.338 0 00-.192.061l.074-.29a6.71 6.71 0 01.52-.18c.166-.052.322-.077.47-.077.275 0 .481.064.62.193a.627.627 0 01.208.48 1.903 1.903 0 01-.067.496l-.054.222zM137.988 12.058h-.024a2.877 2.877 0 01-.67.457 1.736 1.736 0 01-.738.148c-.248 0-.441-.065-.577-.196a.642.642 0 01-.201-.477 2 2 0 01.01-.203 2.32 2.32 0 01.064-.29l.251-.904c.016-.06.034-.142.054-.245a1.27 1.27 0 00.033-.232c0-.118-.025-.2-.077-.248-.049-.05-.146-.074-.292-.074a.813.813 0 00-.221.032 3.282 3.282 0 00-.191.061l.074-.29c.181-.07.354-.13.52-.18.165-.051.321-.077.469-.077.266 0 .471.064.614.193a.604.604 0 01.218.473c0 .04-.005.11-.014.213a1.388 1.388 0 01-.053.287l-.245.856a1.982 1.982 0 00-.074.432c0 .1.025.181.074.241.049.058.134.087.255.087a.858.858 0 00.345-.103c.146-.07.289-.17.429-.3l.554-2.324 1.07-.046.04.046-.476 1.98a6.462 6.462 0 00-.057.248c-.02.103-.03.18-.03.229 0 .124.027.21.083.254.058.045.159.068.302.068a.94.94 0 00.228-.032c.085-.024.147-.044.185-.061l-.074.29c-.221.083-.398.147-.53.193a1.486 1.486 0 01-.459.064c-.246 0-.443-.053-.591-.158a.688.688 0 01-.278-.412zM143.176 9.556a.829.829 0 00-.272.045.729.729 0 00-.235.138.691.691 0 00-.168.242.913.913 0 00-.06.344c0 .174.049.315.148.422.098.107.252.161.462.161h.259l.104-.364c.044-.167.08-.323.107-.467.027-.144.04-.244.04-.302 0-.063-.034-.114-.104-.155a.53.53 0 00-.281-.064zm1.485.296c0 .086-.009.174-.027.264-.017.09-.033.159-.047.206l-.298 1.053c-.02.071-.039.155-.057.251-.018.095-.027.17-.027.226 0 .124.028.21.084.254.056.045.155.068.298.068.068 0 .144-.01.229-.032.085-.024.146-.044.184-.061l-.074.29c-.221.083-.398.147-.53.193a1.486 1.486 0 01-.459.064.973.973 0 01-.604-.18.592.592 0 01-.235-.49c0-.111.005-.2.014-.264.009-.067.026-.148.05-.245l.077-.27h-.208a.994.994 0 00-.258.025.745.745 0 00-.221.123 1.12 1.12 0 00-.228.222c-.063.08-.121.16-.175.242-.047.07-.105.16-.174.267a1.94 1.94 0 01-.225.29.833.833 0 01-.292.225.86.86 0 01-.335.058c-.172 0-.306-.04-.402-.122a.438.438 0 01-.141-.345c0-.182.05-.326.151-.431a.508.508 0 01.379-.158c.107 0 .208.028.301.084.097.055.176.107.239.154.062-.111.136-.226.221-.344a.932.932 0 01.332-.284v-.029c-.302-.026-.534-.116-.698-.27a.748.748 0 01-.241-.56c0-.32.166-.57.5-.751.335-.183.831-.274 1.489-.274.485 0 .84.053 1.066.158.228.103.342.234.342.393z"/></g><mask id="ka" maskUnits="userSpaceOnUse" x="36" y="19" width="110" height="13" fill="#000"><path fill="#fff" d="M36 19h110v13H36z"/><path d="M43.525 21.784l-.86 3.32c.86-.62 1.675-1.303 2.505-2.001l1.102-.93c.62-.528 1.057-1.025 1.072-1.289 0-.217-.241-.372-.664-.372h-.03c.015-.109.045-.217.075-.326h3.306c-.015.109-.03.217-.06.326-.815.046-1.45.434-2.37 1.21-1.162.962-2.34 2.017-3.517 2.979.588.962 1.162 1.893 1.72 2.87l.952 1.645c.437.76.89 1.226 1.75 1.287l-.06.295h-4.423l.076-.31c.483 0 .875-.17.875-.465 0-.249-.166-.543-.271-.76l-.227-.45-.981-1.692c-.287-.496-.62-.993-.89-1.49l-.091-.046-.982 3.755c-.045.186-.09.372-.09.527 0 .42.272.636 1.208.636-.03.094-.046.218-.076.295H38c.03-.077.045-.201.075-.294 1.208 0 1.51-.357 1.752-1.288l1.69-6.392c.136-.528.378-1.21.378-1.66 0-.481-.272-.559-1.178-.714l.06-.264h4.484l-.09.326c-1.133 0-1.42.403-1.646 1.272zM57.246 28.735l-.95-6.004h-.046a732.235 732.235 0 00-3.155 5.942c-.302.558-.483.962-.544 1.334.076.28.453.419 1.072.481l-.06.31h-3.095c0-.093 0-.201.03-.31.665-.078 1.102-.48 1.555-1.148 1.66-3.119 3.336-6.237 5.027-9.34h.498c.483 3.087.981 6.175 1.48 9.262.136.9.619 1.195 1.373 1.226a.225.225 0 00-.03.093c0 .016.015.031.015.047-.015.062-.015.108-.015.17h-4.227l.046-.31c.438-.031 1.132-.062 1.132-.776 0-.294-.06-.667-.106-.977zM67.593 27.788H63.17c.045-.372.106-.76.136-1.148h4.423c-.045.388-.106.776-.136 1.148zM75.47 22.498l-1.495 5.694h.016l5.842-6.361c.15-.202.302-.466.362-.667 0-.42-.181-.606-1.178-.668.016-.093.046-.201.091-.31h4.544l-.09.31c-1.208.047-1.54.466-1.737 1.226l-1.947 7.51c-.06.248-.136.45-.12.62 0 .434.24.651 1.101.651.015.047.045.078.06.11l-.045.185h-4.559c.03-.077.046-.201.076-.294.966-.047 1.298-.233 1.57-.73l.12-.357c.59-2.265 1.178-4.53 1.782-6.795-1.917 2.048-3.82 4.111-5.993 6.47l-.046.217c-.12.186-.226.341-.226.543 0 .434.272.651 1.162.651-.015.047-.03.094-.03.14l-.045.155H70.14c.03-.077.045-.201.06-.294 1.087 0 1.435-.295 1.646-.947l.166-.512 1.917-7.26c.06-.249.09-.435.09-.621 0-.42-.256-.668-1.086-.668l-.076-.108c.015-.062.046-.124.06-.202h4.545a1.856 1.856 0 01-.076.31c-1.54.032-1.63.823-1.917 2.002zM89.744 22.064l-.785 2.994h4.333l.784-3.01c.091-.295.182-.667.182-.853 0-.59-.483-.668-1.178-.683.03-.093.046-.217.076-.326h4.559c-.03.109-.046.233-.076.326-1.404 0-1.555.45-1.841 1.552l-1.812 6.872V29c-.09.325-.181.682-.181.884 0 .496.392.62 1.207.62l-.075.295h-4.544l.06-.294c1.36 0 1.495-.497 1.782-1.474.317-1.086.619-2.312.906-3.398h-4.333l-.875 3.336a2.921 2.921 0 00-.182.915c0 .434.257.62 1.178.62l-.076.295h-4.558l.09-.294c1.374 0 1.51-.466 1.827-1.568l1.78-6.78c.091-.356.212-.729.212-1.008 0-.48-.407-.636-1.207-.636l.09-.326h4.544c-.03.109-.045.233-.09.326-1.404 0-1.525.59-1.797 1.552zM101.039 20.248c.196-.015.423-.03.619-.062h3.532c2.612 0 3.337 1.04 3.337 2.25 0 1.38-1.087 2.28-2.174 2.684-.121.062-.528.202-.528.248.996.233 1.811.9 1.811 2.048 0 1.49-1.193 3.382-4.363 3.382h-4.996l.06-.294c.89-.047 1.389-.125 1.691-.962l.241-.807 1.706-6.485c.06-.357.227-.776.227-1.102 0-.496-.438-.59-1.193-.651l.03-.249zm1.766 5.368l-.86 3.274-.332 1.257c.332.093.679.108 1.117.108h.045c1.857 0 2.959-1.458 2.959-3.025 0-1.18-.8-1.645-1.691-1.645h-.302c-.332 0-.649.031-.936.031zm1.253-4.794l-.166.667-.921 3.491c.212.047.438.078.71.078 1.479 0 3.034-.884 3.034-2.793 0-1.195-.951-1.52-1.736-1.52-.317 0-.619.03-.921.077zM112.835 20.186h7.669c-.151.823-.332 1.63-.498 2.451h-.317c-.166-1.35-.438-1.83-1.54-1.877h-2.295c-.377 1.35-.724 2.746-1.087 4.112h1.102v.015c1.163 0 1.721-.372 2.129-1.505h.302l-.966 3.693h-.317c.03-.217.06-.45.06-.652 0-.76-.453-.993-1.434-.993h-1.011l-.77 2.855c-.121.512-.363 1.241-.363 1.582 0 .373.317.388.8.388h.438c1.797 0 2.446-.077 3.427-1.132l.151-.14a7.29 7.29 0 00.709-1.055h.317l-1.177 2.87h-8.106a.96.96 0 01.09-.294l.423-.032c.77-.062 1.087-.34 1.313-1.194l1.857-7.028c.121-.45.226-.9.226-1.21 0-.326-.317-.466-.815-.497l-.392-.062c.03-.093.06-.186.075-.295zM132.336 20.031h.302a202.174 202.174 0 01-.71 3.227h-.287c-.015-1.35-.588-2.715-2.264-2.715-1.087 0-2.31.59-3.276 1.862-.815 1.07-1.524 2.932-1.524 4.577 0 2.11 1.011 3.32 2.641 3.32 1.117 0 2.536-.59 3.548-2.11l.317.17c-.242.497-.483.947-.8 1.35A6.012 6.012 0 01126.584 31c-2.536 0-3.91-1.676-3.91-4.034 0-3.817 2.989-6.966 6.688-6.966.679 0 1.102.109 1.811.357.166.062.363.14.529.14.302 0 .468-.202.634-.466zM141.377 20.776l-2.234 8.44a1.955 1.955 0 00-.076.558c0 .559.378.73 1.208.73 0 .046.015.093.015.14a.568.568 0 00-.03.154h-4.74c.03-.077.045-.201.075-.294 1.163 0 1.57-.295 1.827-1.288l2.219-8.44-1.389.03c-1.102.078-2.038 1.01-2.476 2.157h-.317l.846-2.777H145l-.589 2.793h-.317v-.186c0-2.42-1.57-2.017-2.717-2.017z"/></mask><path d="M43.525 21.784l-.86 3.32c.86-.62 1.675-1.303 2.505-2.001l1.102-.93c.62-.528 1.057-1.025 1.072-1.289 0-.217-.241-.372-.664-.372h-.03c.015-.109.045-.217.075-.326h3.306c-.015.109-.03.217-.06.326-.815.046-1.45.434-2.37 1.21-1.162.962-2.34 2.017-3.517 2.979.588.962 1.162 1.893 1.72 2.87l.952 1.645c.437.76.89 1.226 1.75 1.287l-.06.295h-4.423l.076-.31c.483 0 .875-.17.875-.465 0-.249-.166-.543-.271-.76l-.227-.45-.981-1.692c-.287-.496-.62-.993-.89-1.49l-.091-.046-.982 3.755c-.045.186-.09.372-.09.527 0 .42.272.636 1.208.636-.03.094-.046.218-.076.295H38c.03-.077.045-.201.075-.294 1.208 0 1.51-.357 1.752-1.288l1.69-6.392c.136-.528.378-1.21.378-1.66 0-.481-.272-.559-1.178-.714l.06-.264h4.484l-.09.326c-1.133 0-1.42.403-1.646 1.272zM57.246 28.735l-.95-6.004h-.046a732.235 732.235 0 00-3.155 5.942c-.302.558-.483.962-.544 1.334.076.28.453.419 1.072.481l-.06.31h-3.095c0-.093 0-.201.03-.31.665-.078 1.102-.48 1.555-1.148 1.66-3.119 3.336-6.237 5.027-9.34h.498c.483 3.087.981 6.175 1.48 9.262.136.9.619 1.195 1.373 1.226a.225.225 0 00-.03.093c0 .016.015.031.015.047-.015.062-.015.108-.015.17h-4.227l.046-.31c.438-.031 1.132-.062 1.132-.776 0-.294-.06-.667-.106-.977zM67.593 27.788H63.17c.045-.372.106-.76.136-1.148h4.423c-.045.388-.106.776-.136 1.148zM75.47 22.498l-1.495 5.694h.016l5.842-6.361c.15-.202.302-.466.362-.667 0-.42-.181-.606-1.178-.668.016-.093.046-.201.091-.31h4.544l-.09.31c-1.208.047-1.54.466-1.737 1.226l-1.947 7.51c-.06.248-.136.45-.12.62 0 .434.24.651 1.101.651.015.047.045.078.06.11l-.045.185h-4.559c.03-.077.046-.201.076-.294.966-.047 1.298-.233 1.57-.73l.12-.357c.59-2.265 1.178-4.53 1.782-6.795-1.917 2.048-3.82 4.111-5.993 6.47l-.046.217c-.12.186-.226.341-.226.543 0 .434.272.651 1.162.651-.015.047-.03.094-.03.14l-.045.155H70.14c.03-.077.045-.201.06-.294 1.087 0 1.435-.295 1.646-.947l.166-.512 1.917-7.26c.06-.249.09-.435.09-.621 0-.42-.256-.668-1.086-.668l-.076-.108c.015-.062.046-.124.06-.202h4.545a1.856 1.856 0 01-.076.31c-1.54.032-1.63.823-1.917 2.002zM89.744 22.064l-.785 2.994h4.333l.784-3.01c.091-.295.182-.667.182-.853 0-.59-.483-.668-1.178-.683.03-.093.046-.217.076-.326h4.559c-.03.109-.046.233-.076.326-1.404 0-1.555.45-1.841 1.552l-1.812 6.872V29c-.09.325-.181.682-.181.884 0 .496.392.62 1.207.62l-.075.295h-4.544l.06-.294c1.36 0 1.495-.497 1.782-1.474.317-1.086.619-2.312.906-3.398h-4.333l-.875 3.336a2.921 2.921 0 00-.182.915c0 .434.257.62 1.178.62l-.076.295h-4.558l.09-.294c1.374 0 1.51-.466 1.827-1.568l1.78-6.78c.091-.356.212-.729.212-1.008 0-.48-.407-.636-1.207-.636l.09-.326h4.544c-.03.109-.045.233-.09.326-1.404 0-1.525.59-1.797 1.552zM101.039 20.248c.196-.015.423-.03.619-.062h3.532c2.612 0 3.337 1.04 3.337 2.25 0 1.38-1.087 2.28-2.174 2.684-.121.062-.528.202-.528.248.996.233 1.811.9 1.811 2.048 0 1.49-1.193 3.382-4.363 3.382h-4.996l.06-.294c.89-.047 1.389-.125 1.691-.962l.241-.807 1.706-6.485c.06-.357.227-.776.227-1.102 0-.496-.438-.59-1.193-.651l.03-.249zm1.766 5.368l-.86 3.274-.332 1.257c.332.093.679.108 1.117.108h.045c1.857 0 2.959-1.458 2.959-3.025 0-1.18-.8-1.645-1.691-1.645h-.302c-.332 0-.649.031-.936.031zm1.253-4.794l-.166.667-.921 3.491c.212.047.438.078.71.078 1.479 0 3.034-.884 3.034-2.793 0-1.195-.951-1.52-1.736-1.52-.317 0-.619.03-.921.077zM112.835 20.186h7.669c-.151.823-.332 1.63-.498 2.451h-.317c-.166-1.35-.438-1.83-1.54-1.877h-2.295c-.377 1.35-.724 2.746-1.087 4.112h1.102v.015c1.163 0 1.721-.372 2.129-1.505h.302l-.966 3.693h-.317c.03-.217.06-.45.06-.652 0-.76-.453-.993-1.434-.993h-1.011l-.77 2.855c-.121.512-.363 1.241-.363 1.582 0 .373.317.388.8.388h.438c1.797 0 2.446-.077 3.427-1.132l.151-.14a7.29 7.29 0 00.709-1.055h.317l-1.177 2.87h-8.106a.96.96 0 01.09-.294l.423-.032c.77-.062 1.087-.34 1.313-1.194l1.857-7.028c.121-.45.226-.9.226-1.21 0-.326-.317-.466-.815-.497l-.392-.062c.03-.093.06-.186.075-.295zM132.336 20.031h.302a202.174 202.174 0 01-.71 3.227h-.287c-.015-1.35-.588-2.715-2.264-2.715-1.087 0-2.31.59-3.276 1.862-.815 1.07-1.524 2.932-1.524 4.577 0 2.11 1.011 3.32 2.641 3.32 1.117 0 2.536-.59 3.548-2.11l.317.17c-.242.497-.483.947-.8 1.35A6.012 6.012 0 01126.584 31c-2.536 0-3.91-1.676-3.91-4.034 0-3.817 2.989-6.966 6.688-6.966.679 0 1.102.109 1.811.357.166.062.363.14.529.14.302 0 .468-.202.634-.466zM141.377 20.776l-2.234 8.44a1.955 1.955 0 00-.076.558c0 .559.378.73 1.208.73 0 .046.015.093.015.14a.568.568 0 00-.03.154h-4.74c.03-.077.045-.201.075-.294 1.163 0 1.57-.295 1.827-1.288l2.219-8.44-1.389.03c-1.102.078-2.038 1.01-2.476 2.157h-.317l.846-2.777H145l-.589 2.793h-.317v-.186c0-2.42-1.57-2.017-2.717-2.017z" fill="#03A447"/><path d="M43.525 21.784l-.86 3.32c.86-.62 1.675-1.303 2.505-2.001l1.102-.93c.62-.528 1.057-1.025 1.072-1.289 0-.217-.241-.372-.664-.372h-.03c.015-.109.045-.217.075-.326h3.306c-.015.109-.03.217-.06.326-.815.046-1.45.434-2.37 1.21-1.162.962-2.34 2.017-3.517 2.979.588.962 1.162 1.893 1.72 2.87l.952 1.645c.437.76.89 1.226 1.75 1.287l-.06.295h-4.423l.076-.31c.483 0 .875-.17.875-.465 0-.249-.166-.543-.271-.76l-.227-.45-.981-1.692c-.287-.496-.62-.993-.89-1.49l-.091-.046-.982 3.755c-.045.186-.09.372-.09.527 0 .42.272.636 1.208.636-.03.094-.046.218-.076.295H38c.03-.077.045-.201.075-.294 1.208 0 1.51-.357 1.752-1.288l1.69-6.392c.136-.528.378-1.21.378-1.66 0-.481-.272-.559-1.178-.714l.06-.264h4.484l-.09.326c-1.133 0-1.42.403-1.646 1.272zM57.246 28.735l-.95-6.004h-.046a732.235 732.235 0 00-3.155 5.942c-.302.558-.483.962-.544 1.334.076.28.453.419 1.072.481l-.06.31h-3.095c0-.093 0-.201.03-.31.665-.078 1.102-.48 1.555-1.148 1.66-3.119 3.336-6.237 5.027-9.34h.498c.483 3.087.981 6.175 1.48 9.262.136.9.619 1.195 1.373 1.226a.225.225 0 00-.03.093c0 .016.015.031.015.047-.015.062-.015.108-.015.17h-4.227l.046-.31c.438-.031 1.132-.062 1.132-.776 0-.294-.06-.667-.106-.977zM67.593 27.788H63.17c.045-.372.106-.76.136-1.148h4.423c-.045.388-.106.776-.136 1.148zM75.47 22.498l-1.495 5.694h.016l5.842-6.361c.15-.202.302-.466.362-.667 0-.42-.181-.606-1.178-.668.016-.093.046-.201.091-.31h4.544l-.09.31c-1.208.047-1.54.466-1.737 1.226l-1.947 7.51c-.06.248-.136.45-.12.62 0 .434.24.651 1.101.651.015.047.045.078.06.11l-.045.185h-4.559c.03-.077.046-.201.076-.294.966-.047 1.298-.233 1.57-.73l.12-.357c.59-2.265 1.178-4.53 1.782-6.795-1.917 2.048-3.82 4.111-5.993 6.47l-.046.217c-.12.186-.226.341-.226.543 0 .434.272.651 1.162.651-.015.047-.03.094-.03.14l-.045.155H70.14c.03-.077.045-.201.06-.294 1.087 0 1.435-.295 1.646-.947l.166-.512 1.917-7.26c.06-.249.09-.435.09-.621 0-.42-.256-.668-1.086-.668l-.076-.108c.015-.062.046-.124.06-.202h4.545a1.856 1.856 0 01-.076.31c-1.54.032-1.63.823-1.917 2.002zM89.744 22.064l-.785 2.994h4.333l.784-3.01c.091-.295.182-.667.182-.853 0-.59-.483-.668-1.178-.683.03-.093.046-.217.076-.326h4.559c-.03.109-.046.233-.076.326-1.404 0-1.555.45-1.841 1.552l-1.812 6.872V29c-.09.325-.181.682-.181.884 0 .496.392.62 1.207.62l-.075.295h-4.544l.06-.294c1.36 0 1.495-.497 1.782-1.474.317-1.086.619-2.312.906-3.398h-4.333l-.875 3.336a2.921 2.921 0 00-.182.915c0 .434.257.62 1.178.62l-.076.295h-4.558l.09-.294c1.374 0 1.51-.466 1.827-1.568l1.78-6.78c.091-.356.212-.729.212-1.008 0-.48-.407-.636-1.207-.636l.09-.326h4.544c-.03.109-.045.233-.09.326-1.404 0-1.525.59-1.797 1.552zM101.039 20.248c.196-.015.423-.03.619-.062h3.532c2.612 0 3.337 1.04 3.337 2.25 0 1.38-1.087 2.28-2.174 2.684-.121.062-.528.202-.528.248.996.233 1.811.9 1.811 2.048 0 1.49-1.193 3.382-4.363 3.382h-4.996l.06-.294c.89-.047 1.389-.125 1.691-.962l.241-.807 1.706-6.485c.06-.357.227-.776.227-1.102 0-.496-.438-.59-1.193-.651l.03-.249zm1.766 5.368l-.86 3.274-.332 1.257c.332.093.679.108 1.117.108h.045c1.857 0 2.959-1.458 2.959-3.025 0-1.18-.8-1.645-1.691-1.645h-.302c-.332 0-.649.031-.936.031zm1.253-4.794l-.166.667-.921 3.491c.212.047.438.078.71.078 1.479 0 3.034-.884 3.034-2.793 0-1.195-.951-1.52-1.736-1.52-.317 0-.619.03-.921.077zM112.835 20.186h7.669c-.151.823-.332 1.63-.498 2.451h-.317c-.166-1.35-.438-1.83-1.54-1.877h-2.295c-.377 1.35-.724 2.746-1.087 4.112h1.102v.015c1.163 0 1.721-.372 2.129-1.505h.302l-.966 3.693h-.317c.03-.217.06-.45.06-.652 0-.76-.453-.993-1.434-.993h-1.011l-.77 2.855c-.121.512-.363 1.241-.363 1.582 0 .373.317.388.8.388h.438c1.797 0 2.446-.077 3.427-1.132l.151-.14a7.29 7.29 0 00.709-1.055h.317l-1.177 2.87h-8.106a.96.96 0 01.09-.294l.423-.032c.77-.062 1.087-.34 1.313-1.194l1.857-7.028c.121-.45.226-.9.226-1.21 0-.326-.317-.466-.815-.497l-.392-.062c.03-.093.06-.186.075-.295zM132.336 20.031h.302a202.174 202.174 0 01-.71 3.227h-.287c-.015-1.35-.588-2.715-2.264-2.715-1.087 0-2.31.59-3.276 1.862-.815 1.07-1.524 2.932-1.524 4.577 0 2.11 1.011 3.32 2.641 3.32 1.117 0 2.536-.59 3.548-2.11l.317.17c-.242.497-.483.947-.8 1.35A6.012 6.012 0 01126.584 31c-2.536 0-3.91-1.676-3.91-4.034 0-3.817 2.989-6.966 6.688-6.966.679 0 1.102.109 1.811.357.166.062.363.14.529.14.302 0 .468-.202.634-.466zM141.377 20.776l-2.234 8.44a1.955 1.955 0 00-.076.558c0 .559.378.73 1.208.73 0 .046.015.093.015.14a.568.568 0 00-.03.154h-4.74c.03-.077.045-.201.075-.294 1.163 0 1.57-.295 1.827-1.288l2.219-8.44-1.389.03c-1.102.078-2.038 1.01-2.476 2.157h-.317l.846-2.777H145l-.589 2.793h-.317v-.186c0-2.42-1.57-2.017-2.717-2.017z" stroke="#03A447" stroke-width="1.4" mask="url(#ka)"/><g><path d="M19 38C8.507 38 0 29.493 0 19c0-2.458.467-4.806 1.316-6.962l3.705 2.156A14.758 14.758 0 004.222 19c0 8.162 6.616 14.778 14.778 14.778 4.843 0 9.142-2.33 11.837-5.93l3.404 2.499C30.777 34.992 25.24 38 19 38z" fill="#4B5457"/><path d="M37.675 15.482a19.113 19.113 0 01.24 5.327c-11.362-3.494-17.203-2.092-27.36 2.061 8.745-6.49 14.074-9.296 27.12-7.389z" fill="#4B5457"/><path d="M37.489 23.397c-.392 1.655-1.001 3.226-1.795 4.683-8.23-4.481-11.887-4.903-23.027-5.21 11.291-2.725 17.038-3.35 24.822.527z" fill="#4B5457"/><path d="M2.203 10.112C5.392 4.097 11.717 0 19 0c8.273 0 15.31 5.287 17.919 12.667-14.384-.13-19.548 3.056-27.77 9.851 4.994-8.127 8.926-11.654 20.193-14.074A14.73 14.73 0 0019 4.222c-5.717 0-10.676 3.247-13.134 7.997l-3.663-2.107z" fill="#F27B05"/></g></g><defs><clipPath id="kclip0_154_50"><path fill="#fff" d="M0 0h146v38H0z"/></clipPath></defs></svg><svg fill="none" viewBox="0 0 75 35" id="logo-dt" xmlns="http://www.w3.org/2000/svg"><g clip-path="url(#lclip0_25_588)"><path fill-rule="evenodd" clip-rule="evenodd" d="M8.713 17.087v-4.05s-.568.023-.568-2.314c0-.365.52-.746.866-.97.895-.578.759-2.212 1.123-2.212.971 0 .852-.902.852-1.446 0-.625-.853 0-.853 0V2.624H3.316v3.47s-.852-.421-.852.29c0 .42-.165.868.568 1.157.568.226.94 1.328 1.2 1.967.258.64 1.016.657 1.016 1.22 0 2.086-.511 2.315-.511 2.315v4.05l3.977-.006z" fill="#fff"/><path fill-rule="evenodd" clip-rule="evenodd" d="M7.293 17.087h1.42v-4.05s-.568.023-.568-2.314c0-.365.52-.746.866-.97.895-.578.759-2.212 1.123-2.212.971 0 .852-.902.852-1.446 0-.625-.853 0-.853 0l.035-.229-.034-3.242H7.86s1.216 1.71 1.136 3.76c-.06 1.519-1.179 3.425-1.988 4.05-.194.147.284 6.653.284 6.653z" fill="#F1EEE9"/><path fill-rule="evenodd" clip-rule="evenodd" d="M10.469 5.91S12.128.599 6.44.599c-1.224 0-2.233.385-2.704.9-.301.326-.213.708-.37 1.073-.284.65-.625.766-.602 1.368.037.673.116 1.344.236 2.007 0 .044.25.206.315.168.066-.038 0-.266.029-.324.088-.738 0-2.878 1.392-2.878.608 0 1.34.654 1.988.578.569-.069 1.165-.578 1.705-.578 1.19 0 1.469 2.106 1.704 2.892a.9.9 0 010 .229v.06c0 .021.256-.155.336-.184z" fill="#39322B"/><path fill-rule="evenodd" clip-rule="evenodd" d="M4.733 5.435a2.994 2.994 0 01-.852-.234.85.85 0 01.852-.234c.531.124 1.244.289 1.136.468-.09.136-.733.064-1.136 0zM8.716 5.435c.294-.035.58-.114.852-.234a.85.85 0 00-.852-.234c-.531.124-1.244.289-1.136.468.09.136.733.064 1.136 0z" fill="#39322B"/><path fill-rule="evenodd" clip-rule="evenodd" d="M6.716 8.12c.568 0 .568-.171.568-.171v.315a.146.146 0 01-.042.103.14.14 0 01-.1.042h-.844a.14.14 0 01-.1-.042.146.146 0 01-.042-.103v-.31s-.011.166.56.166z" fill="#F1EEE9"/><path fill-rule="evenodd" clip-rule="evenodd" d="M8.713 15.35v1.736H4.736v-1.735s1.02 1.446 1.988 1.446c1.017 0 1.99-1.446 1.99-1.446z" fill="#BED6CE"/><path fill-rule="evenodd" clip-rule="evenodd" d="M4.736 13.037c-.453.24-.93.435-1.42.578-.745.217-1.628.29-2.273.868-.853.755-.853 2.604-.853 2.604h4.546v-4.05zM8.713 13.037c.453.24.93.435 1.42.578.745.217 1.628.29 2.273.868.852.755.852 2.604.852 2.604H8.713v-4.05z" fill="#009F90"/><path fill-rule="evenodd" clip-rule="evenodd" d="M4.736 13.037s-.9.18-1.137.578c-.184.313.285.868.285.868v.868s-.569.306-.569.578c0 .272.42.533.569.755a.351.351 0 010 .402h.852v-4.05zM8.713 13.037s.9.18 1.136.578c.185.313-.284.868-.284.868v.868s.569.306.569.578c0 .272-.427.533-.56.755a.351.351 0 000 .402h-.852l-.009-4.05z" fill="#006C71"/><path d="M18.239 14.772c.863 0 1.562-1.424 1.562-3.181 0-1.758-.7-3.182-1.562-3.182-.863 0-1.563 1.424-1.563 3.181 0 1.758.7 3.182 1.563 3.182zM23.068 14.772c.863 0 1.563-1.424 1.563-3.181 0-1.758-.7-3.182-1.563-3.182s-1.562 1.424-1.562 3.181c0 1.758.7 3.182 1.562 3.182z" fill="#39322B"/><path fill-rule="evenodd" clip-rule="evenodd" d="M23.494 4.648l-5.681 1.157s-.285.903 0 2.893c.062.42.528.847.852 1.157.324.31.568.2.568 2.025s-1.62 1.553-3.125 2.314c-1.42.717-1.42 2.892-1.42 2.892h12.215s-.181-2.354-1.136-2.892c-1.253-.709-3.693-.217-3.693-2.314 0-1.117-.023-1.348.568-2.025.196-.226.793-.579.852-.868a11.851 11.851 0 000-4.339z" fill="#fff"/><path fill-rule="evenodd" clip-rule="evenodd" d="M20.938 17.086h5.965s-.181-2.354-1.136-2.892c-1.253-.709-3.693-.217-3.693-2.314 0-1.117-.023-1.348.568-2.025.196-.226.793-.579.852-.868.2-1.14.611-2.974.381-4.102-.063-.306-.568.061-.665-.237 0 0 .341 1.507-.398 3.538C22.43 9.239 21 10.066 21 11.023c0 3.405-.063 6.063-.063 6.063z" fill="#F1EEE9"/><path fill-rule="evenodd" clip-rule="evenodd" d="M24.347 13.905s1.704-1.823 1.704-3.76c0-2.115-.949-2.448-.852-3.761.258-3.544-1.102-5.496-4.546-5.496-3.693 0-4.954 2.505-4.545 5.785.122.975-.852 1.42-.852 2.893 0 2.366 1.704 4.338 1.704 4.338s.568-.335.63-.838c.063-.504-.425-1.198-.266-1.88.204-.868.684-1.589.773-2.488.133-1.348-.475-2.603-.285-2.603.725 0 2.606.543 3.694 0 1.088-.544 1.653-1.612 2.011-1.062.233.37-.457 2.172-.006 4.42.15.766.483 1.446.529 2.328.031.634-.262.868-.262 1.261 0 .912.569.863.569.863z" fill="#009F90"/><path fill-rule="evenodd" clip-rule="evenodd" d="M21.79 9.077c-.372-.148-.745-.38-1.137-.38s-.761.232-1.136.38c0 0 .705.778 1.136.778.432 0 1.137-.778 1.137-.778z" fill="#39322B"/><path fill-rule="evenodd" clip-rule="evenodd" d="M18.949 14.194l-1.42 2.892h6.818l-1.705-2.892h-3.693z" fill="#006C71"/><path fill-rule="evenodd" clip-rule="evenodd" d="M18.565 13.28l-.568.257s1.435 1.235 2.781 1.235c1.347 0 2.748-1.191 2.748-1.191l-.637-.243s-1.193.578-2.122.578c-.929 0-2.202-.636-2.202-.636z" fill="#009F90"/><path fill-rule="evenodd" clip-rule="evenodd" d="M37.406 17.086s.852-1.706.852-2.892c0-.5-.852-1.157-.852-1.157s-.568.023-.568-2.314c0-.365.52-.747.867-.97.894-.578.758-2.212 1.122-2.212.971 0 .852-.903.852-1.446 0-.625-.852 0-.852 0V2.624h-6.819v3.47s-.852-.422-.852.29c0 .42-.165.868.568 1.157.569.226.94 1.328 1.2 1.967.258.64 1.016.656 1.016 1.22 0 2.086-.511 2.315-.511 2.315s-1.136.676-1.136.867c0 .94 1.136 3.182 1.136 3.182l3.977-.006z" fill="#fff"/><path fill-rule="evenodd" clip-rule="evenodd" d="M35.418 17.086h1.988s.852-2.065.852-3.181c0-.348-.852-.868-.852-.868s-.568.023-.568-2.314c0-.365.52-.747.867-.97.894-.578.758-2.212 1.122-2.212.971 0 .852-.903.852-1.446 0-.625-.852 0-.852 0V2.624h-2.273c.352 1.32.543 2.68.568 4.05 0 2.602-.61 3.135-1.42 3.76-.21.45-.308.947-.284 1.446v5.206z" fill="#F1EEE9"/><path fill-rule="evenodd" clip-rule="evenodd" d="M32.034 5.774c-.028.072.029.248-.028.289-.057.04-.245-.072-.284-.084a18.121 18.121 0 01-.25-2.071c-.026-.599.32-.717.599-1.368.156-.365.068-.744.37-1.073.47-.515 1.48-1.478 2.704-1.478 2.406 0 3.488 1.087 3.937 2.342.017.075.059.141.117.189a.326.326 0 00.207.072c.321.02.852-.177.852 0 0 .402-.926.471-.926.885 0 .29.642-.133.642-.017 0 .289-.642.613-.67.867-.028.255.168.521.102.868-.08.2-.175.393-.284.579 0 0-.199.289-.284.289-.04 0 0-.229 0-.29 0-1.483-.69-.957-1.136-1.156a5.029 5.029 0 01-1.137-.96c-.377-.423-.588-.822-1.29-.822-.474 0-1.05.22-1.568.306-.366.061-.667-.055-.957.2-.29.255-.69 2.216-.716 2.433z" fill="#009F90"/><path fill-rule="evenodd" clip-rule="evenodd" d="M38.543 7.83c-.21.05-.405.148-.569.29-.235.179-.51.509-.852.578-.545.11-.568-.29-1.846-.29-1.279 0-1.302.397-1.847.29-.321-.066-.622-.41-.852-.578a1.335 1.335 0 00-.569-.29.55.55 0 00-.284.579c.333 1.128 1.682 3.47 3.54 3.47s3.227-2.348 3.563-3.47a.556.556 0 00-.284-.579zm-3.267 1.157c.852 0 1.562 0 1.562.29a.908.908 0 01-.286.361.886.886 0 01-.424.17c-.245.03-.42-.248-.852-.242-.432.006-.611.272-.853.24a.863.863 0 01-.422-.168.886.886 0 01-.282-.361c-.006-.284.704-.29 1.557-.29zM33.426 5.724c-.622-.1-1.136-.24-1.136-.234a1.68 1.68 0 011.136-.234c.531.124 1.244.29 1.136.468-.09.136-.732.064-1.136 0zM37.41 5.724c.621-.1 1.136-.24 1.136-.234a1.68 1.68 0 00-1.137-.234c-.531.124-1.244.29-1.136.468.09.136.733.064 1.136 0z" fill="#39322B"/><path fill-rule="evenodd" clip-rule="evenodd" d="M37.974 13.326c.27.135.557.233.853.29.744.216 1.628.289 2.272.867.853.755.853 2.604.853 2.604H28.884s0-1.849.852-2.604c.636-.578 1.52-.636 2.272-.868.296-.056.583-.154.853-.289 0 0 .568 3.182 2.457 3.182 2.077 0 2.656-3.182 2.656-3.182z" fill="#006C71"/><path fill-rule="evenodd" clip-rule="evenodd" d="M47.358 9.566l-1.705 4.628 5.114-.579.284-1.157 1.42-2.603.285-1.446-5.398 1.157z" fill="#39322B"/><path fill-rule="evenodd" clip-rule="evenodd" d="M52.188 4.648s-.503-1.634-1.21-1.49c-1.668.34-4.472 2.647-4.472 2.647s-.284.903 0 2.893c.062.42.528.848.852 1.157.324.31.568.2.568 2.025s-1.62 1.553-3.125 2.314c-1.42.717-1.42 2.892-1.42 2.892h12.216s-.182-2.354-1.137-2.892c-1.253-.709-3.693-.217-3.693-2.314 0-1.117-.023-1.348.568-2.025.196-.226.793-.579.852-.868a11.851 11.851 0 000-4.339z" fill="#fff"/><path fill-rule="evenodd" clip-rule="evenodd" d="M53.04 8.12l-.284-3.472s-.64-1.183-1.194-1.625c-.426-.342-.8 0-.795.18.026.63.892 3.785.455 4.983-.384 1.053-1.526 1.88-1.526 2.838 0 3.404-.065 6.074-.065 6.074h5.966s-.182-2.355-1.137-2.893c-1.253-.708-3.693-.217-3.693-2.314-.061-.446-.025-.9.108-1.33.106-.26.263-.497.46-.694.256-.26.796-.524 1.051-.784.313-.33.341-.645.654-.964z" fill="#F1EEE9"/><path fill-rule="evenodd" clip-rule="evenodd" d="M50.483 9.077c-.372-.148-.759-.38-1.136-.38-.378 0-.762.232-1.137.38 0 0 .705.778 1.137.778.431 0 1.136-.778 1.136-.778zM51.273 5.834c.207-.041.419-.06.63-.055a.85.85 0 00-.852-.234c-.531.124-.969.578-.852.758.1.13.702-.428 1.074-.469z" fill="#39322B"/><path fill-rule="evenodd" clip-rule="evenodd" d="M51.051 13.037a11.038 11.038 0 002.074-4.073c.926-3.43.73-8.076-4.063-8.076-7.144 0-3.409 13.017-3.409 13.017a.748.748 0 00.642-.46c.259-.527.313-1.328.725-2.236a26.932 26.932 0 012.727-4.49c.838-1.14 1.364-2.65 1.588-2.65.483 0 .989 1.314.989 3.761 0 1.658-.926 3.33-1.384 4.319a.764.764 0 00.111.888z" fill="#ABAAA5"/><path fill-rule="evenodd" clip-rule="evenodd" d="M47.926 12.748c.455.174.935.272 1.42.289a4.475 4.475 0 001.421-.29l.284.29a5.178 5.178 0 01-3.409 0l.284-.29z" fill="#39322B"/><path fill-rule="evenodd" clip-rule="evenodd" d="M49.63 17.086s-.283-1.446-2.119-1.446c-1.835 0-2.142 1.446-2.142 1.446h4.262z" fill="#006C71"/><path fill-rule="evenodd" clip-rule="evenodd" d="M53.608 17.086s-.284-1.446-2.12-1.446c-1.835 0-2.141 1.446-2.141 1.446h4.261z" fill="#006C71"/><path fill-rule="evenodd" clip-rule="evenodd" d="M67.236 7.541c-.364 0-.228 1.634-1.122 2.213-.347.223-.867.604-.867.969 0 2.337.568 2.314.568 2.314v4.05h-8.522s0-1.849.852-2.604c.636-.578 1.52-.636 2.273-.868a7.538 7.538 0 001.42-.578s.511-.223.511-2.314c0-.564-.772-.613-1.017-1.22-.244-.608-.639-1.736-1.199-1.968-.732-.289-.568-.737-.568-1.157 0-.711.853-.289.853-.289V2.618h6.818v3.471s.852-.625.852 0c0 .55.12 1.452-.852 1.452z" fill="#fff"/><path fill-rule="evenodd" clip-rule="evenodd" d="M65.815 17.087h-1.704s-.193-6.506 0-6.653c.81-.625 1.929-2.531 1.988-4.05.08-2.05-1.136-3.76-1.136-3.76h2.273v3.47s.852-.624.852 0c0 .545.12 1.447-.852 1.447-.364 0-.228 1.634-1.122 2.213-.347.223-.867.604-.867.969 0 2.337.568 2.314.568 2.314.454.24.93.435 1.42.579.745.216 1.629.289 2.273.867.853.755.853 2.604.853 2.604h-4.546z" fill="#F1EEE9"/><path fill-rule="evenodd" clip-rule="evenodd" d="M67.236 5.805c0 .16-.063.31.093.31.177-.07.339-.175.475-.31a3.42 3.42 0 00.284-1.446c-.028-.243.284-.113.284-.289 0-.845-.207-.078-.284-.29-.11-.303-.188-.867-.284-1.156-.48-1.406-1.136-1.097-1.42-1.447-.12-.156-.106-.578-.569-.578-.139 0 0 .578 0 .578S64.68.18 61.838.888c-1.517.376-2.026 1.417-2.193 2.14-.057.244-.364-.138-.364.753 0 .1.284-.29.284-.29a8.2 8.2 0 000 1.447c.034.306.131.602.284.867.066.134.177.162.313.215.065.023.213.124.256.075.042-.05-.023-.229 0-.29 0 0 .119.044.625-.185.446-.202.687-.393 1.08-.393.184 0 .917-.315.59-.078-.25.182-.741.35-.59.367.414.047 1.303-.18 1.948-.483.403-.188.54-.408.94-.61.228-.116.446.052.654-.075.531-.327.92-.868 1.003-.868.207 0 .06.437.144.934.097.477.239.943.424 1.391z" fill="#39322B"/><path fill-rule="evenodd" clip-rule="evenodd" d="M61.835 5.724a2.995 2.995 0 01-.852-.234.85.85 0 01.852-.234c.532.124 1.245.29 1.137.468-.091.136-.733.064-1.137 0zM65.818 5.724c.294-.035.581-.114.852-.234a.849.849 0 00-.852-.234c-.531.124-1.244.29-1.136.468.09.136.733.064 1.136 0z" fill="#39322B"/><path fill-rule="evenodd" clip-rule="evenodd" d="M63.818 8.698c.568 0 .568-.168.568-.168v.313a.146.146 0 01-.041.102.14.14 0 01-.1.042h-.853a.14.14 0 01-.1-.042.146.146 0 01-.042-.102V8.53s-.003.168.568.168z" fill="#F1EEE9"/><path fill-rule="evenodd" clip-rule="evenodd" d="M62.122 12.459l1.42 1.157h.569l1.42-1.157.852.867-.852 1.736-1.136-1.157h-1.136l-1.137 1.157-.852-1.736.852-.867z" fill="#009F90"/><path fill-rule="evenodd" clip-rule="evenodd" d="M63.258 13.905l.285-.29h.568l.284.29v.289l-.284.29.568 2.603h-1.705l.569-2.604-.285-.289v-.29z" fill="#006C71"/><path d="M74.872 33.892H.193v.914h74.68v-.914z" fill="#009F90"/><path d="M7.06 26.24c0 1.363-.388 2.407-1.166 3.132-.774.725-1.894 1.087-3.36 1.087H.19v-8.28h2.6c1.352 0 2.401.356 3.149 1.07.748.714 1.121 1.71 1.121 2.99zm-1.823.045c0-1.779-.786-2.668-2.357-2.668h-.934v5.392h.753c1.692 0 2.538-.908 2.538-2.724zm3.33-3.795c0-.563.313-.844.94-.844s.94.281.94.844c0 .268-.079.478-.237.629-.155.147-.39.22-.703.22-.627 0-.94-.282-.94-.849zm1.801 7.97H8.641v-6.333h1.727v6.332zm7.33-6.333v.878l-.992.255c.182.283.272.6.272.951 0 .68-.238 1.21-.713 1.592-.473.378-1.13.566-1.972.566l-.311-.017-.255-.028c-.177.136-.266.287-.266.453 0 .25.317.374.951.374h1.077c.694 0 1.223.15 1.585.448.367.298.55.736.55 1.314 0 .74-.31 1.314-.929 1.722-.616.407-1.501.611-2.656.611-.884 0-1.56-.155-2.028-.464-.465-.306-.697-.737-.697-1.292 0-.381.12-.7.357-.957.238-.257.587-.44 1.048-.55a1.165 1.165 0 01-.465-.367.893.893 0 01-.198-.55c0-.242.07-.442.21-.6.14-.163.341-.321.606-.476a1.715 1.715 0 01-.793-.691c-.193-.317-.29-.691-.29-1.122 0-.69.226-1.225.675-1.602.45-.378 1.091-.567 1.926-.567.177 0 .387.017.628.051.246.03.403.053.47.068h2.21zm-4.889 7.227c0 .238.114.425.34.561.23.136.552.204.963.204.62 0 1.105-.085 1.456-.255.351-.17.527-.402.527-.697 0-.237-.104-.402-.312-.492-.208-.09-.529-.136-.963-.136h-.895c-.317 0-.583.073-.798.22a.699.699 0 00-.318.595zm.63-5.154c0 .344.077.616.231.816.159.2.399.3.72.3.324 0 .562-.1.713-.3.151-.2.227-.472.227-.816 0-.763-.313-1.144-.94-1.144-.635 0-.952.381-.952 1.144zm5.233-3.71c0-.563.313-.844.94-.844s.94.281.94.844c0 .268-.08.478-.238.629-.154.147-.389.22-.702.22-.627 0-.94-.282-.94-.849zm1.8 7.97h-1.727v-6.333h1.728v6.332zm4.487-1.264c.302 0 .665-.066 1.087-.198v1.286c-.43.193-.959.289-1.586.289-.69 0-1.195-.174-1.512-.521-.313-.351-.47-.876-.47-1.575v-3.053h-.827v-.73l.952-.578.498-1.337h1.105v1.348h1.772v1.297h-1.773v3.053c0 .245.069.427.205.544.14.117.322.175.549.175zm6.395 1.263l-.335-.86h-.045c-.29.366-.59.62-.9.764-.306.14-.707.21-1.201.21-.608 0-1.088-.174-1.439-.521-.347-.348-.521-.842-.521-1.484 0-.673.234-1.167.702-1.484.472-.321 1.182-.499 2.13-.533l1.099-.034v-.277c0-.642-.329-.963-.986-.963-.506 0-1.1.153-1.784.459l-.572-1.167c.729-.381 1.537-.572 2.424-.572.85 0 1.501.185 1.954.555.454.37.68.933.68 1.688v4.22h-1.206zm-.51-2.933l-.669.022c-.502.015-.876.106-1.121.272-.245.166-.368.42-.368.759 0 .487.28.73.838.73.4 0 .72-.114.957-.345.242-.23.363-.536.363-.917v-.521zm5.228 2.933h-1.728v-8.813h1.728v8.813zm1.574-.81c0-.317.085-.556.255-.719.17-.162.417-.243.742-.243.314 0 .555.083.725.249.174.166.26.404.26.713 0 .299-.086.535-.26.709-.174.17-.415.254-.725.254-.317 0-.562-.083-.736-.249-.174-.17-.26-.408-.26-.713zm6.882.81h-1.756v-6.82h-2.248v-1.46h6.253v1.46h-2.249v6.82zm4.764-3.177c0 .627.102 1.1.305 1.422.208.32.544.481 1.009.481.46 0 .79-.159.991-.476.204-.32.306-.796.306-1.427 0-.627-.102-1.097-.306-1.41-.204-.314-.538-.47-1.003-.47-.46 0-.793.156-.997.47-.203.31-.305.78-.305 1.41zm4.378 0c0 1.03-.272 1.837-.816 2.419-.543.581-1.3.872-2.27.872-.609 0-1.145-.132-1.61-.397a2.674 2.674 0 01-1.07-1.15c-.25-.498-.374-1.08-.374-1.744 0-1.035.27-1.839.81-2.413.54-.574 1.3-.86 2.277-.86.608 0 1.144.131 1.609.396.464.264.821.643 1.07 1.138.25.495.374 1.074.374 1.739zm2.804 0c0 .627.102 1.1.306 1.422.207.32.543.481 1.008.481.46 0 .79-.159.991-.476.204-.32.306-.796.306-1.427 0-.627-.102-1.097-.306-1.41-.204-.314-.538-.47-1.003-.47-.46 0-.793.156-.996.47-.204.31-.306.78-.306 1.41zm4.378 0c0 1.03-.272 1.837-.816 2.419-.543.581-1.3.872-2.27.872-.609 0-1.145-.132-1.61-.397a2.675 2.675 0 01-1.07-1.15c-.25-.498-.374-1.08-.374-1.744 0-1.035.27-1.839.81-2.413.54-.574 1.3-.86 2.277-.86.608 0 1.144.131 1.609.396.464.264.821.643 1.07 1.138.25.495.374 1.074.374 1.739zm3.155 3.177h-1.728v-8.813h1.728v8.813zm6.236-1.88c0 .65-.227 1.144-.68 1.484-.449.34-1.123.51-2.022.51-.46 0-.853-.032-1.178-.096a4.344 4.344 0 01-.912-.272v-1.428c.321.151.682.278 1.082.38.404.102.76.153 1.065.153.627 0 .94-.182.94-.544a.444.444 0 00-.124-.329 1.704 1.704 0 00-.43-.289c-.205-.109-.477-.235-.816-.379-.488-.204-.846-.393-1.077-.566a1.637 1.637 0 01-.498-.595c-.102-.227-.153-.504-.153-.833 0-.562.217-.997.651-1.302.438-.31 1.058-.465 1.858-.465.763 0 1.505.166 2.226.498l-.521 1.247a9.577 9.577 0 00-.89-.334 2.79 2.79 0 00-.843-.13c-.51 0-.765.137-.765.413 0 .154.081.288.244.402.166.113.526.281 1.081.504.495.2.858.387 1.088.56.23.174.4.375.51.601.11.227.164.497.164.81z" fill="#000"/><path d="M74.068 21.735a.811.811 0 00.804-.819.811.811 0 00-.804-.819.811.811 0 00-.804.819c0 .452.36.819.804.819zM74.068 25.495a.811.811 0 00.804-.819.811.811 0 00-.804-.818.811.811 0 00-.804.818c0 .452.36.819.804.819zM74.068 29.255a.811.811 0 00.804-.818.811.811 0 00-.804-.819.811.811 0 00-.804.819c0 .452.36.818.804.818z" fill="#009F90"/></g><defs><clipPath id="lclip0_25_588"><path fill="#fff" d="M0 0h75v35H0z"/></clipPath></defs></svg><svg fill="none" viewBox="0 0 20 20" id="slider-dot" xmlns="http://www.w3.org/2000/svg"><path d="M10 20C4.477 20 0 15.523 0 10c0-1.293.246-2.53.693-3.664l1.95 1.135a7.778 7.778 0 0013.587 7.187l1.792 1.314A9.985 9.985 0 0110 20z" fill="#4B5457"/><path d="M19.829 8.148a10.061 10.061 0 01.126 2.804c-5.98-1.839-9.054-1.1-14.4 1.085 4.603-3.416 7.408-4.893 14.274-3.889z" fill="#4B5457"/><path d="M19.73 12.314a9.933 9.933 0 01-.944 2.465c-4.331-2.359-6.256-2.58-12.12-2.742 5.944-1.435 8.968-1.763 13.065.277z" fill="#4B5457"/><path d="M1.16 5.322A9.999 9.999 0 0110 0c4.354 0 8.058 2.783 9.431 6.667-7.57-.069-10.288 1.608-14.616 5.185 2.629-4.278 4.698-6.134 10.628-7.408A7.753 7.753 0 0010 2.222a7.777 7.777 0 00-6.913 4.21L1.16 5.321z" fill="#F27B05"/></svg><svg fill="none" viewBox="0 0 135 237" id="slider-icon-active" xmlns="http://www.w3.org/2000/svg"><path d="M16.001.363L16.364 0l118.257 118.257-.363.363L16.001.363z" fill="url(#npaint0_linear_107_1022)"/><path d="M134.621 118.355l-.363-.363L16.001 236.249l.363.363L134.62 118.355z" fill="url(#npaint1_linear_107_1022)"/><path d="M47.585 63.17l.17-.17 55.282 55.283-.169.17L47.585 63.17z" fill="url(#npaint2_linear_107_1022)"/><path d="M103.037 118.329l-.169-.17-55.283 55.283.17.17 55.282-55.283z" fill="url(#npaint3_linear_107_1022)"/><g opacity=".5"><path d="M16 .363L.394 15.97 118.65 134.228l15.608-15.608L16.001.363z" fill="url(#npaint4_linear_107_1022)"/><path d="M134.621 118.355l-15.972-15.972L.392 220.64l15.971 15.972 118.258-118.257z" fill="url(#npaint5_linear_107_1022)"/></g><defs><linearGradient id="npaint0_linear_107_1022" x1="16.183" y1=".181" x2="134.44" y2="118.439" gradientUnits="userSpaceOnUse"><stop stop-color="#fff" stop-opacity="0"/><stop offset=".5" stop-color="#4B5457"/><stop offset="1" stop-color="#fff" stop-opacity="0"/></linearGradient><linearGradient id="npaint1_linear_107_1022" x1="134.44" y1="118.173" x2="16.183" y2="236.431" gradientUnits="userSpaceOnUse"><stop stop-color="#fff" stop-opacity="0"/><stop offset=".5" stop-color="#4B5457"/><stop offset="1" stop-color="#fff" stop-opacity="0"/></linearGradient><linearGradient id="npaint2_linear_107_1022" x1="47.669" y1="63.085" x2="102.953" y2="118.368" gradientUnits="userSpaceOnUse"><stop stop-color="#fff" stop-opacity="0"/><stop offset=".5" stop-color="#4B5457"/><stop offset="1" stop-color="#fff" stop-opacity="0"/></linearGradient><linearGradient id="npaint3_linear_107_1022" x1="102.953" y1="118.244" x2="47.669" y2="173.527" gradientUnits="userSpaceOnUse"><stop stop-color="#fff" stop-opacity="0"/><stop offset=".5" stop-color="#4B5457"/><stop offset="1" stop-color="#fff" stop-opacity="0"/></linearGradient><linearGradient id="npaint4_linear_107_1022" x1="8.197" y1="8.167" x2="126.454" y2="126.424" gradientUnits="userSpaceOnUse"><stop stop-color="#fff" stop-opacity="0"/><stop offset=".5" stop-color="#F27B05"/><stop offset="1" stop-color="#fff" stop-opacity="0"/></linearGradient><linearGradient id="npaint5_linear_107_1022" x1="126.635" y1="110.369" x2="8.378" y2="228.626" gradientUnits="userSpaceOnUse"><stop stop-color="#fff" stop-opacity="0"/><stop offset=".5" stop-color="#F27B05"/><stop offset="1" stop-color="#fff" stop-opacity="0"/></linearGradient></defs></svg><svg fill="none" viewBox="0 0 101 177" id="slider-icon-active-mobile" xmlns="http://www.w3.org/2000/svg"><path d="M12.12.271l.271-.27 88.464 88.463-.272.271L12.12.271z" fill="url(#opaint0_linear_164_1170)"/><path d="M100.855 88.537l-.272-.272L12.12 176.73l.271.271 88.464-88.463z" fill="url(#opaint1_linear_164_1170)"/><path d="M35.746 47.254l.127-.127 41.355 41.356-.127.126-41.355-41.355z" fill="url(#opaint2_linear_164_1170)"/><path d="M77.228 88.517l-.127-.127-41.355 41.355.127.127 41.355-41.355z" fill="url(#opaint3_linear_164_1170)"/><g opacity=".5"><path d="M12.12.271L.444 11.947l88.463 88.464 11.676-11.676L12.12.271z" fill="url(#opaint4_linear_164_1170)"/><path d="M100.854 88.537L88.906 76.589.443 165.052 12.39 177l88.463-88.463z" fill="url(#opaint5_linear_164_1170)"/></g><defs><linearGradient id="opaint0_linear_164_1170" x1="12.255" y1=".136" x2="100.719" y2="88.599" gradientUnits="userSpaceOnUse"><stop stop-color="#fff" stop-opacity="0"/><stop offset=".5" stop-color="#4B5457"/><stop offset="1" stop-color="#fff" stop-opacity="0"/></linearGradient><linearGradient id="opaint1_linear_164_1170" x1="100.719" y1="88.401" x2="12.255" y2="176.864" gradientUnits="userSpaceOnUse"><stop stop-color="#fff" stop-opacity="0"/><stop offset=".5" stop-color="#4B5457"/><stop offset="1" stop-color="#fff" stop-opacity="0"/></linearGradient><linearGradient id="opaint2_linear_164_1170" x1="35.81" y1="47.191" x2="77.165" y2="88.546" gradientUnits="userSpaceOnUse"><stop stop-color="#fff" stop-opacity="0"/><stop offset=".5" stop-color="#4B5457"/><stop offset="1" stop-color="#fff" stop-opacity="0"/></linearGradient><linearGradient id="opaint3_linear_164_1170" x1="77.165" y1="88.454" x2="35.81" y2="129.809" gradientUnits="userSpaceOnUse"><stop stop-color="#fff" stop-opacity="0"/><stop offset=".5" stop-color="#4B5457"/><stop offset="1" stop-color="#fff" stop-opacity="0"/></linearGradient><linearGradient id="opaint4_linear_164_1170" x1="6.282" y1="6.109" x2="94.745" y2="94.573" gradientUnits="userSpaceOnUse"><stop stop-color="#fff" stop-opacity="0"/><stop offset=".5" stop-color="#F27B05"/><stop offset="1" stop-color="#fff" stop-opacity="0"/></linearGradient><linearGradient id="opaint5_linear_164_1170" x1="94.88" y1="82.563" x2="6.417" y2="171.026" gradientUnits="userSpaceOnUse"><stop stop-color="#fff" stop-opacity="0"/><stop offset=".5" stop-color="#F27B05"/><stop offset="1" stop-color="#fff" stop-opacity="0"/></linearGradient></defs></svg><svg fill="none" viewBox="0 0 101 177" id="slider-icon-right" xmlns="http://www.w3.org/2000/svg"><path d="M12.12.271l.271-.27 88.464 88.463-.272.271L12.12.271z" fill="url(#ppaint0_linear_154_69)"/><path d="M100.855 88.537l-.272-.272L12.12 176.73l.271.271 88.464-88.463z" fill="url(#ppaint1_linear_154_69)"/><path d="M35.746 47.254l.127-.127 41.355 41.356-.127.126-41.355-41.355z" fill="url(#ppaint2_linear_154_69)"/><path d="M77.228 88.517l-.127-.127-41.355 41.355.127.127 41.355-41.355z" fill="url(#ppaint3_linear_154_69)"/><g opacity=".1"><path d="M12.12.271L.444 11.947l88.463 88.464 11.676-11.676L12.12.271z" fill="url(#ppaint4_linear_154_69)"/><path d="M100.854 88.537L88.906 76.589.443 165.052 12.39 177l88.463-88.463z" fill="url(#ppaint5_linear_154_69)"/></g><defs><linearGradient id="ppaint0_linear_154_69" x1="12.255" y1=".136" x2="100.719" y2="88.599" gradientUnits="userSpaceOnUse"><stop stop-color="#fff" stop-opacity="0"/><stop offset=".5" stop-color="#4B5457"/><stop offset="1" stop-color="#fff" stop-opacity="0"/></linearGradient><linearGradient id="ppaint1_linear_154_69" x1="100.719" y1="88.401" x2="12.255" y2="176.864" gradientUnits="userSpaceOnUse"><stop stop-color="#fff" stop-opacity="0"/><stop offset=".5" stop-color="#4B5457"/><stop offset="1" stop-color="#fff" stop-opacity="0"/></linearGradient><linearGradient id="ppaint2_linear_154_69" x1="35.81" y1="47.191" x2="77.165" y2="88.546" gradientUnits="userSpaceOnUse"><stop stop-color="#fff" stop-opacity="0"/><stop offset=".5" stop-color="#4B5457"/><stop offset="1" stop-color="#fff" stop-opacity="0"/></linearGradient><linearGradient id="ppaint3_linear_154_69" x1="77.165" y1="88.454" x2="35.81" y2="129.809" gradientUnits="userSpaceOnUse"><stop stop-color="#fff" stop-opacity="0"/><stop offset=".5" stop-color="#4B5457"/><stop offset="1" stop-color="#fff" stop-opacity="0"/></linearGradient><linearGradient id="ppaint4_linear_154_69" x1="6.282" y1="6.109" x2="94.745" y2="94.573" gradientUnits="userSpaceOnUse"><stop stop-color="#fff" stop-opacity="0"/><stop offset=".5" stop-color="#4B5457"/><stop offset="1" stop-color="#fff" stop-opacity="0"/></linearGradient><linearGradient id="ppaint5_linear_154_69" x1="94.88" y1="82.563" x2="6.417" y2="171.026" gradientUnits="userSpaceOnUse"><stop stop-color="#fff" stop-opacity="0"/><stop offset=".5" stop-color="#4B5457"/><stop offset="1" stop-color="#fff" stop-opacity="0"/></linearGradient></defs></svg><svg fill="none" viewBox="0 0 101 177" id="slider-icon-right-mobile" xmlns="http://www.w3.org/2000/svg"><path d="M12.12.271l.271-.27 88.464 88.463-.272.271L12.12.271z" fill="url(#qpaint0_linear_164_1150)"/><path d="M100.855 88.537l-.272-.272L12.12 176.73l.271.271 88.464-88.463z" fill="url(#qpaint1_linear_164_1150)"/><path d="M35.746 47.254l.127-.127 41.355 41.356-.127.126-41.355-41.355z" fill="url(#qpaint2_linear_164_1150)"/><path d="M77.228 88.517l-.127-.127-41.355 41.355.127.127 41.355-41.355z" fill="url(#qpaint3_linear_164_1150)"/><g opacity=".1"><path d="M12.12.271L.444 11.947l88.463 88.464 11.676-11.676L12.12.271z" fill="url(#qpaint4_linear_164_1150)"/><path d="M100.854 88.537L88.906 76.589.443 165.052 12.39 177l88.463-88.463z" fill="url(#qpaint5_linear_164_1150)"/></g><defs><linearGradient id="qpaint0_linear_164_1150" x1="12.255" y1=".136" x2="100.719" y2="88.599" gradientUnits="userSpaceOnUse"><stop stop-color="#fff" stop-opacity="0"/><stop offset=".5" stop-color="#4B5457"/><stop offset="1" stop-color="#fff" stop-opacity="0"/></linearGradient><linearGradient id="qpaint1_linear_164_1150" x1="100.719" y1="88.401" x2="12.255" y2="176.864" gradientUnits="userSpaceOnUse"><stop stop-color="#fff" stop-opacity="0"/><stop offset=".5" stop-color="#4B5457"/><stop offset="1" stop-color="#fff" stop-opacity="0"/></linearGradient><linearGradient id="qpaint2_linear_164_1150" x1="35.81" y1="47.191" x2="77.165" y2="88.546" gradientUnits="userSpaceOnUse"><stop stop-color="#fff" stop-opacity="0"/><stop offset=".5" stop-color="#4B5457"/><stop offset="1" stop-color="#fff" stop-opacity="0"/></linearGradient><linearGradient id="qpaint3_linear_164_1150" x1="77.165" y1="88.454" x2="35.81" y2="129.809" gradientUnits="userSpaceOnUse"><stop stop-color="#fff" stop-opacity="0"/><stop offset=".5" stop-color="#4B5457"/><stop offset="1" stop-color="#fff" stop-opacity="0"/></linearGradient><linearGradient id="qpaint4_linear_164_1150" x1="6.282" y1="6.109" x2="94.745" y2="94.573" gradientUnits="userSpaceOnUse"><stop stop-color="#fff" stop-opacity="0"/><stop offset=".5" stop-color="#4B5457"/><stop offset="1" stop-color="#fff" stop-opacity="0"/></linearGradient><linearGradient id="qpaint5_linear_164_1150" x1="94.88" y1="82.563" x2="6.417" y2="171.026" gradientUnits="userSpaceOnUse"><stop stop-color="#fff" stop-opacity="0"/><stop offset=".5" stop-color="#4B5457"/><stop offset="1" stop-color="#fff" stop-opacity="0"/></linearGradient></defs></svg></svg>