<svg width="110" height="114" viewBox="0 0 110 114" fill="none" xmlns="http://www.w3.org/2000/svg">
<g id="MicrosoftTeamsLogo" clip-path="url(#clip0_73_841)">
<path id="Vector" d="M110 62.9124C110.005 58.5193 108.923 54.1937 106.852 50.3229C104.781 46.4521 101.786 43.1569 98.1337 40.7324C94.4818 38.3079 90.2874 36.8298 85.9263 36.4303C81.5652 36.0309 77.1734 36.7227 73.1442 38.4437C69.115 40.1647 65.5741 42.8613 62.8387 46.2919C60.1033 49.7225 58.2587 53.7801 57.47 58.1013C56.6814 62.4225 56.9734 66.8725 58.3198 71.0527C59.6663 75.233 62.0252 79.013 65.1852 82.0543V111.955C65.185 112.304 65.2736 112.646 65.4426 112.951C65.6117 113.255 65.8555 113.511 66.151 113.695C66.4465 113.878 66.7838 113.982 67.1308 113.998C67.4779 114.014 67.8232 113.94 68.1339 113.784L83.5186 106.065L98.9033 113.784C99.1867 113.925 99.4986 113.998 99.8149 113.999C100.355 113.999 100.873 113.783 101.255 113.4C101.637 113.017 101.852 112.497 101.852 111.955V82.0543C104.428 79.5809 106.478 76.6097 107.879 73.3198C109.279 70.03 110.001 66.4896 110 62.9124ZM61.1112 62.9124C61.1112 58.4666 62.4253 54.1208 64.8875 50.4243C67.3497 46.7278 70.8492 43.8468 74.9436 42.1455C79.038 40.4442 83.5434 39.999 87.89 40.8663C92.2366 41.7337 96.2293 43.8745 99.363 47.0181C102.497 50.1617 104.631 54.1668 105.495 58.5271C106.36 62.8874 105.916 67.407 104.22 71.5143C102.524 75.6216 99.6523 79.1321 95.9675 81.602C92.2826 84.0719 87.9503 85.3903 83.5186 85.3903C77.5778 85.3835 71.8823 83.0131 67.6816 78.7992C63.4808 74.5852 61.1179 68.8718 61.1112 62.9124ZM97.7778 108.65L84.4301 101.952C84.1471 101.81 83.835 101.736 83.5186 101.736C83.2021 101.736 82.89 101.81 82.607 101.952L69.2593 108.65V85.2779C73.513 88.0195 78.4626 89.477 83.5186 89.477C88.5746 89.477 93.5241 88.0195 97.7778 85.2779V108.65Z" fill="#03A447"/>
<g id="Vector_2">
<path d="M52.963 95.6075C52.963 96.1495 52.7483 96.6692 52.3663 97.0525C51.9843 97.4357 51.4662 97.651 50.9259 97.651H6.11111C4.49034 97.651 2.93596 97.0051 1.7899 95.8554C0.643847 94.7058 0 93.1465 0 91.5206V6.13034C0 4.50447 0.643847 2.9452 1.7899 1.79553C2.93596 0.645872 4.49034 0 6.11111 0H95.7407C97.3615 0 98.9159 0.645872 100.062 1.79553C101.208 2.9452 101.852 4.50447 101.852 6.13034C101.852 6.67229 101.637 7.19205 101.255 7.57527C100.873 7.95849 100.355 8.17379 99.8148 8.17379C99.2746 8.17379 98.7564 7.95849 98.3744 7.57527C97.9924 7.19205 97.7778 6.67229 97.7778 6.13034C97.7778 5.58838 97.5632 5.06863 97.1811 4.6854C96.7991 4.30218 96.281 4.08689 95.7407 4.08689H6.11111C5.57086 4.08689 5.05273 4.30218 4.67071 4.6854C4.28869 5.06863 4.07407 5.58838 4.07407 6.13034V91.5206C4.07407 92.0626 4.28869 92.5823 4.67071 92.9656C5.05273 93.3488 5.57086 93.5641 6.11111 93.5641H50.9259C51.4662 93.5641 51.9843 93.7794 52.3663 94.1626C52.7483 94.5458 52.963 95.0656 52.963 95.6075ZM59.8148 32.9993C59.8148 33.5412 59.6002 34.061 59.2182 34.4442C58.8362 34.8274 58.318 35.0427 57.7778 35.0427H17.4074C16.8671 35.0427 16.349 34.8274 15.967 34.4442C15.585 34.061 15.3704 33.5412 15.3704 32.9993C15.3704 32.4573 15.585 31.9375 15.967 31.5543C16.349 31.1711 16.8671 30.9558 17.4074 30.9558H57.7778C58.318 30.9558 58.8362 31.1711 59.2182 31.5543C59.6002 31.9375 59.8148 32.4573 59.8148 32.9993ZM79.8148 16.6517C79.8148 17.1937 79.6002 17.7134 79.2182 18.0966C78.8362 18.4799 78.318 18.6951 77.7778 18.6951H17.4074C16.8671 18.6951 16.349 18.4799 15.967 18.0966C15.585 17.7134 15.3704 17.1937 15.3704 16.6517C15.3704 16.1097 15.585 15.59 15.967 15.2068C16.349 14.8235 16.8671 14.6082 17.4074 14.6082H77.7778C78.318 14.6082 78.8362 14.8235 79.2182 15.2068C79.6002 15.59 79.8148 16.1097 79.8148 16.6517Z" fill="#F27B05"/>
<path d="M39.2182 66.4442C39.6002 66.061 39.8148 65.5412 39.8148 64.9993C39.8148 64.4573 39.6002 63.9376 39.2182 63.5544C38.8362 63.1711 38.318 62.9558 37.7778 62.9558H17.4074C16.8671 62.9558 16.349 63.1711 15.967 63.5544C15.585 63.9376 15.3704 64.4573 15.3704 64.9993C15.3704 65.5412 15.585 66.061 15.967 66.4442C16.349 66.8275 16.8671 67.0427 17.4074 67.0427H37.7778C38.318 67.0427 38.8362 66.8275 39.2182 66.4442Z" fill="#F27B05"/>
<path d="M49.2182 50.0967C49.6002 49.7134 49.8148 49.1937 49.8148 48.6517C49.8148 48.1098 49.6002 47.59 49.2182 47.2068C48.8362 46.8236 48.318 46.6083 47.7778 46.6083H17.4074C16.8671 46.6083 16.349 46.8236 15.967 47.2068C15.585 47.59 15.3704 48.1098 15.3704 48.6517C15.3704 49.1937 15.585 49.7134 15.967 50.0967C16.349 50.4799 16.8671 50.6952 17.4074 50.6952H47.7778C48.318 50.6952 48.8362 50.4799 49.2182 50.0967Z" fill="#F27B05"/>
<path d="M39.2182 82.4442C39.6002 82.061 39.8148 81.5412 39.8148 80.9993C39.8148 80.4573 39.6002 79.9375 39.2182 79.5543C38.8362 79.1711 38.318 78.9558 37.7778 78.9558H17.4074C16.8671 78.9558 16.349 79.1711 15.967 79.5543C15.585 79.9375 15.3704 80.4573 15.3704 80.9993C15.3704 81.5412 15.585 82.061 15.967 82.4442C16.349 82.8274 16.8671 83.0427 17.4074 83.0427H37.7778C38.318 83.0427 38.8362 82.8274 39.2182 82.4442Z" fill="#F27B05"/>
</g>
<g id="Vector_3">
<path d="M84 78C75.7157 78 69 71.2843 69 63C69 61.0598 69.3684 59.2056 70.039 57.5035L72.9642 59.2058C72.5553 60.3953 72.3333 61.6717 72.3333 63C72.3333 69.4433 77.5567 74.6667 84 74.6667C87.8233 74.6667 91.217 72.8276 93.3448 69.9859L96.0325 71.9581C93.2978 75.6253 88.9262 78 84 78Z" fill="#4B5457"/>
<path d="M98.7433 60.2222C98.9119 61.1224 99 62.0509 99 63C99 63.4817 98.9773 63.958 98.9329 64.4281C89.9625 61.6698 85.3516 62.7767 77.3333 66.0556C84.2369 60.9314 88.4442 58.7162 98.7433 60.2222Z" fill="#4B5457"/>
<path d="M98.5964 66.471C98.2868 67.7778 97.8063 69.0185 97.1797 70.1681C90.6825 66.6305 87.7949 66.2976 79 66.0556C87.9142 63.9036 92.4513 63.411 98.5964 66.471Z" fill="#4B5457"/>
<path d="M70.7388 55.9834C73.2567 51.2347 78.2506 48 84 48C90.531 48 96.0872 52.174 98.1464 58C86.7911 57.897 82.714 60.4131 76.2222 65.7778C80.1657 59.3611 83.27 56.5767 92.1649 54.6667C90.0607 52.6047 87.1788 51.3333 84 51.3333C79.4863 51.3333 75.5712 53.8966 73.6311 57.6469L70.7388 55.9834Z" fill="#F27B05"/>
</g>
</g>
<defs>
<clipPath id="clip0_73_841">
<rect width="110" height="114" fill="white"/>
</clipPath>
</defs>
</svg>
