<svg width="110" height="114" viewBox="0 0 110 114" fill="none" xmlns="http://www.w3.org/2000/svg">
<g id="MicrosoftTeamsLogo" clip-path="url(#clip0_73_816)">
<path id="Vector" d="M108.103 110.2H98.6207V36.1052C98.6207 34.5936 98.0212 33.144 96.9542 32.0751C95.8872 31.0062 94.44 30.4058 92.931 30.4058H60.6897V5.70795C60.6912 4.67545 60.4127 3.66193 59.8839 2.77565C59.3552 1.88936 58.596 1.16361 57.6875 0.675906C56.779 0.188203 55.7554 -0.043129 54.7259 0.00662146C53.6963 0.0563719 52.6996 0.385335 51.8422 0.958373L13.9112 26.2879C13.1311 26.8092 12.4918 27.5156 12.0501 28.3443C11.6083 29.1729 11.3779 30.0981 11.3793 31.0374V110.2H1.89655C1.39355 110.2 0.911159 110.4 0.555487 110.757C0.199815 111.113 0 111.596 0 112.1C0 112.604 0.199815 113.087 0.555487 113.444C0.911159 113.8 1.39355 114 1.89655 114H108.103C108.606 114 109.089 113.8 109.445 113.444C109.8 113.087 110 112.604 110 112.1C110 111.596 109.8 111.113 109.445 110.757C109.089 110.4 108.606 110.2 108.103 110.2ZM92.931 34.2054C93.434 34.2054 93.9164 34.4056 94.2721 34.7619C94.6278 35.1181 94.8276 35.6014 94.8276 36.1052V110.2H60.6897V34.2054H92.931ZM15.1724 31.0422C15.1714 30.7285 15.248 30.4195 15.3953 30.1427C15.5425 29.8659 15.7559 29.6299 16.0164 29.4558L53.9474 4.12634C54.2331 3.9354 54.5652 3.82576 54.9082 3.80911C55.2513 3.79246 55.5924 3.86943 55.8951 4.03181C56.1979 4.19419 56.451 4.43588 56.6274 4.73108C56.8037 5.02628 56.8968 5.36392 56.8966 5.70795V110.2H15.1724V31.0422ZM45.5172 73.7046V81.3039C45.5172 81.8078 45.3174 82.291 44.9618 82.6473C44.6061 83.0036 44.1237 83.2037 43.6207 83.2037C43.1177 83.2037 42.6353 83.0036 42.2796 82.6473C41.924 82.291 41.7241 81.8078 41.7241 81.3039V73.7046C41.7241 73.2007 41.924 72.7175 42.2796 72.3612C42.6353 72.0049 43.1177 71.8047 43.6207 71.8047C44.1237 71.8047 44.6061 72.0049 44.9618 72.3612C45.3174 72.7175 45.5172 73.2007 45.5172 73.7046ZM30.3448 73.7046V81.3039C30.3448 81.8078 30.145 82.291 29.7893 82.6473C29.4337 83.0036 28.9513 83.2037 28.4483 83.2037C27.9453 83.2037 27.4629 83.0036 27.1072 82.6473C26.7515 82.291 26.5517 81.8078 26.5517 81.3039V73.7046C26.5517 73.2007 26.7515 72.7175 27.1072 72.3612C27.4629 72.0049 27.9453 71.8047 28.4483 71.8047C28.9513 71.8047 29.4337 72.0049 29.7893 72.3612C30.145 72.7175 30.3448 73.2007 30.3448 73.7046ZM30.3448 95.3022V102.902C30.3448 103.405 30.145 103.889 29.7893 104.245C29.4337 104.601 28.9513 104.801 28.4483 104.801C27.9453 104.801 27.4629 104.601 27.1072 104.245C26.7515 103.889 26.5517 103.405 26.5517 102.902V95.3022C26.5517 94.7983 26.7515 94.3151 27.1072 93.9588C27.4629 93.6025 27.9453 93.4024 28.4483 93.4024C28.9513 93.4024 29.4337 93.6025 29.7893 93.9588C30.145 94.3151 30.3448 94.7983 30.3448 95.3022ZM45.5172 95.3022V102.902C45.5172 103.405 45.3174 103.889 44.9618 104.245C44.6061 104.601 44.1237 104.801 43.6207 104.801C43.1177 104.801 42.6353 104.601 42.2796 104.245C41.924 103.889 41.7241 103.405 41.7241 102.902V95.3022C41.7241 94.7983 41.924 94.3151 42.2796 93.9588C42.6353 93.6025 43.1177 93.4024 43.6207 93.4024C44.1237 93.4024 44.6061 93.6025 44.9618 93.9588C45.3174 94.3151 45.5172 94.7983 45.5172 95.3022Z" fill="#F27B05"/>
<g id="Vector_2">
<path fill-rule="evenodd" clip-rule="evenodd" d="M44.9618 82.6473C45.3174 82.291 45.5172 81.8078 45.5172 81.3039V73.7046C45.5172 73.2007 45.3174 72.7175 44.9618 72.3612C44.6061 72.0049 44.1237 71.8047 43.6207 71.8047C43.1177 71.8047 42.6353 72.0049 42.2796 72.3612C41.924 72.7175 41.7241 73.2007 41.7241 73.7046V81.3039C41.7241 81.8078 41.924 82.291 42.2796 82.6473C42.6353 83.0036 43.1177 83.2037 43.6207 83.2037C44.1237 83.2037 44.6061 83.0036 44.9618 82.6473ZM29.7893 82.6473C30.145 82.291 30.3448 81.8078 30.3448 81.3039V73.7046C30.3448 73.2007 30.145 72.7175 29.7893 72.3612C29.4337 72.0049 28.9513 71.8047 28.4483 71.8047C27.9453 71.8047 27.4629 72.0049 27.1072 72.3612C26.7515 72.7175 26.5517 73.2007 26.5517 73.7046V81.3039C26.5517 81.8078 26.7515 82.291 27.1072 82.6473C27.4629 83.0036 27.9453 83.2037 28.4483 83.2037C28.9513 83.2037 29.4337 83.0036 29.7893 82.6473ZM29.7893 104.245C30.145 103.889 30.3448 103.405 30.3448 102.902V95.3022C30.3448 94.7983 30.145 94.3151 29.7893 93.9588C29.4337 93.6025 28.9513 93.4024 28.4483 93.4024C27.9453 93.4024 27.4629 93.6025 27.1072 93.9588C26.7515 94.3151 26.5517 94.7983 26.5517 95.3022V102.902C26.5517 103.405 26.7515 103.889 27.1072 104.245C27.4629 104.601 27.9453 104.801 28.4483 104.801C28.9513 104.801 29.4337 104.601 29.7893 104.245ZM44.9618 104.245C45.3174 103.889 45.5172 103.405 45.5172 102.902V95.3022C45.5172 94.7983 45.3174 94.3151 44.9618 93.9588C44.6061 93.6025 44.1237 93.4024 43.6207 93.4024C43.1177 93.4024 42.6353 93.6025 42.2796 93.9588C41.924 94.3151 41.7241 94.7983 41.7241 95.3022V102.902C41.7241 103.405 41.924 103.889 42.2796 104.245C42.6353 104.601 43.1177 104.801 43.6207 104.801C44.1237 104.801 44.6061 104.601 44.9618 104.245Z" fill="#03A447"/>
<path d="M60.6897 30.4058V5.70795C60.6912 4.67545 60.4127 3.66193 59.8839 2.77565C59.3552 1.88936 58.596 1.16361 57.6875 0.675906C56.779 0.188203 55.7554 -0.043129 54.7259 0.00662146C53.6963 0.0563719 52.6996 0.385335 51.8422 0.958373L13.9112 26.2879C13.1311 26.8092 12.4918 27.5156 12.0501 28.3443C11.6083 29.1729 11.3779 30.0981 11.3793 31.0374V110.2H15.1724V31.0422C15.1714 30.7285 15.248 30.4195 15.3952 30.1427C15.5425 29.8659 15.7559 29.6299 16.0164 29.4558L53.9474 4.12634C54.2331 3.9354 54.5652 3.82576 54.9082 3.80911C55.2513 3.79246 55.5924 3.86943 55.8951 4.03181C56.1979 4.19419 56.451 4.43588 56.6274 4.73108C56.8037 5.02628 56.8968 5.36392 56.8966 5.70795V110.2H60.6897V34.2054V30.4058Z" fill="#03A447"/>
</g>
<path id="Vector_3" fill-rule="evenodd" clip-rule="evenodd" d="M84.9618 52.6472C85.3174 52.2909 85.5172 51.8077 85.5172 51.3038V43.7045C85.5172 43.2007 85.3174 42.7174 84.9618 42.3611C84.6061 42.0049 84.1237 41.8047 83.6207 41.8047C83.1177 41.8047 82.6353 42.0049 82.2796 42.3611C81.924 42.7174 81.7241 43.2007 81.7241 43.7045V51.3038C81.7241 51.8077 81.924 52.2909 82.2796 52.6472C82.6353 53.0035 83.1177 53.2037 83.6207 53.2037C84.1237 53.2037 84.6061 53.0035 84.9618 52.6472ZM69.7893 52.6472C70.145 52.2909 70.3448 51.8077 70.3448 51.3038V43.7045C70.3448 43.2007 70.145 42.7174 69.7893 42.3611C69.4337 42.0049 68.9513 41.8047 68.4483 41.8047C67.9453 41.8047 67.4629 42.0049 67.1072 42.3611C66.7515 42.7174 66.5517 43.2007 66.5517 43.7045V51.3038C66.5517 51.8077 66.7515 52.2909 67.1072 52.6472C67.4629 53.0035 67.9453 53.2037 68.4483 53.2037C68.9513 53.2037 69.4337 53.0035 69.7893 52.6472ZM69.7893 104.245C70.145 103.889 70.3448 103.405 70.3448 102.901V95.3022C70.3448 94.7983 70.145 94.3151 69.7893 93.9588C69.4337 93.6025 68.9513 93.4023 68.4483 93.4023C67.9453 93.4023 67.4629 93.6025 67.1072 93.9588C66.7515 94.3151 66.5517 94.7983 66.5517 95.3022V102.901C66.5517 103.405 66.7515 103.889 67.1072 104.245C67.4629 104.601 67.9453 104.801 68.4483 104.801C68.9513 104.801 69.4337 104.601 69.7893 104.245ZM84.9618 104.245C85.3174 103.889 85.5172 103.405 85.5172 102.901V95.3022C85.5172 94.7983 85.3174 94.3151 84.9618 93.9588C84.6061 93.6025 84.1237 93.4023 83.6207 93.4023C83.1177 93.4023 82.6353 93.6025 82.2796 93.9588C81.924 94.3151 81.7241 94.7983 81.7241 95.3022V102.901C81.7241 103.405 81.924 103.889 82.2796 104.245C82.6353 104.601 83.1177 104.801 83.6207 104.801C84.1237 104.801 84.6061 104.601 84.9618 104.245Z" fill="#F27B05"/>
<path id="Vector_4" d="M92.0039 66.5V74.5C92.0039 74.8978 91.8458 75.2794 91.5645 75.5607C91.2832 75.842 90.9017 76 90.5039 76C90.106 76 89.7245 75.842 89.4432 75.5607C89.1619 75.2794 89.0039 74.8978 89.0039 74.5V70.125L79.5651 79.565C79.4257 79.7048 79.2602 79.8158 79.0778 79.8915C78.8955 79.9672 78.7 80.0062 78.5026 80.0062C78.3052 80.0062 78.1097 79.9672 77.9274 79.8915C77.745 79.8158 77.5795 79.7048 77.4401 79.565L73.5039 75.625L65.5651 83.5613C65.2833 83.843 64.9011 84.0014 64.5026 84.0014C64.1041 84.0014 63.7219 83.843 63.4401 83.5613C63.1583 83.2795 63 82.8973 63 82.4988C63 82.1002 63.1583 81.718 63.4401 81.4363L72.4401 72.4362C72.5795 72.2964 72.745 72.1855 72.9274 72.1097C73.1097 72.034 73.3052 71.9951 73.5026 71.9951C73.7 71.9951 73.8955 72.034 74.0778 72.1097C74.2602 72.1855 74.4257 72.2964 74.5651 72.4362L78.5039 76.375L86.8789 68H82.5039C82.106 68 81.7245 67.842 81.4432 67.5607C81.1619 67.2794 81.0039 66.8978 81.0039 66.5C81.0039 66.1022 81.1619 65.7206 81.4432 65.4393C81.7245 65.158 82.106 65 82.5039 65H90.5039C90.9017 65 91.2832 65.158 91.5645 65.4393C91.8458 65.7206 92.0039 66.1022 92.0039 66.5Z" fill="#F27B05"/>
<g id="Vector_5">
<path d="M36 57C27.7157 57 21 50.2843 21 42C21 40.0598 21.3684 38.2056 22.039 36.5035L24.9642 38.2058C24.5553 39.3953 24.3333 40.6717 24.3333 42C24.3333 48.4433 29.5567 53.6667 36 53.6667C39.8233 53.6667 43.217 51.8276 45.3448 48.9859L48.0325 50.9581C45.2978 54.6253 40.9262 57 36 57Z" fill="#4B5457"/>
<path d="M50.7433 39.2222C50.9119 40.1224 51 41.0509 51 42C51 42.4817 50.9773 42.958 50.9329 43.4281C41.9625 40.6698 37.3516 41.7767 29.3333 45.0556C36.2369 39.9314 40.4442 37.7162 50.7433 39.2222Z" fill="#4B5457"/>
<path d="M50.5964 45.471C50.2868 46.7778 49.8063 48.0185 49.1797 49.1681C42.6825 45.6305 39.7949 45.2976 31 45.0556C39.9142 42.9036 44.4513 42.411 50.5964 45.471Z" fill="#4B5457"/>
<path d="M22.7388 34.9834C25.2567 30.2347 30.2506 27 36 27C42.531 27 48.0872 31.174 50.1464 37C38.7911 36.897 34.714 39.4131 28.2222 44.7778C32.1657 38.3611 35.27 35.5767 44.1649 33.6667C42.0607 31.6047 39.1788 30.3333 36 30.3333C31.4863 30.3333 27.5712 32.8966 25.6311 36.6469L22.7388 34.9834Z" fill="#F27B05"/>
</g>
</g>
<defs>
<clipPath id="clip0_73_816">
<rect width="110" height="114" fill="white"/>
</clipPath>
</defs>
</svg>
