<svg width="110" height="114" viewBox="0 0 110 114" fill="none" xmlns="http://www.w3.org/2000/svg">
<g id="MicrosoftTeamsLogo" clip-path="url(#clip0_73_961)">
<g id="Vector">
<path d="M25.2047 31.2396C22.6665 31.2388 20.1794 30.5212 18.0259 29.1684C15.8724 27.8157 14.1387 25.8819 13.0219 23.5868C11.905 21.2917 11.4497 18.7272 11.7076 16.1845C11.9656 13.6419 12.9264 11.223 14.4811 9.20272C16.0357 7.18238 18.1218 5.64154 20.5025 4.75518C22.8832 3.86881 25.463 3.67246 27.9489 4.18842C30.4348 4.70438 32.7273 5.91198 34.5658 7.67405C36.4044 9.43612 37.7154 11.6821 38.3499 14.1568C38.4785 14.6584 38.7996 15.088 39.2428 15.3512C39.6859 15.6143 40.2147 15.6894 40.7129 15.56C41.211 15.4305 41.6377 15.1071 41.899 14.6609C42.1604 14.2147 42.2349 13.6822 42.1064 13.1806C41.3919 10.3926 40.008 7.82407 38.0763 5.70106C36.1447 3.57805 33.7245 1.96558 31.0287 1.00551C28.3328 0.0454459 25.444 -0.2328 22.6164 0.195253C19.7887 0.623307 17.1088 1.74454 14.8125 3.46032C12.5162 5.1761 10.6738 7.43384 9.44743 10.0349C8.22104 12.636 7.64825 15.5007 7.77943 18.377C7.91061 21.2533 8.74176 24.0531 10.1997 26.5301C11.6577 29.007 13.6979 31.0852 16.1407 32.5818C9.84102 34.5086 4.32017 38.4172 0.387773 43.7345C0.0792479 44.1487 -0.0532259 44.6694 0.0194941 45.1819C0.092214 45.6945 0.364171 46.157 0.775537 46.4677C1.1869 46.7784 1.70398 46.9118 2.21302 46.8385C2.72206 46.7653 3.18137 46.4915 3.48989 46.0772C6.00635 42.6699 9.2824 39.9054 13.0541 38.0064C16.8259 36.1074 20.9878 35.127 25.2047 35.1442C25.7189 35.1442 26.2121 34.9385 26.5757 34.5724C26.9393 34.2063 27.1435 33.7097 27.1435 33.1919C27.1435 32.6741 26.9393 32.1775 26.5757 31.8114C26.2121 31.4453 25.7189 31.2396 25.2047 31.2396Z" fill="#F27B05"/>
<path d="M84.9633 31.2396C87.5014 31.2388 89.9885 30.5212 92.1421 29.1684C94.2956 27.8157 96.0292 25.8819 97.1461 23.5868C98.263 21.2917 98.7183 18.7272 98.4603 16.1845C98.2024 13.6419 97.2416 11.223 95.6869 9.20272C94.1323 7.18238 92.0461 5.64154 89.6655 4.75518C87.2848 3.86881 84.705 3.67246 82.2191 4.18842C79.7331 4.70438 77.4407 5.91198 75.6021 7.67405C73.7636 9.43612 72.4526 11.6821 71.818 14.1568C71.6895 14.6584 71.3683 15.088 70.9252 15.3512C70.482 15.6143 69.9532 15.6894 69.4551 15.56C68.957 15.4305 68.5303 15.1071 68.269 14.6609C68.0076 14.2147 67.933 13.6822 68.0616 13.1806C68.776 10.3926 70.16 7.82407 72.0917 5.70106C74.0233 3.57805 76.4435 1.96558 79.1393 1.00551C81.8351 0.0454459 84.7239 -0.2328 87.5516 0.195253C90.3793 0.623307 93.0591 1.74454 95.3554 3.46032C97.6518 5.1761 99.4942 7.43384 100.721 10.0349C101.947 12.636 102.52 15.5007 102.389 18.377C102.257 21.2533 101.426 24.0531 99.9682 26.5301C98.5102 29.007 96.4701 31.0852 94.0273 32.5818C100.327 34.5086 105.848 38.4172 109.78 43.7345C110.089 44.1487 110.221 44.6694 110.148 45.1819C110.076 45.6945 109.804 46.157 109.392 46.4677C108.981 46.7784 108.464 46.9118 107.955 46.8385C107.446 46.7653 106.987 46.4915 106.678 46.0772C104.162 42.6699 100.886 39.9054 97.1138 38.0064C93.3421 36.1074 89.1802 35.127 84.9633 35.1442C84.4491 35.1442 83.9559 34.9385 83.5923 34.5724C83.2287 34.2063 83.0244 33.7097 83.0244 33.1919C83.0244 32.6741 83.2287 32.1775 83.5923 31.8114C83.9559 31.4453 84.4491 31.2396 84.9633 31.2396Z" fill="#F27B05"/>
</g>
<path id="Vector_2" d="M83.8621 79.0715C84.1187 79.5195 84.1883 80.0517 84.0557 80.5514C83.923 81.051 83.5988 81.4772 83.1544 81.7364C82.8605 81.91 82.5257 82.001 82.185 82C81.845 81.9996 81.5111 81.9093 81.2167 81.7379C80.9223 81.5666 80.6779 81.3203 80.5079 81.0238C77.8948 76.5631 74.1712 72.8658 69.7051 70.2973C65.239 67.7288 60.1847 66.3779 55.0415 66.3779C49.8982 66.3779 44.844 67.7288 40.3778 70.2973C35.9117 72.8658 32.1882 76.5631 29.575 81.0238C29.3068 81.4488 28.8858 81.7529 28.4001 81.8727C27.9144 81.9925 27.4015 81.9187 26.9686 81.6667C26.5356 81.4147 26.2161 81.004 26.0768 80.5204C25.9374 80.0368 25.9891 79.5177 26.2209 79.0715C30.4294 71.7946 37.2151 66.3896 45.2165 63.941C40.9768 61.7251 37.5987 58.1402 35.6234 53.7608C33.6481 49.3814 33.19 44.461 34.3226 39.7881C35.4551 35.1153 38.1128 30.9607 41.8695 27.9899C45.6263 25.0192 50.2648 23.4045 55.0415 23.4045C59.8182 23.4045 64.4566 25.0192 68.2134 27.9899C71.9702 30.9607 74.6278 35.1153 75.7604 39.7881C76.8929 44.461 76.4349 49.3814 74.4596 53.7608C72.4843 58.1402 69.1061 61.7251 64.8665 63.941C72.8678 66.3896 79.6536 71.7946 83.8621 79.0715ZM55.0415 62.4768C58.4926 62.4768 61.8663 61.4462 64.7358 59.5155C67.6054 57.5848 69.8419 54.8406 71.1626 51.6299C72.4833 48.4193 72.8289 44.8864 72.1556 41.4779C71.4823 38.0695 69.8204 34.9387 67.3801 32.4813C64.9397 30.024 61.8305 28.3505 58.4457 27.6726C55.0608 26.9946 51.5523 27.3425 48.3639 28.6724C45.1754 30.0023 42.4502 32.2545 40.5328 35.144C38.6155 38.0335 37.5921 41.4306 37.5921 44.9058C37.5921 49.5659 39.4305 54.0352 42.7029 57.3304C45.9753 60.6255 50.4136 62.4768 55.0415 62.4768Z" fill="#03A447"/>
<g id="Vector_3">
<path d="M55 114C46.7157 114 40 107.284 40 99C40 97.0598 40.3684 95.2056 41.039 93.5035L43.9642 95.2058C43.5553 96.3953 43.3333 97.6717 43.3333 99C43.3333 105.443 48.5567 110.667 55 110.667C58.8233 110.667 62.217 108.828 64.3448 105.986L67.0325 107.958C64.2978 111.625 59.9262 114 55 114Z" fill="#4B5457"/>
<path d="M69.7433 96.2222C69.9119 97.1224 70 98.0509 70 99C70 99.4817 69.9773 99.958 69.9329 100.428C60.9625 97.6698 56.3516 98.7767 48.3333 102.056C55.2369 96.9314 59.4442 94.7162 69.7433 96.2222Z" fill="#4B5457"/>
<path d="M69.5964 102.471C69.2868 103.778 68.8063 105.018 68.1797 106.168C61.6825 102.631 58.7949 102.298 50 102.056C58.9142 99.9036 63.4513 99.411 69.5964 102.471Z" fill="#4B5457"/>
<path d="M41.7388 91.9834C44.2567 87.2347 49.2506 84 55 84C61.531 84 67.0872 88.174 69.1464 94C57.7911 93.897 53.714 96.4131 47.2222 101.778C51.1657 95.3611 54.27 92.5767 63.1649 90.6667C61.0607 88.6047 58.1788 87.3333 55 87.3333C50.4863 87.3333 46.5712 89.8966 44.6311 93.6469L41.7388 91.9834Z" fill="#F27B05"/>
</g>
</g>
<defs>
<clipPath id="clip0_73_961">
<rect width="110" height="114" fill="white"/>
</clipPath>
</defs>
</svg>
