<svg width="110" height="114" viewBox="0 0 110 114" fill="none" xmlns="http://www.w3.org/2000/svg">
<g id="MicrosoftTeamsLogo" clip-path="url(#clip0_73_830)">
<path id="Vector" d="M110 39.8119V72.3175C110.001 77.502 107.957 82.4787 104.31 86.1732C100.663 89.8678 95.7057 91.9838 90.508 92.0645C88.2325 98.4798 84.0189 104.034 78.4474 107.962C72.8759 111.891 66.2205 114 59.3972 114C52.574 114 45.9186 111.891 40.3471 107.962C34.7756 104.034 30.562 98.4798 28.2865 92.0645H6.6C4.84957 92.0645 3.17084 91.371 1.9331 90.1365C0.695355 88.9021 0 87.2279 0 85.4821V32.8237C0 31.0779 0.695355 29.4037 1.9331 28.1693C3.17084 26.9348 4.84957 26.2414 6.6 26.2414H40.7385C39.0738 21.4739 39.303 16.2517 41.3791 11.6476C43.4553 7.04353 47.2206 3.40728 51.9015 1.48601C56.5824 -0.43526 61.8234 -0.495648 66.5475 1.31726C71.2717 3.13016 75.1203 6.67867 77.3025 11.2337C80.4982 9.1471 84.3573 8.31939 88.1306 8.91127C91.9038 9.50316 95.3219 11.4724 97.721 14.4366C100.12 17.4008 101.329 21.1484 101.113 24.9517C100.897 28.755 99.2718 32.3426 96.5525 35.0178H105.182C105.814 35.017 106.44 35.1405 107.024 35.381C107.608 35.6216 108.139 35.9745 108.587 36.4197C109.034 36.8648 109.389 37.3935 109.632 37.9756C109.874 38.5576 109.999 39.1816 110 39.8119ZM78.7765 15.6054C79.5259 19.1633 79.2759 22.8585 78.0541 26.2837C76.8323 29.709 74.6861 32.7313 71.852 35.0178H85.8C87.5659 35.018 89.306 34.5943 90.873 33.7823C92.4401 32.9703 93.7881 31.794 94.8031 30.3528C95.8181 28.9116 96.4702 27.2478 96.7044 25.5022C96.9386 23.7565 96.748 21.9803 96.1486 20.3237C95.5492 18.667 94.5587 17.1787 93.2608 15.9844C91.963 14.7901 90.3958 13.925 88.692 13.4622C86.9881 12.9995 85.1975 12.9526 83.4717 13.3257C81.7458 13.6987 80.1354 14.4807 78.7765 15.6054ZM45.4905 26.2414H59.4C61.1504 26.2414 62.8292 26.9348 64.0669 28.1693C65.3046 29.4037 66 31.0779 66 32.8237V33.5313C68.7524 32.2296 71.056 30.1432 72.6193 27.5357C74.1826 24.9283 74.9354 21.917 74.7825 18.8829C74.6297 15.8487 73.578 12.9278 71.7605 10.4898C69.943 8.05182 67.4413 6.20614 64.5719 5.18624C61.7025 4.16634 58.5943 4.01804 55.6404 4.7601C52.6865 5.50216 50.0196 7.10124 47.977 9.35508C45.9344 11.6089 44.608 14.4163 44.1654 17.422C43.7228 20.4278 44.1839 23.497 45.4905 26.2414ZM6.6 87.6763H59.4C59.9835 87.6763 60.5431 87.4451 60.9556 87.0336C61.3682 86.6221 61.6 86.0641 61.6 85.4821V32.8237C61.6 32.2418 61.3682 31.6837 60.9556 31.2722C60.5431 30.8607 59.9835 30.6296 59.4 30.6296H6.6C6.01652 30.6296 5.45695 30.8607 5.04437 31.2722C4.63179 31.6837 4.4 32.2418 4.4 32.8237V85.4821C4.4 86.0641 4.63179 86.6221 5.04437 87.0336C5.45695 87.4451 6.01652 87.6763 6.6 87.6763ZM88 81.0939V41.6001C88 41.0182 87.7682 40.4601 87.3556 40.0486C86.9431 39.6371 86.3835 39.406 85.8 39.406H66V85.4821C66 87.2279 65.3046 88.9021 64.0669 90.1365C62.8292 91.371 61.1504 92.0645 59.4 92.0645H33C35.5429 98.1511 40.1218 103.171 45.9576 106.27C51.7935 109.37 58.5257 110.357 65.0089 109.063C71.4922 107.77 77.3259 104.277 81.5176 99.1774C85.7093 94.0781 88 87.6878 88 81.0939ZM105.6 39.8119C105.6 39.7042 105.557 39.601 105.481 39.5249C105.404 39.4487 105.301 39.406 105.193 39.406H91.993C92.2475 40.1097 92.3778 40.852 92.378 41.6001V81.0939C92.3779 83.2785 92.1605 85.4577 91.729 87.5995C95.5296 87.2213 99.0537 85.448 101.617 82.624C104.18 79.8 105.6 76.1268 105.6 72.3175V39.8119Z" fill="#F27B05"/>
<path id="Vector_2" fill-rule="evenodd" clip-rule="evenodd" d="M28.2865 92.0644H6.6C4.84957 92.0644 3.17084 91.3709 1.9331 90.1365C0.695355 88.9021 0 87.2279 0 85.4821V32.8236C0 31.0779 0.695355 29.4037 1.9331 28.1692C3.17084 26.9348 4.84957 26.2413 6.6 26.2413H40.7385H45.4905H59.4C61.1504 26.2413 62.8292 26.9348 64.0669 28.1692C65.3046 29.4037 66 31.0779 66 32.8236V33.5312V39.406V85.4821C66 87.2279 65.3046 88.9021 64.0669 90.1365C62.8292 91.3709 61.1504 92.0644 59.4 92.0644H33H28.2865ZM59.4 87.6762H6.6C6.01652 87.6762 5.45695 87.4451 5.04437 87.0336C4.63179 86.6221 4.4 86.064 4.4 85.4821V32.8236C4.4 32.2417 4.63179 31.6836 5.04437 31.2722C5.45695 30.8607 6.01652 30.6295 6.6 30.6295H59.4C59.9835 30.6295 60.5431 30.8607 60.9556 31.2722C61.3682 31.6836 61.6 32.2417 61.6 32.8236V85.4821C61.6 86.064 61.3682 86.6221 60.9556 87.0336C60.5431 87.4451 59.9835 87.6762 59.4 87.6762Z" fill="#03A447"/>
<g id="Vector_3">
<path d="M33 72C24.7157 72 18 65.2843 18 57C18 55.0598 18.3684 53.2056 19.039 51.5035L21.9642 53.2058C21.5553 54.3953 21.3333 55.6717 21.3333 57C21.3333 63.4433 26.5567 68.6667 33 68.6667C36.8233 68.6667 40.217 66.8276 42.3448 63.9859L45.0325 65.9581C42.2978 69.6253 37.9262 72 33 72Z" fill="#4B5457"/>
<path d="M47.7433 54.2222C47.9119 55.1224 48 56.0509 48 57C48 57.4817 47.9773 57.958 47.9329 58.4281C38.9625 55.6698 34.3516 56.7767 26.3333 60.0556C33.2369 54.9314 37.4442 52.7162 47.7433 54.2222Z" fill="#4B5457"/>
<path d="M47.5964 60.471C47.2868 61.7778 46.8063 63.0185 46.1797 64.1681C39.6825 60.6305 36.7949 60.2976 28 60.0556C36.9142 57.9036 41.4513 57.411 47.5964 60.471Z" fill="#4B5457"/>
<path d="M19.7388 49.9834C22.2567 45.2347 27.2506 42 33 42C39.531 42 45.0872 46.174 47.1464 52C35.7911 51.897 31.714 54.4131 25.2222 59.7778C29.1657 53.3611 32.27 50.5767 41.1649 48.6667C39.0607 46.6047 36.1788 45.3333 33 45.3333C28.4863 45.3333 24.5712 47.8966 22.6311 51.6469L19.7388 49.9834Z" fill="#F27B05"/>
</g>
</g>
<defs>
<clipPath id="clip0_73_830">
<rect width="110" height="114" fill="white"/>
</clipPath>
</defs>
</svg>
