<svg width="146" height="38" viewBox="0 0 146 38" fill="none" xmlns="http://www.w3.org/2000/svg">
<g id="logo" clip-path="url(#clip0_154_50)">
<g id="&#208;&#163;&#208;&#191;&#209;&#128;&#208;&#176;&#208;&#178;&#208;&#187;&#209;&#143;&#209;&#142;&#209;&#137;&#208;&#176;&#209;&#143; &#208;&#186;&#208;&#190;&#208;&#188;&#208;&#191;&#208;&#176;&#208;&#189;&#208;&#184;&#209;&#143;">
<path d="M44.4063 8L44.3459 8.2351C44.2833 8.2394 44.2073 8.25228 44.1179 8.27375C44.0307 8.29522 43.9524 8.32421 43.8831 8.36071C43.7937 8.40794 43.7188 8.46269 43.6584 8.52496C43.6003 8.58508 43.5287 8.66989 43.4437 8.77939C43.1956 9.1036 42.877 9.5416 42.4879 10.0934C42.1011 10.643 41.8161 11.0381 41.6327 11.2786C41.389 11.6006 41.1766 11.854 40.9955 12.0386C40.8166 12.2211 40.6534 12.3596 40.5058 12.4541C40.3717 12.5421 40.2442 12.6023 40.1235 12.6345C40.005 12.6667 39.8876 12.6828 39.7714 12.6828C39.5567 12.6828 39.3745 12.6237 39.2247 12.5056C39.0749 12.3875 39 12.248 39 12.087C39 12.0225 39.0067 11.9624 39.0201 11.9066C39.0358 11.8508 39.0682 11.7896 39.1174 11.723C39.1554 11.6694 39.2113 11.6243 39.2851 11.5878C39.3611 11.5513 39.4516 11.533 39.5567 11.533C39.6998 11.533 39.8351 11.577 39.9625 11.6651C40.0922 11.7509 40.2375 11.8937 40.3985 12.0934C40.5126 12.0333 40.6266 11.9452 40.7406 11.8293C40.8546 11.7112 40.953 11.5942 41.0357 11.4783C40.7652 10.8685 40.507 10.2941 40.261 9.75523C40.0151 9.21417 39.8452 8.85239 39.7512 8.66989C39.7199 8.60762 39.6864 8.5518 39.6506 8.50242C39.6149 8.45089 39.55 8.39936 39.4561 8.34783C39.3957 8.31777 39.3287 8.29308 39.2549 8.27375C39.1811 8.25228 39.1129 8.2394 39.0503 8.2351L39.1107 8H41.6864L41.626 8.2351C41.436 8.24155 41.275 8.26087 41.1431 8.29308C41.0134 8.32313 40.9485 8.36071 40.9485 8.4058C40.9485 8.43586 40.9552 8.46806 40.9687 8.50242C40.9821 8.53462 40.9921 8.55824 40.9988 8.57327C41.0503 8.6978 41.1531 8.92968 41.3074 9.26892C41.4639 9.60816 41.6428 9.99678 41.844 10.4348C42.0095 10.2008 42.1648 9.97531 42.3102 9.75845C42.4555 9.53945 42.5964 9.32474 42.7327 9.11433C42.8535 8.92968 42.9396 8.78583 42.991 8.68277C43.0424 8.57971 43.0681 8.50993 43.0681 8.47343C43.0681 8.41331 43.0133 8.36393 42.9038 8.32528C42.7942 8.28663 42.6388 8.25658 42.4376 8.2351L42.498 8H44.4063Z" fill="#F27B05"/>
<path d="M48.8628 12.0773L48.789 12.3671C48.5676 12.4509 48.391 12.5153 48.2591 12.5604C48.1272 12.6033 47.974 12.6248 47.7996 12.6248C47.5336 12.6248 47.3267 12.5615 47.1792 12.4348C47.0316 12.306 46.9578 12.1471 46.9578 11.9581C46.9578 11.9066 46.9601 11.8411 46.9645 11.7617C46.9712 11.6801 46.9903 11.5792 47.0216 11.4589L47.263 10.6023C47.2876 10.5099 47.3055 10.4273 47.3167 10.3543C47.3301 10.2791 47.3368 10.2179 47.3368 10.1707C47.3368 10.0676 47.3111 9.98712 47.2597 9.92915C47.2082 9.87118 47.121 9.84219 46.9981 9.84219C46.9221 9.84219 46.8136 9.87118 46.6728 9.92915C46.5319 9.98497 46.3743 10.0902 46.1999 10.2448L45.6465 12.57H44.5364L45.0126 10.5894C45.0261 10.5293 45.0428 10.4509 45.0629 10.3543C45.0853 10.2576 45.0965 10.1771 45.0965 10.1127C45.0965 9.99034 45.0697 9.9066 45.016 9.86151C44.9646 9.81428 44.8695 9.79066 44.7309 9.79066C44.6594 9.79066 44.5856 9.8014 44.5096 9.82287C44.4358 9.84434 44.3721 9.86473 44.3184 9.88406L44.3922 9.5942C44.5733 9.52335 44.7466 9.46323 44.912 9.41385C45.0775 9.36232 45.234 9.33655 45.3816 9.33655C45.6454 9.33655 45.8421 9.38701 45.9718 9.48792C46.1037 9.58669 46.1909 9.72625 46.2334 9.9066H46.2569C46.476 9.71551 46.7018 9.56736 46.9344 9.46216C47.1691 9.3548 47.4184 9.30113 47.6822 9.30113C47.9304 9.30113 48.1238 9.36661 48.2624 9.49758C48.4033 9.62856 48.4737 9.78744 48.4737 9.97424C48.4737 10.0236 48.4693 10.0934 48.4603 10.1836C48.4536 10.2716 48.4357 10.3661 48.4067 10.467L48.1518 11.372C48.1294 11.4471 48.1093 11.533 48.0914 11.6296C48.0735 11.7262 48.0646 11.7992 48.0646 11.8486C48.0646 11.9732 48.0925 12.058 48.1484 12.1031C48.2066 12.1481 48.3072 12.1707 48.4503 12.1707C48.5173 12.1707 48.5934 12.16 48.6783 12.1385C48.7633 12.1149 48.8248 12.0945 48.8628 12.0773Z" fill="#F27B05"/>
<path d="M53.9833 10.5346C53.9833 10.8223 53.9297 11.0972 53.8223 11.3591C53.7172 11.6189 53.573 11.8443 53.3897 12.0354C53.1996 12.233 52.9861 12.3854 52.7491 12.4928C52.5121 12.6001 52.2505 12.6538 51.9643 12.6538C51.7497 12.6538 51.5764 12.6334 51.4445 12.5926C51.3148 12.5539 51.2019 12.4981 51.1058 12.4251L50.9012 13.2818C50.8945 13.3076 50.8878 13.3376 50.8811 13.372C50.8744 13.4085 50.871 13.4342 50.871 13.4493C50.871 13.4987 50.8822 13.5437 50.9046 13.5845C50.9269 13.6253 50.9604 13.6554 51.0052 13.6747C51.0544 13.6962 51.1337 13.7166 51.2433 13.7359C51.3528 13.7574 51.4434 13.7703 51.5149 13.7746L51.4613 14H49.0399L49.0935 13.7746C49.1516 13.7703 49.2243 13.7617 49.3115 13.7488C49.3987 13.7381 49.4647 13.7262 49.5094 13.7134C49.5854 13.6897 49.6435 13.6522 49.6838 13.6006C49.724 13.5513 49.7531 13.4836 49.771 13.3977L50.435 10.5894C50.4484 10.5271 50.4652 10.4477 50.4853 10.351C50.5077 10.2544 50.5189 10.175 50.5189 10.1127C50.5189 9.99893 50.4943 9.91734 50.4451 9.86795C50.3959 9.81643 50.2986 9.79066 50.1533 9.79066C50.0862 9.79066 50.0136 9.8014 49.9353 9.82287C49.8571 9.84434 49.7922 9.86473 49.7408 9.88406L49.8146 9.5942C49.9957 9.52335 50.169 9.46323 50.3344 9.41385C50.4999 9.36232 50.6564 9.33655 50.8039 9.33655C50.9269 9.33655 51.0353 9.34836 51.1293 9.37198C51.2232 9.39345 51.3059 9.42888 51.3774 9.47826C51.4378 9.51906 51.487 9.56844 51.525 9.62641C51.5652 9.68438 51.5988 9.74342 51.6256 9.80354H51.6524C51.8581 9.63178 52.0582 9.5051 52.2528 9.42351C52.4473 9.34192 52.634 9.30113 52.8128 9.30113C53.2019 9.30113 53.4937 9.4117 53.6882 9.63285C53.8849 9.85185 53.9833 10.1524 53.9833 10.5346ZM52.4909 11.8035C52.587 11.6167 52.6597 11.4203 52.7089 11.2142C52.7581 11.0081 52.7827 10.7772 52.7827 10.5217C52.7827 10.4165 52.7748 10.3199 52.7592 10.2319C52.7435 10.1417 52.7156 10.0644 52.6753 10C52.6351 9.93344 52.5803 9.88191 52.511 9.84541C52.4439 9.80891 52.359 9.79066 52.2561 9.79066C52.1376 9.79066 52.0214 9.82609 51.9073 9.89694C51.7933 9.96779 51.7095 10.0344 51.6558 10.0966L51.2399 11.8647C51.2399 12.0129 51.2846 12.1363 51.3741 12.2351C51.4635 12.3317 51.5921 12.38 51.7598 12.38C51.8984 12.38 52.0314 12.3285 52.1589 12.2254C52.2885 12.1224 52.3992 11.9817 52.4909 11.8035Z" fill="#F27B05"/>
<path d="M57.4404 12.1675H57.4136C57.3353 12.2319 57.2604 12.2909 57.1888 12.3446C57.1195 12.3983 57.0312 12.452 56.9239 12.5056C56.83 12.5529 56.7305 12.5915 56.6254 12.6216C56.5226 12.6538 56.4085 12.6699 56.2833 12.6699C55.8943 12.6699 55.6014 12.5604 55.4046 12.3414C55.2079 12.1202 55.1095 11.8186 55.1095 11.4364C55.1095 11.1422 55.1643 10.8663 55.2738 10.6087C55.3834 10.351 55.5299 10.1245 55.7132 9.92915C55.8988 9.73591 56.1156 9.58347 56.3638 9.47182C56.612 9.35802 56.8736 9.30113 57.1486 9.30113C57.3498 9.30113 57.5253 9.32367 57.6751 9.36876C57.8272 9.41385 57.9513 9.47504 58.0474 9.55233L59.077 9.34944L59.124 9.40097L58.631 11.3816C58.6131 11.4482 58.5941 11.5319 58.574 11.6329C58.5538 11.7316 58.5438 11.8068 58.5438 11.8583C58.5438 11.9807 58.5728 12.0655 58.631 12.1127C58.6891 12.1578 58.7897 12.1804 58.9328 12.1804C58.9954 12.1804 59.0703 12.1685 59.1575 12.1449C59.2469 12.1213 59.3096 12.102 59.3453 12.087L59.2715 12.3768C59.0502 12.4605 58.8724 12.525 58.7383 12.57C58.6064 12.613 58.4532 12.6345 58.2788 12.6345C58.0485 12.6345 57.8641 12.5915 57.7255 12.5056C57.5891 12.4176 57.494 12.3049 57.4404 12.1675ZM57.8395 10.1256C57.8395 10.0784 57.8328 10.0225 57.8194 9.95813C57.8059 9.89372 57.7825 9.83897 57.7489 9.79388C57.7087 9.73806 57.6561 9.69619 57.5913 9.66828C57.5265 9.63822 57.446 9.62319 57.3498 9.62319C57.2023 9.62319 57.0659 9.67472 56.9407 9.77778C56.8177 9.87869 56.7081 10.014 56.612 10.1836C56.5181 10.351 56.4443 10.5464 56.3907 10.7697C56.337 10.9909 56.3102 11.2174 56.3102 11.4493C56.3102 11.5545 56.318 11.6522 56.3336 11.7424C56.3515 11.8325 56.3795 11.9087 56.4175 11.971C56.4577 12.0376 56.5114 12.0891 56.5785 12.1256C56.6478 12.1621 56.7339 12.1804 56.8367 12.1804C56.9418 12.1804 57.0424 12.1514 57.1385 12.0934C57.2369 12.0333 57.3275 11.9603 57.4102 11.8744L57.8395 10.1256Z" fill="#F27B05"/>
<path d="M64.0198 9.98068C64.0198 10.234 63.9259 10.4294 63.7381 10.5668C63.5525 10.7042 63.2831 10.7955 62.9298 10.8406L62.9265 10.876C63.206 10.8782 63.4441 10.9383 63.6408 11.0564C63.8376 11.1744 63.936 11.3419 63.936 11.5588C63.936 11.9152 63.7672 12.1911 63.4295 12.3865C63.0919 12.5797 62.6056 12.6763 61.9707 12.6763C61.4229 12.6763 61.0148 12.57 60.7465 12.3575C60.4805 12.1449 60.3474 11.7896 60.3474 11.2915C60.3474 11.0209 60.3921 10.7676 60.4816 10.5314C60.571 10.2931 60.7119 10.0805 60.9042 9.89372C61.0942 9.71122 61.3379 9.56736 61.6353 9.46216C61.9349 9.3548 62.2881 9.30113 62.6951 9.30113C63.1199 9.30113 63.4463 9.36017 63.6744 9.47826C63.9047 9.59635 64.0198 9.76382 64.0198 9.98068ZM62.846 10.0225C62.846 9.8701 62.8147 9.75416 62.7521 9.67472C62.6895 9.59528 62.5945 9.55556 62.467 9.55556C62.2077 9.55556 61.9997 9.6672 61.8432 9.8905C61.6867 10.1138 61.5872 10.4305 61.5447 10.8406L61.9975 10.7762C62.3418 10.7246 62.5687 10.6345 62.6783 10.5056C62.7901 10.3768 62.846 10.2158 62.846 10.0225ZM62.6381 12.1353C62.685 12.0451 62.7163 11.9528 62.732 11.8583C62.7476 11.7638 62.7554 11.6683 62.7554 11.5717C62.7554 11.4171 62.7085 11.2893 62.6146 11.1884C62.5229 11.0853 62.3709 11.0338 62.1585 11.0338C62.0221 11.0338 61.9013 11.0446 61.7963 11.066C61.6934 11.0853 61.5973 11.1025 61.5078 11.1176C61.5034 11.1562 61.5 11.2013 61.4978 11.2528C61.4955 11.3043 61.4944 11.3548 61.4944 11.4042C61.4944 11.7627 61.5391 12.0225 61.6286 12.1836C61.7202 12.3425 61.8913 12.4219 62.1417 12.4219C62.2669 12.4219 62.3698 12.3951 62.4502 12.3414C62.533 12.2856 62.5956 12.2169 62.6381 12.1353Z" fill="#F27B05"/>
<path d="M69.1806 12.3704C68.9592 12.4541 68.7826 12.5185 68.6507 12.5636C68.5188 12.6065 68.3656 12.628 68.1912 12.628C67.9475 12.628 67.7463 12.5679 67.5876 12.4477C67.431 12.3253 67.3528 12.1621 67.3528 11.9581C67.3528 11.8465 67.3561 11.7595 67.3629 11.6973C67.3696 11.6329 67.3863 11.5523 67.4132 11.4557L67.6211 10.7085C67.6748 10.511 67.7116 10.3586 67.7318 10.2512C67.7541 10.1417 67.7653 10.0483 67.7653 9.97101C67.7653 9.90875 67.7385 9.86151 67.6848 9.82931C67.6334 9.79495 67.5585 9.77778 67.4601 9.77778C67.3819 9.77778 67.3103 9.79281 67.2455 9.82287C67.1829 9.85078 67.1136 9.90982 67.0375 10C66.9638 10.0902 66.8922 10.2093 66.8229 10.3575C66.7536 10.5035 66.6753 10.6999 66.5881 10.9469C66.5054 11.1852 66.4204 11.4085 66.3332 11.6167C66.246 11.8229 66.1499 12 66.0448 12.1481C65.9308 12.3092 65.8145 12.4305 65.696 12.5121C65.5798 12.5915 65.4333 12.6312 65.2567 12.6312C65.1114 12.6312 64.9906 12.5915 64.8945 12.5121C64.7983 12.4305 64.7503 12.3135 64.7503 12.161C64.7503 11.9785 64.8006 11.8347 64.9012 11.7295C65.0018 11.6243 65.127 11.5717 65.2768 11.5717C65.3864 11.5717 65.4825 11.5974 65.5652 11.649C65.648 11.6983 65.7206 11.7531 65.7832 11.8132C65.8727 11.6779 65.9587 11.5072 66.0415 11.3011C66.1242 11.0929 66.1767 10.9554 66.1991 10.8889C66.2662 10.7064 66.3388 10.5207 66.4171 10.3317C66.4953 10.1428 66.5971 9.97209 66.7223 9.81965C66.8475 9.6672 67.0085 9.54267 67.2052 9.44605C67.4042 9.34944 67.6546 9.30113 67.9565 9.30113C68.2538 9.30113 68.4886 9.35051 68.6608 9.44928C68.8329 9.54589 68.919 9.66613 68.919 9.80998C68.919 9.89372 68.9123 9.97746 68.8989 10.0612C68.8855 10.1428 68.8653 10.2297 68.8385 10.3221L68.5434 11.3752C68.5233 11.4461 68.5043 11.5298 68.4864 11.6264C68.4685 11.7209 68.4595 11.796 68.4595 11.8519C68.4595 11.9764 68.4875 12.0612 68.5434 12.1063C68.5993 12.1514 68.6988 12.1739 68.8419 12.1739C68.9089 12.1739 68.985 12.1632 69.0699 12.1417C69.1549 12.1181 69.2164 12.0977 69.2544 12.0805L69.1806 12.3704Z" fill="#F27B05"/>
<path d="M72.5303 9.55556C72.4364 9.55556 72.3459 9.57059 72.2587 9.60064C72.1737 9.6307 72.0955 9.67687 72.0239 9.73913C71.9546 9.8014 71.8987 9.88191 71.8562 9.98068C71.816 10.0794 71.7959 10.1943 71.7959 10.3253C71.7959 10.4992 71.8451 10.6398 71.9434 10.7472C72.0418 10.8545 72.1961 10.9082 72.4063 10.9082H72.6645L72.7685 10.5443C72.8132 10.3768 72.849 10.2211 72.8758 10.0773C72.9026 9.93344 72.916 9.83253 72.916 9.77456C72.916 9.71229 72.8814 9.66076 72.8121 9.61997C72.7428 9.57703 72.6488 9.55556 72.5303 9.55556ZM74.0161 9.85185C74.0161 9.93773 74.0071 10.0258 73.9892 10.1159C73.9713 10.2061 73.9557 10.2748 73.9423 10.3221L73.6438 11.3752C73.6237 11.4461 73.6047 11.5298 73.5868 11.6264C73.5689 11.7209 73.56 11.796 73.56 11.8519C73.56 11.9764 73.5879 12.0612 73.6438 12.1063C73.6997 12.1514 73.7992 12.1739 73.9423 12.1739C74.0094 12.1739 74.0854 12.1632 74.1703 12.1417C74.2553 12.1181 74.3168 12.0977 74.3548 12.0805L74.281 12.3704C74.0597 12.4541 73.883 12.5185 73.7511 12.5636C73.6192 12.6065 73.466 12.628 73.2917 12.628C73.0479 12.628 72.8467 12.5679 72.688 12.4477C72.5315 12.3253 72.4532 12.1621 72.4532 11.9581C72.4532 11.8465 72.4577 11.7585 72.4666 11.694C72.4756 11.6275 72.4923 11.5459 72.5169 11.4493L72.5941 11.1787H72.3861C72.2743 11.1787 72.1883 11.1873 72.1279 11.2045C72.0675 11.2217 71.9937 11.2625 71.9065 11.3269C71.8171 11.3935 71.7411 11.4675 71.6785 11.5491C71.6159 11.6286 71.5578 11.7091 71.5041 11.7907C71.4571 11.8615 71.399 11.9506 71.3297 12.058C71.2626 12.1632 71.1877 12.2598 71.105 12.3478C71.0021 12.4616 70.9049 12.5368 70.8132 12.5733C70.7215 12.6119 70.6098 12.6312 70.4778 12.6312C70.3057 12.6312 70.1715 12.5904 70.0754 12.5089C69.9815 12.4251 69.9345 12.3103 69.9345 12.1643C69.9345 11.9817 69.9848 11.8379 70.0854 11.7327C70.1883 11.6275 70.3146 11.5749 70.4644 11.5749C70.5717 11.5749 70.6724 11.6028 70.7663 11.6586C70.8624 11.7144 70.9418 11.766 71.0044 11.8132C71.067 11.7016 71.1408 11.5867 71.2257 11.4686C71.3107 11.3505 71.4214 11.256 71.5578 11.1852V11.1562C71.2559 11.1304 71.0234 11.0403 70.8602 10.8857C70.6992 10.7311 70.6187 10.5443 70.6187 10.3253C70.6187 10.0054 70.7853 9.75523 71.1184 9.57488C71.4538 9.39238 71.9501 9.30113 72.6075 9.30113C73.0927 9.30113 73.4482 9.35373 73.674 9.45894C73.902 9.562 74.0161 9.69297 74.0161 9.85185Z" fill="#F27B05"/>
<path d="M79.8208 11.6747C79.899 11.4686 79.9583 11.241 79.9985 10.9919C80.0388 10.7407 80.0589 10.5024 80.0589 10.277C80.0589 10.0236 80.0209 9.83897 79.9449 9.72303C79.8688 9.60494 79.747 9.54589 79.5793 9.54589C79.4071 9.54589 79.254 9.61245 79.1198 9.74557C78.9857 9.87869 78.8728 10.0719 78.7811 10.3253C78.6961 10.5593 78.638 10.7998 78.6067 11.0467C78.5776 11.2936 78.5631 11.5051 78.5631 11.6812C78.5631 11.9259 78.6 12.1106 78.6738 12.2351C78.7498 12.3596 78.875 12.4219 79.0494 12.4219C79.2216 12.4219 79.3725 12.3532 79.5022 12.2158C79.6318 12.0784 79.738 11.898 79.8208 11.6747ZM77.4966 11.037H76.9399L76.571 12.57H75.4609L75.9371 10.5894C75.9505 10.5293 75.9673 10.4509 75.9874 10.3543C76.0098 10.2576 76.021 10.1771 76.021 10.1127C76.021 9.99034 75.9941 9.9066 75.9405 9.86151C75.889 9.81428 75.794 9.79066 75.6554 9.79066C75.5838 9.79066 75.5101 9.8014 75.434 9.82287C75.3603 9.84434 75.2965 9.86473 75.2429 9.88406L75.3167 9.5942C75.4978 9.52335 75.671 9.46323 75.8365 9.41385C76.0019 9.36232 76.1585 9.33655 76.306 9.33655C76.581 9.33655 76.7878 9.40097 76.9265 9.52979C77.0651 9.65862 77.1344 9.81857 77.1344 10.0097C77.1344 10.0848 77.1299 10.161 77.121 10.2383C77.112 10.3156 77.0942 10.4047 77.0673 10.5056L77.0137 10.7279H77.5637C77.6911 10.3006 77.9449 9.95491 78.325 9.69082C78.7073 9.42673 79.1634 9.29469 79.6933 9.29469C79.9527 9.29469 80.1796 9.32904 80.3741 9.39775C80.5687 9.4643 80.7285 9.55663 80.8537 9.67472C80.9834 9.7971 81.0796 9.93881 81.1422 10.0998C81.2048 10.2587 81.2361 10.4391 81.2361 10.6409C81.2361 10.9007 81.1824 11.1583 81.0751 11.4138C80.9678 11.6672 80.8213 11.883 80.6357 12.0612C80.43 12.2566 80.1886 12.4079 79.9113 12.5153C79.6363 12.6205 79.3311 12.6731 78.9957 12.6731C78.5374 12.6731 78.1696 12.5518 77.8924 12.3092C77.6173 12.0644 77.4798 11.7316 77.4798 11.3108C77.4798 11.2593 77.481 11.2142 77.4832 11.1755C77.4877 11.1347 77.4921 11.0886 77.4966 11.037Z" fill="#F27B05"/>
<path d="M87.7384 12.628C87.4991 12.628 87.3147 12.584 87.185 12.496C87.0553 12.4058 86.9603 12.2598 86.8999 12.058H86.8764C86.6417 12.2662 86.4326 12.4198 86.2493 12.5185C86.0659 12.6151 85.8412 12.6634 85.5752 12.6634C85.3359 12.6634 85.1448 12.6044 85.0017 12.4863C84.8608 12.3661 84.7815 12.2201 84.7636 12.0483H84.7401C84.4584 12.2802 84.2303 12.4412 84.0559 12.5314C83.8838 12.6194 83.6736 12.6634 83.4254 12.6634C83.1683 12.6634 82.9715 12.598 82.8351 12.467C82.701 12.336 82.6339 12.1771 82.6339 11.9903C82.6339 11.9259 82.6373 11.8594 82.644 11.7907C82.6529 11.7198 82.6742 11.6221 82.7077 11.4976L82.9592 10.5926C82.9816 10.511 83.0017 10.4283 83.0196 10.3446C83.0375 10.2587 83.0464 10.1825 83.0464 10.1159C83.0464 9.99141 83.0174 9.9066 82.9592 9.86151C82.9033 9.81643 82.8038 9.79388 82.6608 9.79388C82.5803 9.79388 82.502 9.80676 82.426 9.83253C82.3522 9.85829 82.2985 9.87654 82.265 9.88728L82.3388 9.59742C82.5199 9.52657 82.6921 9.46645 82.8553 9.41707C83.0185 9.36554 83.1739 9.33977 83.3214 9.33977C83.592 9.33977 83.7977 9.40419 83.9385 9.53301C84.0816 9.66184 84.1532 9.81965 84.1532 10.0064C84.1532 10.0451 84.1487 10.1159 84.1398 10.219C84.1308 10.3221 84.1129 10.4176 84.0861 10.5056L83.8413 11.3623C83.8189 11.4375 83.801 11.5191 83.7876 11.6071C83.7742 11.693 83.7675 11.7552 83.7675 11.7939C83.7675 11.9141 83.7966 11.9989 83.8547 12.0483C83.9151 12.0977 84 12.1224 84.1096 12.1224C84.1722 12.1224 84.2516 12.0945 84.3477 12.0386C84.4461 11.9828 84.5881 11.8765 84.7736 11.7198L85.327 9.39452L86.3901 9.34944L86.4304 9.39452L85.9609 11.3591C85.9385 11.4493 85.9206 11.5352 85.9072 11.6167C85.896 11.6962 85.8904 11.7552 85.8904 11.7939C85.8904 11.8604 85.9016 11.9173 85.924 11.9646C85.9463 12.0097 85.9754 12.044 86.0112 12.0676C86.0492 12.0913 86.0872 12.1063 86.1252 12.1127C86.1632 12.1192 86.2012 12.1224 86.2392 12.1224C86.3175 12.1224 86.4047 12.0945 86.5008 12.0386C86.5992 11.9828 86.7412 11.8765 86.9267 11.7198L87.4801 9.39452L88.5433 9.34944L88.5835 9.39452L88.1073 11.3752C88.0916 11.4375 88.0737 11.5191 88.0536 11.62C88.0335 11.7187 88.0234 11.796 88.0234 11.8519C88.0234 11.9742 88.048 12.059 88.0972 12.1063C88.1464 12.1514 88.2437 12.1739 88.389 12.1739C88.4561 12.1739 88.5321 12.1632 88.6171 12.1417C88.702 12.1181 88.7635 12.0977 88.8015 12.0805L88.7277 12.3704L88.5567 12.4444C88.4404 12.4938 88.3599 12.5529 88.3152 12.6216C88.2727 12.6924 88.2437 12.7944 88.228 12.9275L88.1777 13.3591C88.1598 13.5115 88.1062 13.6307 88.0167 13.7166C87.9273 13.8025 87.8222 13.8658 87.7015 13.9066C87.574 13.9495 87.4388 13.9753 87.2957 13.9839C87.1548 13.9946 87.0072 14 86.853 14L86.7658 13.7391C86.9491 13.737 87.0855 13.7048 87.1749 13.6425C87.2666 13.5824 87.3247 13.5051 87.3493 13.4106L87.413 13.1562C87.4466 13.0231 87.5315 12.9136 87.6679 12.8277C87.8066 12.744 87.906 12.6817 87.9664 12.6409L87.9597 12.6087C87.9418 12.613 87.9083 12.6173 87.8591 12.6216C87.8121 12.6259 87.7719 12.628 87.7384 12.628Z" fill="#F27B05"/>
<path d="M92.1345 12.1675H92.1077C92.0294 12.2319 91.9545 12.2909 91.883 12.3446C91.8136 12.3983 91.7253 12.452 91.618 12.5056C91.5241 12.5529 91.4246 12.5915 91.3195 12.6216C91.2167 12.6538 91.1026 12.6699 90.9774 12.6699C90.5884 12.6699 90.2955 12.5604 90.0987 12.3414C89.902 12.1202 89.8036 11.8186 89.8036 11.4364C89.8036 11.1422 89.8584 10.8663 89.9679 10.6087C90.0775 10.351 90.224 10.1245 90.4073 9.92915C90.5929 9.73591 90.8097 9.58347 91.0579 9.47182C91.3061 9.35802 91.5677 9.30113 91.8427 9.30113C92.0439 9.30113 92.2194 9.32367 92.3693 9.36876C92.5213 9.41385 92.6454 9.47504 92.7415 9.55233L93.7711 9.34944L93.8181 9.40097L93.3251 11.3816C93.3072 11.4482 93.2882 11.5319 93.2681 11.6329C93.2479 11.7316 93.2379 11.8068 93.2379 11.8583C93.2379 11.9807 93.2669 12.0655 93.3251 12.1127C93.3832 12.1578 93.4838 12.1804 93.6269 12.1804C93.6895 12.1804 93.7644 12.1685 93.8516 12.1449C93.9411 12.1213 94.0037 12.102 94.0394 12.087L93.9656 12.3768C93.7443 12.4605 93.5665 12.525 93.4324 12.57C93.3005 12.613 93.1473 12.6345 92.9729 12.6345C92.7426 12.6345 92.5582 12.5915 92.4196 12.5056C92.2832 12.4176 92.1881 12.3049 92.1345 12.1675ZM92.5336 10.1256C92.5336 10.0784 92.5269 10.0225 92.5135 9.95813C92.5 9.89372 92.4766 9.83897 92.443 9.79388C92.4028 9.73806 92.3502 9.69619 92.2854 9.66828C92.2206 9.63822 92.1401 9.62319 92.0439 9.62319C91.8964 9.62319 91.76 9.67472 91.6348 9.77778C91.5118 9.87869 91.4022 10.014 91.3061 10.1836C91.2122 10.351 91.1384 10.5464 91.0848 10.7697C91.0311 10.9909 91.0043 11.2174 91.0043 11.4493C91.0043 11.5545 91.0121 11.6522 91.0277 11.7424C91.0456 11.8325 91.0736 11.9087 91.1116 11.971C91.1518 12.0376 91.2055 12.0891 91.2726 12.1256C91.3419 12.1621 91.428 12.1804 91.5308 12.1804C91.6359 12.1804 91.7365 12.1514 91.8326 12.0934C91.931 12.0333 92.0216 11.9603 92.1043 11.8744L92.5336 10.1256Z" fill="#F27B05"/>
<path d="M97.2919 9.55556C97.198 9.55556 97.1075 9.57059 97.0203 9.60064C96.9353 9.6307 96.857 9.67687 96.7855 9.73913C96.7162 9.8014 96.6603 9.88191 96.6178 9.98068C96.5776 10.0794 96.5574 10.1943 96.5574 10.3253C96.5574 10.4992 96.6066 10.6398 96.705 10.7472C96.8034 10.8545 96.9577 10.9082 97.1678 10.9082H97.4261L97.53 10.5443C97.5748 10.3768 97.6105 10.2211 97.6374 10.0773C97.6642 9.93344 97.6776 9.83253 97.6776 9.77456C97.6776 9.71229 97.6429 9.66076 97.5736 9.61997C97.5043 9.57703 97.4104 9.55556 97.2919 9.55556ZM98.7776 9.85185C98.7776 9.93773 98.7687 10.0258 98.7508 10.1159C98.7329 10.2061 98.7173 10.2748 98.7039 10.3221L98.4054 11.3752C98.3852 11.4461 98.3662 11.5298 98.3484 11.6264C98.3305 11.7209 98.3215 11.796 98.3215 11.8519C98.3215 11.9764 98.3495 12.0612 98.4054 12.1063C98.4613 12.1514 98.5608 12.1739 98.7039 12.1739C98.7709 12.1739 98.847 12.1632 98.9319 12.1417C99.0169 12.1181 99.0784 12.0977 99.1164 12.0805L99.0426 12.3704C98.8212 12.4541 98.6446 12.5185 98.5127 12.5636C98.3808 12.6065 98.2276 12.628 98.0532 12.628C97.8095 12.628 97.6083 12.5679 97.4495 12.4477C97.293 12.3253 97.2148 12.1621 97.2148 11.9581C97.2148 11.8465 97.2193 11.7585 97.2282 11.694C97.2371 11.6275 97.2539 11.5459 97.2785 11.4493L97.3556 11.1787H97.1477C97.0359 11.1787 96.9498 11.1873 96.8895 11.2045C96.8291 11.2217 96.7553 11.2625 96.6681 11.3269C96.5787 11.3935 96.5027 11.4675 96.4401 11.5491C96.3775 11.6286 96.3193 11.7091 96.2657 11.7907C96.2187 11.8615 96.1606 11.9506 96.0913 12.058C96.0242 12.1632 95.9493 12.2598 95.8666 12.3478C95.7637 12.4616 95.6665 12.5368 95.5748 12.5733C95.4831 12.6119 95.3713 12.6312 95.2394 12.6312C95.0672 12.6312 94.9331 12.5904 94.837 12.5089C94.743 12.4251 94.6961 12.3103 94.6961 12.1643C94.6961 11.9817 94.7464 11.8379 94.847 11.7327C94.9499 11.6275 95.0762 11.5749 95.226 11.5749C95.3333 11.5749 95.4339 11.6028 95.5278 11.6586C95.624 11.7144 95.7033 11.766 95.7659 11.8132C95.8286 11.7016 95.9023 11.5867 95.9873 11.4686C96.0723 11.3505 96.1829 11.256 96.3193 11.1852V11.1562C96.0175 11.1304 95.785 11.0403 95.6217 10.8857C95.4608 10.7311 95.3803 10.5443 95.3803 10.3253C95.3803 10.0054 95.5468 9.75523 95.88 9.57488C96.2154 9.39238 96.7117 9.30113 97.3691 9.30113C97.8542 9.30113 98.2097 9.35373 98.4356 9.45894C98.6636 9.562 98.7776 9.69297 98.7776 9.85185Z" fill="#F27B05"/>
<path d="M106.587 9.8132C106.587 9.99356 106.535 10.1353 106.43 10.2383C106.325 10.3414 106.197 10.3929 106.047 10.3929C105.938 10.3929 105.832 10.3629 105.729 10.3027C105.628 10.2426 105.546 10.1793 105.484 10.1127C105.444 10.2008 105.389 10.3081 105.32 10.4348C105.252 10.5593 105.17 10.6677 105.071 10.7601V10.7826C105.324 10.8406 105.498 10.9329 105.595 11.0596C105.691 11.1841 105.766 11.3806 105.819 11.649C105.842 11.7649 105.872 11.8626 105.91 11.942C105.95 12.0193 105.988 12.073 106.024 12.1031C106.069 12.1374 106.111 12.1567 106.151 12.161C106.194 12.1653 106.229 12.1675 106.259 12.1675C106.308 12.1675 106.366 12.1578 106.433 12.1385C106.502 12.1192 106.567 12.0966 106.627 12.0709L106.554 12.3671C106.348 12.453 106.168 12.5174 106.014 12.5604C105.862 12.6033 105.678 12.6248 105.464 12.6248C105.381 12.6248 105.302 12.6173 105.226 12.6023C105.152 12.5872 105.08 12.5561 105.011 12.5089C104.946 12.4659 104.89 12.4047 104.843 12.3253C104.796 12.2458 104.762 12.1449 104.739 12.0225C104.728 11.9603 104.718 11.8969 104.709 11.8325C104.702 11.7681 104.693 11.7091 104.682 11.6554C104.649 11.4471 104.602 11.3086 104.541 11.2399C104.481 11.1691 104.366 11.1337 104.196 11.1337H104.102L103.763 12.57H102.653L103.129 10.5894C103.143 10.5293 103.16 10.4509 103.18 10.3543C103.202 10.2576 103.213 10.1771 103.213 10.1127C103.213 9.99034 103.187 9.9066 103.133 9.86151C103.081 9.81428 102.986 9.79066 102.848 9.79066C102.776 9.79066 102.702 9.8014 102.626 9.82287C102.553 9.84434 102.489 9.86473 102.435 9.88406L102.509 9.5942C102.69 9.52335 102.863 9.46323 103.029 9.41385C103.194 9.36232 103.351 9.33655 103.498 9.33655C103.773 9.33655 103.98 9.40097 104.119 9.52979C104.257 9.65862 104.327 9.81857 104.327 10.0097C104.327 10.0848 104.322 10.1621 104.313 10.2415C104.304 10.321 104.287 10.409 104.26 10.5056L104.169 10.8631H104.263C104.388 10.8631 104.506 10.832 104.615 10.7697C104.727 10.7053 104.814 10.6194 104.877 10.5121C104.937 10.409 105.008 10.2727 105.088 10.1031C105.171 9.93344 105.275 9.77563 105.4 9.62963C105.478 9.53731 105.568 9.46538 105.668 9.41385C105.771 9.36017 105.901 9.33333 106.057 9.33333C106.225 9.33333 106.355 9.37735 106.446 9.46538C106.54 9.55126 106.587 9.6672 106.587 9.8132Z" fill="#F27B05"/>
<path d="M111.614 10.6409C111.614 10.9114 111.56 11.1702 111.453 11.4171C111.346 11.664 111.194 11.8787 110.997 12.0612C110.784 12.2566 110.535 12.4079 110.249 12.5153C109.965 12.6205 109.645 12.6731 109.29 12.6731C108.813 12.6731 108.429 12.5518 108.136 12.3092C107.843 12.0644 107.697 11.7316 107.697 11.3108C107.697 11.0252 107.751 10.7601 107.861 10.5153C107.973 10.2705 108.128 10.0569 108.327 9.8744C108.524 9.69619 108.765 9.55556 109.052 9.4525C109.338 9.34729 109.647 9.29469 109.981 9.29469C110.486 9.29469 110.884 9.41385 111.175 9.65217C111.467 9.88835 111.614 10.2179 111.614 10.6409ZM110.433 10.277C110.433 10.0258 110.389 9.84112 110.299 9.72303C110.212 9.60494 110.085 9.54589 109.917 9.54589C109.745 9.54589 109.587 9.61245 109.444 9.74557C109.301 9.87654 109.185 10.0698 109.095 10.3253C109.017 10.5378 108.961 10.7687 108.927 11.0177C108.894 11.2646 108.877 11.4858 108.877 11.6812C108.877 11.941 108.922 12.1299 109.011 12.248C109.101 12.3639 109.23 12.4219 109.4 12.4219C109.584 12.4219 109.742 12.35 109.877 12.2061C110.011 12.0623 110.117 11.8851 110.195 11.6747C110.273 11.4686 110.333 11.241 110.373 10.9919C110.413 10.7407 110.433 10.5024 110.433 10.277Z" fill="#F27B05"/>
<path d="M114.742 12.5185C114.695 11.898 114.661 11.4546 114.638 11.1884C114.616 10.92 114.558 10.5604 114.464 10.1095H114.43C114.345 10.5776 114.239 10.9726 114.112 11.2947C113.987 11.6167 113.851 11.8776 113.706 12.0773C113.567 12.2662 113.428 12.4058 113.287 12.496C113.146 12.5862 113.02 12.6312 112.908 12.6312C112.736 12.6312 112.603 12.5904 112.509 12.5089C112.413 12.4251 112.364 12.3103 112.364 12.1643C112.364 11.9817 112.416 11.8379 112.519 11.7327C112.619 11.6253 112.745 11.5717 112.894 11.5717C113.004 11.5717 113.102 11.5985 113.189 11.6522C113.277 11.7059 113.352 11.7627 113.414 11.8229C113.624 11.5459 113.792 11.2088 113.917 10.8116C114.045 10.4144 114.121 10.0365 114.145 9.67794H113.528L113.605 9.41385L115.296 9.34622C115.39 9.66828 115.467 10.0129 115.527 10.38C115.59 10.745 115.635 11.1283 115.665 11.5298L117.087 9.39775L118.15 9.34944L118.19 9.39452L117.714 11.3752C117.698 11.4375 117.68 11.5201 117.66 11.6232C117.64 11.7262 117.63 11.8025 117.63 11.8519C117.63 11.9764 117.658 12.0612 117.714 12.1063C117.77 12.1514 117.869 12.1739 118.012 12.1739C118.079 12.1739 118.155 12.1632 118.24 12.1417C118.325 12.1181 118.387 12.0977 118.425 12.0805L118.351 12.3704C118.13 12.4541 117.955 12.5185 117.828 12.5636C117.703 12.6065 117.553 12.628 117.378 12.628C117.135 12.628 116.935 12.5679 116.778 12.4477C116.624 12.3253 116.547 12.1621 116.547 11.9581C116.547 11.8465 116.55 11.7617 116.557 11.7037C116.563 11.6457 116.58 11.5631 116.607 11.4557L116.909 10.2899L116.875 10.277L115.359 12.5185H114.742Z" fill="#F27B05"/>
<path d="M123.871 12.0773L123.797 12.3671C123.575 12.4509 123.399 12.5153 123.267 12.5604C123.135 12.6033 122.982 12.6248 122.807 12.6248C122.541 12.6248 122.335 12.5615 122.187 12.4348C122.039 12.306 121.966 12.1471 121.966 11.9581C121.966 11.9066 121.968 11.8411 121.972 11.7617C121.979 11.6801 121.998 11.5792 122.029 11.4589L122.271 10.6023C122.295 10.5099 122.313 10.4273 122.324 10.3543C122.338 10.2791 122.345 10.2179 122.345 10.1707C122.345 10.0676 122.319 9.98712 122.267 9.92915C122.216 9.87118 122.129 9.84219 122.006 9.84219C121.93 9.84219 121.821 9.87118 121.681 9.92915C121.54 9.98497 121.382 10.0902 121.208 10.2448L120.654 12.57H119.544L120.02 10.5894C120.034 10.5293 120.051 10.4509 120.071 10.3543C120.093 10.2576 120.104 10.1771 120.104 10.1127C120.104 9.99034 120.077 9.9066 120.024 9.86151C119.972 9.81428 119.877 9.79066 119.739 9.79066C119.667 9.79066 119.593 9.8014 119.517 9.82287C119.444 9.84434 119.38 9.86473 119.326 9.88406L119.4 9.5942C119.581 9.52335 119.754 9.46323 119.92 9.41385C120.085 9.36232 120.242 9.33655 120.389 9.33655C120.653 9.33655 120.85 9.38701 120.98 9.48792C121.112 9.58669 121.199 9.72625 121.241 9.9066H121.265C121.484 9.71551 121.71 9.56736 121.942 9.46216C122.177 9.3548 122.426 9.30113 122.69 9.30113C122.938 9.30113 123.132 9.36661 123.27 9.49758C123.411 9.62856 123.482 9.78744 123.482 9.97424C123.482 10.0236 123.477 10.0934 123.468 10.1836C123.461 10.2716 123.444 10.3661 123.414 10.467L123.16 11.372C123.137 11.4471 123.117 11.533 123.099 11.6296C123.081 11.7262 123.072 11.7992 123.072 11.8486C123.072 11.9732 123.1 12.058 123.156 12.1031C123.214 12.1481 123.315 12.1707 123.458 12.1707C123.525 12.1707 123.601 12.16 123.686 12.1385C123.771 12.1149 123.833 12.0945 123.871 12.0773Z" fill="#F27B05"/>
<path d="M127.207 12.1675H127.18C127.102 12.2319 127.027 12.2909 126.955 12.3446C126.886 12.3983 126.798 12.452 126.69 12.5056C126.597 12.5529 126.497 12.5915 126.392 12.6216C126.289 12.6538 126.175 12.6699 126.05 12.6699C125.661 12.6699 125.368 12.5604 125.171 12.3414C124.974 12.1202 124.876 11.8186 124.876 11.4364C124.876 11.1422 124.931 10.8663 125.04 10.6087C125.15 10.351 125.296 10.1245 125.48 9.92915C125.665 9.73591 125.882 9.58347 126.13 9.47182C126.379 9.35802 126.64 9.30113 126.915 9.30113C127.116 9.30113 127.292 9.32367 127.442 9.36876C127.594 9.41385 127.718 9.47504 127.814 9.55233L128.844 9.34944L128.89 9.40097L128.397 11.3816C128.38 11.4482 128.361 11.5319 128.34 11.6329C128.32 11.7316 128.31 11.8068 128.31 11.8583C128.31 11.9807 128.339 12.0655 128.397 12.1127C128.456 12.1578 128.556 12.1804 128.699 12.1804C128.762 12.1804 128.837 12.1685 128.924 12.1449C129.013 12.1213 129.076 12.102 129.112 12.087L129.038 12.3768C128.817 12.4605 128.639 12.525 128.505 12.57C128.373 12.613 128.22 12.6345 128.045 12.6345C127.815 12.6345 127.631 12.5915 127.492 12.5056C127.356 12.4176 127.261 12.3049 127.207 12.1675ZM127.606 10.1256C127.606 10.0784 127.599 10.0225 127.586 9.95813C127.572 9.89372 127.549 9.83897 127.515 9.79388C127.475 9.73806 127.423 9.69619 127.358 9.66828C127.293 9.63822 127.212 9.62319 127.116 9.62319C126.969 9.62319 126.832 9.67472 126.707 9.77778C126.584 9.87869 126.475 10.014 126.379 10.1836C126.285 10.351 126.211 10.5464 126.157 10.7697C126.104 10.9909 126.077 11.2174 126.077 11.4493C126.077 11.5545 126.085 11.6522 126.1 11.7424C126.118 11.8325 126.146 11.9087 126.184 11.971C126.224 12.0376 126.278 12.0891 126.345 12.1256C126.414 12.1621 126.5 12.1804 126.603 12.1804C126.708 12.1804 126.809 12.1514 126.905 12.0934C127.003 12.0333 127.094 11.9603 127.177 11.8744L127.606 10.1256Z" fill="#F27B05"/>
<path d="M131.747 10.7279H132.83L133.149 9.39452L134.219 9.34944L134.259 9.39452L133.783 11.3752C133.767 11.4375 133.749 11.5201 133.729 11.6232C133.709 11.7262 133.699 11.8025 133.699 11.8519C133.699 11.9764 133.727 12.0612 133.783 12.1063C133.839 12.1514 133.938 12.1739 134.081 12.1739C134.149 12.1739 134.225 12.1632 134.31 12.1417C134.394 12.1181 134.456 12.0977 134.494 12.0805L134.42 12.3704C134.199 12.4541 134.022 12.5185 133.89 12.5636C133.758 12.6065 133.605 12.628 133.431 12.628C133.187 12.628 132.986 12.5679 132.827 12.4477C132.671 12.3253 132.592 12.1621 132.592 11.9581C132.592 11.8465 132.596 11.7627 132.602 11.7069C132.609 11.6511 132.626 11.5674 132.653 11.4557L132.753 11.037H131.673L131.305 12.57H130.194L130.671 10.5894C130.684 10.5293 130.701 10.4509 130.721 10.3543C130.743 10.2576 130.755 10.1771 130.755 10.1127C130.755 9.99034 130.728 9.9066 130.674 9.86151C130.623 9.81428 130.528 9.79066 130.389 9.79066C130.317 9.79066 130.244 9.8014 130.168 9.82287C130.094 9.84434 130.03 9.86473 129.976 9.88406L130.05 9.5942C130.231 9.52335 130.405 9.46323 130.57 9.41385C130.736 9.36232 130.892 9.33655 131.04 9.33655C131.315 9.33655 131.521 9.40097 131.66 9.52979C131.799 9.65862 131.868 9.81857 131.868 10.0097C131.868 10.0848 131.863 10.161 131.855 10.2383C131.846 10.3156 131.828 10.4047 131.801 10.5056L131.747 10.7279Z" fill="#F27B05"/>
<path d="M137.988 12.058H137.964C137.73 12.2641 137.506 12.4165 137.294 12.5153C137.081 12.6141 136.835 12.6634 136.556 12.6634C136.308 12.6634 136.115 12.598 135.979 12.467C135.845 12.336 135.778 12.1771 135.778 11.9903C135.778 11.9238 135.781 11.8561 135.788 11.7874C135.797 11.7187 135.818 11.6221 135.852 11.4976L136.103 10.5926C136.119 10.5325 136.137 10.4509 136.157 10.3478C136.179 10.2426 136.19 10.1653 136.19 10.1159C136.19 9.99785 136.165 9.91519 136.113 9.86795C136.064 9.81857 135.967 9.79388 135.821 9.79388C135.75 9.79388 135.676 9.80462 135.6 9.82609C135.526 9.84756 135.463 9.86795 135.409 9.88728L135.483 9.59742C135.664 9.52657 135.837 9.46645 136.003 9.41707C136.168 9.36554 136.324 9.33977 136.472 9.33977C136.738 9.33977 136.943 9.40419 137.086 9.53301C137.231 9.65969 137.304 9.8175 137.304 10.0064C137.304 10.0451 137.299 10.1159 137.29 10.219C137.281 10.3221 137.264 10.4176 137.237 10.5056L136.992 11.3623C136.97 11.4375 136.952 11.5191 136.938 11.6071C136.925 11.693 136.918 11.7552 136.918 11.7939C136.918 11.8948 136.943 11.9753 136.992 12.0354C137.041 12.0934 137.126 12.1224 137.247 12.1224C137.334 12.1224 137.449 12.088 137.592 12.0193C137.738 11.9485 137.881 11.8486 138.021 11.7198L138.575 9.39452L139.645 9.34944L139.685 9.39452L139.209 11.3752C139.193 11.4375 139.174 11.5201 139.152 11.6232C139.132 11.7262 139.122 11.8025 139.122 11.8519C139.122 11.9764 139.149 12.0612 139.205 12.1063C139.263 12.1514 139.364 12.1739 139.507 12.1739C139.574 12.1739 139.65 12.1632 139.735 12.1417C139.82 12.1181 139.882 12.0977 139.92 12.0805L139.846 12.3704C139.625 12.4541 139.448 12.5185 139.316 12.5636C139.184 12.6065 139.031 12.628 138.857 12.628C138.611 12.628 138.414 12.5754 138.266 12.4702C138.119 12.3629 138.026 12.2254 137.988 12.058Z" fill="#F27B05"/>
<path d="M143.176 9.55556C143.082 9.55556 142.991 9.57059 142.904 9.60064C142.819 9.6307 142.741 9.67687 142.669 9.73913C142.6 9.8014 142.544 9.88191 142.501 9.98068C142.461 10.0794 142.441 10.1943 142.441 10.3253C142.441 10.4992 142.49 10.6398 142.589 10.7472C142.687 10.8545 142.841 10.9082 143.051 10.9082H143.31L143.414 10.5443C143.458 10.3768 143.494 10.2211 143.521 10.0773C143.548 9.93344 143.561 9.83253 143.561 9.77456C143.561 9.71229 143.527 9.66076 143.457 9.61997C143.388 9.57703 143.294 9.55556 143.176 9.55556ZM144.661 9.85185C144.661 9.93773 144.652 10.0258 144.634 10.1159C144.617 10.2061 144.601 10.2748 144.587 10.3221L144.289 11.3752C144.269 11.4461 144.25 11.5298 144.232 11.6264C144.214 11.7209 144.205 11.796 144.205 11.8519C144.205 11.9764 144.233 12.0612 144.289 12.1063C144.345 12.1514 144.444 12.1739 144.587 12.1739C144.655 12.1739 144.731 12.1632 144.816 12.1417C144.901 12.1181 144.962 12.0977 145 12.0805L144.926 12.3704C144.705 12.4541 144.528 12.5185 144.396 12.5636C144.264 12.6065 144.111 12.628 143.937 12.628C143.693 12.628 143.492 12.5679 143.333 12.4477C143.177 12.3253 143.098 12.1621 143.098 11.9581C143.098 11.8465 143.103 11.7585 143.112 11.694C143.121 11.6275 143.138 11.5459 143.162 11.4493L143.239 11.1787H143.031C142.92 11.1787 142.833 11.1873 142.773 11.2045C142.713 11.2217 142.639 11.2625 142.552 11.3269C142.462 11.3935 142.386 11.4675 142.324 11.5491C142.261 11.6286 142.203 11.7091 142.149 11.7907C142.102 11.8615 142.044 11.9506 141.975 12.058C141.908 12.1632 141.833 12.2598 141.75 12.3478C141.647 12.4616 141.55 12.5368 141.458 12.5733C141.367 12.6119 141.255 12.6312 141.123 12.6312C140.951 12.6312 140.817 12.5904 140.721 12.5089C140.627 12.4251 140.58 12.3103 140.58 12.1643C140.58 11.9817 140.63 11.8379 140.731 11.7327C140.833 11.6275 140.96 11.5749 141.11 11.5749C141.217 11.5749 141.318 11.6028 141.411 11.6586C141.508 11.7144 141.587 11.766 141.65 11.8132C141.712 11.7016 141.786 11.5867 141.871 11.4686C141.956 11.3505 142.067 11.256 142.203 11.1852V11.1562C141.901 11.1304 141.669 11.0403 141.505 10.8857C141.344 10.7311 141.264 10.5443 141.264 10.3253C141.264 10.0054 141.43 9.75523 141.764 9.57488C142.099 9.39238 142.595 9.30113 143.253 9.30113C143.738 9.30113 144.093 9.35373 144.319 9.45894C144.547 9.562 144.661 9.69297 144.661 9.85185Z" fill="#F27B05"/>
</g>
<g id="&#208;&#154;&#208;&#187;-&#208;&#184;&#208;&#189;&#208;&#178;&#208;&#181;&#209;&#129;&#209;&#130;">
<mask id="path-2-outside-1_154_50" maskUnits="userSpaceOnUse" x="36" y="19" width="110" height="13" fill="black">
<rect fill="white" x="36" y="19" width="110" height="13"/>
<path d="M43.5251 21.7842L42.6646 25.1044C43.5251 24.4838 44.3402 23.8011 45.1705 23.103L46.2725 22.1721C46.8914 21.6446 47.3292 21.1481 47.3443 20.8843C47.3443 20.6671 47.1028 20.512 46.6801 20.512H46.6499C46.665 20.4034 46.6952 20.2948 46.7254 20.1862H50.0314C50.0163 20.2948 50.0012 20.4034 49.971 20.512C49.1558 20.5585 48.5218 20.9464 47.6009 21.7221C46.4386 22.6841 45.2611 23.7391 44.0836 24.701C44.6723 25.6629 45.246 26.5938 45.8045 27.5712L46.7556 29.2158C47.1933 29.976 47.6462 30.4415 48.5067 30.5035L48.4463 30.7983H44.0232L44.0987 30.488C44.5818 30.488 44.9743 30.3173 44.9743 30.0226C44.9743 29.7743 44.8082 29.4795 44.7025 29.2623L44.4761 28.8124L43.4949 27.1213C43.2081 26.6248 42.8759 26.1284 42.6042 25.6319L42.5136 25.5853L41.5324 29.3399C41.4871 29.5261 41.4418 29.7123 41.4418 29.8674C41.4418 30.2863 41.7136 30.5035 42.6495 30.5035C42.6193 30.5966 42.6042 30.7207 42.574 30.7983H38C38.0302 30.7207 38.0453 30.5966 38.0755 30.5035C39.2831 30.5035 39.5851 30.1467 39.8266 29.2158L41.5173 22.8237C41.6532 22.2962 41.8947 21.6135 41.8947 21.1636C41.8947 20.6827 41.623 20.6051 40.7172 20.4499L40.7776 20.1862H45.2611L45.1705 20.512C44.0383 20.512 43.7515 20.9154 43.5251 21.7842Z"/>
<path d="M57.2462 28.7348L56.2952 22.7306H56.2499C55.1932 24.701 54.1365 26.6869 53.0949 28.6728C52.7929 29.2313 52.6118 29.6347 52.5514 30.0071C52.6269 30.2863 53.0043 30.426 53.6232 30.488L53.5628 30.7983H50.4682C50.4682 30.7052 50.4682 30.5966 50.4984 30.488C51.1626 30.4104 51.6004 30.0071 52.0533 29.3399C53.7138 26.2214 55.3894 23.103 57.0802 20H57.5783C58.0614 23.0874 58.5595 26.1749 59.0577 29.2623C59.1936 30.1622 59.6766 30.457 60.4314 30.488C60.4163 30.519 60.4012 30.5501 60.4012 30.5811C60.4012 30.5966 60.4163 30.6121 60.4163 30.6276C60.4012 30.6897 60.4012 30.7362 60.4012 30.7983H56.1744L56.2197 30.488C56.6575 30.457 57.3519 30.426 57.3519 29.7123C57.3519 29.4175 57.2915 29.0451 57.2462 28.7348Z"/>
<path d="M67.5931 27.7884H63.17C63.2153 27.4161 63.2757 27.0282 63.3059 26.6403H67.7289C67.6837 27.0282 67.6233 27.4161 67.5931 27.7884Z"/>
<path d="M75.4699 22.4979L73.9754 28.1918H73.9905L79.8326 21.8307C79.9836 21.6291 80.1345 21.3653 80.1949 21.1636C80.1949 20.7447 80.0137 20.5585 79.0174 20.4965C79.0325 20.4034 79.0627 20.2948 79.108 20.1862H83.6518L83.5613 20.4965C82.3536 20.543 82.0215 20.9619 81.8252 21.7221L79.8779 29.2313C79.8175 29.4795 79.742 29.6812 79.7571 29.8519C79.7571 30.2863 79.9986 30.5035 80.8591 30.5035C80.8742 30.5501 80.9044 30.5811 80.9195 30.6121L80.8742 30.7983H76.3153C76.3455 30.7207 76.3606 30.5966 76.3908 30.5035C77.3569 30.457 77.689 30.2708 77.9607 29.7743L78.0815 29.4175C78.6702 27.1523 79.259 24.8872 79.8628 22.622C77.9456 24.67 76.0435 26.7334 73.8698 29.0917L73.8245 29.3089C73.7037 29.4951 73.598 29.6502 73.598 29.8519C73.598 30.2863 73.8698 30.5035 74.7604 30.5035C74.7453 30.5501 74.7302 30.5966 74.7302 30.6432L74.6849 30.7983H70.1411C70.1713 30.7207 70.1864 30.5966 70.2015 30.5035C71.2884 30.5035 71.6356 30.2087 71.8469 29.5571L72.013 29.0451L73.9301 21.7842C73.9905 21.536 74.0207 21.3498 74.0207 21.1636C74.0207 20.7447 73.7641 20.4965 72.9338 20.4965L72.8583 20.3879C72.8734 20.3258 72.9036 20.2638 72.9187 20.1862H77.4626C77.4475 20.2948 77.4173 20.4034 77.3871 20.4965C75.8473 20.5275 75.7567 21.3188 75.4699 22.4979Z"/>
<path d="M89.7441 22.0635L88.9591 25.0578H93.2916L94.0765 22.048C94.1671 21.7532 94.2577 21.3808 94.2577 21.1946C94.2577 20.6051 93.7746 20.5275 93.0802 20.512C93.1104 20.4189 93.1255 20.2948 93.1557 20.1862H97.7146C97.6844 20.2948 97.6693 20.4189 97.6392 20.512C96.2352 20.512 96.0843 20.9619 95.7975 22.0635L93.986 28.9365V28.9986C93.8954 29.3244 93.8048 29.6812 93.8048 29.8829C93.8048 30.3794 94.1973 30.5035 95.0125 30.5035L94.937 30.7983H90.3932L90.4536 30.5035C91.8122 30.5035 91.948 30.0071 92.2349 29.0296C92.5519 27.9436 92.8538 26.7179 93.1406 25.6319H88.8081L87.9326 28.9676C87.7967 29.3554 87.7514 29.6812 87.7514 29.8829C87.7514 30.3173 88.008 30.5035 88.9289 30.5035L88.8534 30.7983H84.2945L84.385 30.5035C85.7588 30.5035 85.8946 30.0381 86.2116 28.9365L87.9929 22.1566C88.0835 21.7997 88.2043 21.4274 88.2043 21.1481C88.2043 20.6671 87.7967 20.512 86.9966 20.512L87.0872 20.1862H91.631C91.6008 20.2948 91.5857 20.4189 91.5405 20.512C90.1365 20.512 90.0158 21.1016 89.7441 22.0635Z"/>
<path d="M101.039 20.2482C101.235 20.2327 101.462 20.2172 101.658 20.1862H105.19C107.802 20.1862 108.527 21.2257 108.527 22.4358C108.527 23.8166 107.44 24.7165 106.353 25.1199C106.232 25.1819 105.825 25.3216 105.825 25.3681C106.821 25.6008 107.636 26.268 107.636 27.4161C107.636 28.9055 106.443 30.7983 103.273 30.7983H98.2766L98.337 30.5035C99.2276 30.457 99.7258 30.3794 100.028 29.5416L100.269 28.7348L101.975 22.2496C102.035 21.8928 102.202 21.4739 102.202 21.1481C102.202 20.6516 101.764 20.5585 101.009 20.4965L101.039 20.2482ZM102.805 25.6164L101.945 28.89L101.613 30.1467C101.945 30.2398 102.292 30.2553 102.73 30.2553H102.775C104.632 30.2553 105.734 28.7969 105.734 27.2299C105.734 26.0508 104.934 25.5853 104.043 25.5853H103.741C103.409 25.5853 103.092 25.6164 102.805 25.6164ZM104.058 20.8223L103.892 21.4894L102.971 24.9803C103.183 25.0268 103.409 25.0578 103.681 25.0578C105.16 25.0578 106.715 24.1735 106.715 22.2652C106.715 21.0705 105.764 20.7447 104.979 20.7447C104.662 20.7447 104.36 20.7757 104.058 20.8223Z"/>
<path d="M112.835 20.1862H120.504C120.353 21.0085 120.172 21.8152 120.006 22.6375H119.689C119.523 21.2877 119.251 20.8068 118.149 20.7602H115.854C115.477 22.11 115.13 23.5063 114.767 24.8717H115.869V24.8872C117.032 24.8872 117.59 24.5148 117.998 23.3822H118.3L117.334 27.0748H117.017C117.047 26.8575 117.077 26.6248 117.077 26.4231C117.077 25.6629 116.624 25.4302 115.643 25.4302H114.632L113.862 28.2849C113.741 28.7969 113.499 29.5261 113.499 29.8674C113.499 30.2398 113.816 30.2553 114.299 30.2553H114.737C116.534 30.2553 117.183 30.1777 118.164 29.1227L118.315 28.9831C118.557 28.6883 118.798 28.3315 119.024 27.9281H119.341L118.164 30.7983H110.058C110.073 30.6897 110.103 30.5966 110.148 30.5035L110.571 30.4725C111.341 30.4104 111.658 30.1312 111.884 29.2779L113.741 22.2496C113.862 21.7997 113.967 21.3498 113.967 21.0395C113.967 20.7137 113.65 20.574 113.152 20.543L112.76 20.481C112.79 20.3879 112.82 20.2948 112.835 20.1862Z"/>
<path d="M132.336 20.031H132.638C132.411 21.1171 132.17 22.1876 131.928 23.2581H131.641C131.626 21.9083 131.053 20.543 129.377 20.543C128.29 20.543 127.067 21.1326 126.101 22.4048C125.286 23.4753 124.577 25.3371 124.577 26.9817C124.577 29.0917 125.588 30.3018 127.218 30.3018C128.335 30.3018 129.754 29.7123 130.766 28.1918L131.083 28.3625C130.841 28.859 130.6 29.3089 130.283 29.7123C129.045 30.6742 127.701 31 126.584 31C124.048 31 122.674 29.3244 122.674 26.9661C122.674 23.1495 125.663 20 129.362 20C130.041 20 130.464 20.1086 131.173 20.3568C131.339 20.4189 131.536 20.4965 131.702 20.4965C132.004 20.4965 132.17 20.2948 132.336 20.031Z"/>
<path d="M141.377 20.7757L139.143 29.2158C139.082 29.4175 139.067 29.6192 139.067 29.7743C139.067 30.3329 139.445 30.5035 140.275 30.5035C140.275 30.5501 140.29 30.5966 140.29 30.6432C140.275 30.6897 140.26 30.7518 140.26 30.7983H135.52C135.55 30.7207 135.565 30.5966 135.595 30.5035C136.758 30.5035 137.165 30.2087 137.422 29.2158L139.641 20.7757L138.252 20.8068C137.15 20.8843 136.214 21.8152 135.776 22.9633H135.459L136.305 20.1862H145L144.411 22.9788H144.094V22.7927C144.094 20.3724 142.524 20.7757 141.377 20.7757Z"/>
</mask>
<path d="M43.5251 21.7842L42.6646 25.1044C43.5251 24.4838 44.3402 23.8011 45.1705 23.103L46.2725 22.1721C46.8914 21.6446 47.3292 21.1481 47.3443 20.8843C47.3443 20.6671 47.1028 20.512 46.6801 20.512H46.6499C46.665 20.4034 46.6952 20.2948 46.7254 20.1862H50.0314C50.0163 20.2948 50.0012 20.4034 49.971 20.512C49.1558 20.5585 48.5218 20.9464 47.6009 21.7221C46.4386 22.6841 45.2611 23.7391 44.0836 24.701C44.6723 25.6629 45.246 26.5938 45.8045 27.5712L46.7556 29.2158C47.1933 29.976 47.6462 30.4415 48.5067 30.5035L48.4463 30.7983H44.0232L44.0987 30.488C44.5818 30.488 44.9743 30.3173 44.9743 30.0226C44.9743 29.7743 44.8082 29.4795 44.7025 29.2623L44.4761 28.8124L43.4949 27.1213C43.2081 26.6248 42.8759 26.1284 42.6042 25.6319L42.5136 25.5853L41.5324 29.3399C41.4871 29.5261 41.4418 29.7123 41.4418 29.8674C41.4418 30.2863 41.7136 30.5035 42.6495 30.5035C42.6193 30.5966 42.6042 30.7207 42.574 30.7983H38C38.0302 30.7207 38.0453 30.5966 38.0755 30.5035C39.2831 30.5035 39.5851 30.1467 39.8266 29.2158L41.5173 22.8237C41.6532 22.2962 41.8947 21.6135 41.8947 21.1636C41.8947 20.6827 41.623 20.6051 40.7172 20.4499L40.7776 20.1862H45.2611L45.1705 20.512C44.0383 20.512 43.7515 20.9154 43.5251 21.7842Z" fill="#03A447"/>
<path d="M57.2462 28.7348L56.2952 22.7306H56.2499C55.1932 24.701 54.1365 26.6869 53.0949 28.6728C52.7929 29.2313 52.6118 29.6347 52.5514 30.0071C52.6269 30.2863 53.0043 30.426 53.6232 30.488L53.5628 30.7983H50.4682C50.4682 30.7052 50.4682 30.5966 50.4984 30.488C51.1626 30.4104 51.6004 30.0071 52.0533 29.3399C53.7138 26.2214 55.3894 23.103 57.0802 20H57.5783C58.0614 23.0874 58.5595 26.1749 59.0577 29.2623C59.1936 30.1622 59.6766 30.457 60.4314 30.488C60.4163 30.519 60.4012 30.5501 60.4012 30.5811C60.4012 30.5966 60.4163 30.6121 60.4163 30.6276C60.4012 30.6897 60.4012 30.7362 60.4012 30.7983H56.1744L56.2197 30.488C56.6575 30.457 57.3519 30.426 57.3519 29.7123C57.3519 29.4175 57.2915 29.0451 57.2462 28.7348Z" fill="#03A447"/>
<path d="M67.5931 27.7884H63.17C63.2153 27.4161 63.2757 27.0282 63.3059 26.6403H67.7289C67.6837 27.0282 67.6233 27.4161 67.5931 27.7884Z" fill="#03A447"/>
<path d="M75.4699 22.4979L73.9754 28.1918H73.9905L79.8326 21.8307C79.9836 21.6291 80.1345 21.3653 80.1949 21.1636C80.1949 20.7447 80.0137 20.5585 79.0174 20.4965C79.0325 20.4034 79.0627 20.2948 79.108 20.1862H83.6518L83.5613 20.4965C82.3536 20.543 82.0215 20.9619 81.8252 21.7221L79.8779 29.2313C79.8175 29.4795 79.742 29.6812 79.7571 29.8519C79.7571 30.2863 79.9986 30.5035 80.8591 30.5035C80.8742 30.5501 80.9044 30.5811 80.9195 30.6121L80.8742 30.7983H76.3153C76.3455 30.7207 76.3606 30.5966 76.3908 30.5035C77.3569 30.457 77.689 30.2708 77.9607 29.7743L78.0815 29.4175C78.6702 27.1523 79.259 24.8872 79.8628 22.622C77.9456 24.67 76.0435 26.7334 73.8698 29.0917L73.8245 29.3089C73.7037 29.4951 73.598 29.6502 73.598 29.8519C73.598 30.2863 73.8698 30.5035 74.7604 30.5035C74.7453 30.5501 74.7302 30.5966 74.7302 30.6432L74.6849 30.7983H70.1411C70.1713 30.7207 70.1864 30.5966 70.2015 30.5035C71.2884 30.5035 71.6356 30.2087 71.8469 29.5571L72.013 29.0451L73.9301 21.7842C73.9905 21.536 74.0207 21.3498 74.0207 21.1636C74.0207 20.7447 73.7641 20.4965 72.9338 20.4965L72.8583 20.3879C72.8734 20.3258 72.9036 20.2638 72.9187 20.1862H77.4626C77.4475 20.2948 77.4173 20.4034 77.3871 20.4965C75.8473 20.5275 75.7567 21.3188 75.4699 22.4979Z" fill="#03A447"/>
<path d="M89.7441 22.0635L88.9591 25.0578H93.2916L94.0765 22.048C94.1671 21.7532 94.2577 21.3808 94.2577 21.1946C94.2577 20.6051 93.7746 20.5275 93.0802 20.512C93.1104 20.4189 93.1255 20.2948 93.1557 20.1862H97.7146C97.6844 20.2948 97.6693 20.4189 97.6392 20.512C96.2352 20.512 96.0843 20.9619 95.7975 22.0635L93.986 28.9365V28.9986C93.8954 29.3244 93.8048 29.6812 93.8048 29.8829C93.8048 30.3794 94.1973 30.5035 95.0125 30.5035L94.937 30.7983H90.3932L90.4536 30.5035C91.8122 30.5035 91.948 30.0071 92.2349 29.0296C92.5519 27.9436 92.8538 26.7179 93.1406 25.6319H88.8081L87.9326 28.9676C87.7967 29.3554 87.7514 29.6812 87.7514 29.8829C87.7514 30.3173 88.008 30.5035 88.9289 30.5035L88.8534 30.7983H84.2945L84.385 30.5035C85.7588 30.5035 85.8946 30.0381 86.2116 28.9365L87.9929 22.1566C88.0835 21.7997 88.2043 21.4274 88.2043 21.1481C88.2043 20.6671 87.7967 20.512 86.9966 20.512L87.0872 20.1862H91.631C91.6008 20.2948 91.5857 20.4189 91.5405 20.512C90.1365 20.512 90.0158 21.1016 89.7441 22.0635Z" fill="#03A447"/>
<path d="M101.039 20.2482C101.235 20.2327 101.462 20.2172 101.658 20.1862H105.19C107.802 20.1862 108.527 21.2257 108.527 22.4358C108.527 23.8166 107.44 24.7165 106.353 25.1199C106.232 25.1819 105.825 25.3216 105.825 25.3681C106.821 25.6008 107.636 26.268 107.636 27.4161C107.636 28.9055 106.443 30.7983 103.273 30.7983H98.2766L98.337 30.5035C99.2276 30.457 99.7258 30.3794 100.028 29.5416L100.269 28.7348L101.975 22.2496C102.035 21.8928 102.202 21.4739 102.202 21.1481C102.202 20.6516 101.764 20.5585 101.009 20.4965L101.039 20.2482ZM102.805 25.6164L101.945 28.89L101.613 30.1467C101.945 30.2398 102.292 30.2553 102.73 30.2553H102.775C104.632 30.2553 105.734 28.7969 105.734 27.2299C105.734 26.0508 104.934 25.5853 104.043 25.5853H103.741C103.409 25.5853 103.092 25.6164 102.805 25.6164ZM104.058 20.8223L103.892 21.4894L102.971 24.9803C103.183 25.0268 103.409 25.0578 103.681 25.0578C105.16 25.0578 106.715 24.1735 106.715 22.2652C106.715 21.0705 105.764 20.7447 104.979 20.7447C104.662 20.7447 104.36 20.7757 104.058 20.8223Z" fill="#03A447"/>
<path d="M112.835 20.1862H120.504C120.353 21.0085 120.172 21.8152 120.006 22.6375H119.689C119.523 21.2877 119.251 20.8068 118.149 20.7602H115.854C115.477 22.11 115.13 23.5063 114.767 24.8717H115.869V24.8872C117.032 24.8872 117.59 24.5148 117.998 23.3822H118.3L117.334 27.0748H117.017C117.047 26.8575 117.077 26.6248 117.077 26.4231C117.077 25.6629 116.624 25.4302 115.643 25.4302H114.632L113.862 28.2849C113.741 28.7969 113.499 29.5261 113.499 29.8674C113.499 30.2398 113.816 30.2553 114.299 30.2553H114.737C116.534 30.2553 117.183 30.1777 118.164 29.1227L118.315 28.9831C118.557 28.6883 118.798 28.3315 119.024 27.9281H119.341L118.164 30.7983H110.058C110.073 30.6897 110.103 30.5966 110.148 30.5035L110.571 30.4725C111.341 30.4104 111.658 30.1312 111.884 29.2779L113.741 22.2496C113.862 21.7997 113.967 21.3498 113.967 21.0395C113.967 20.7137 113.65 20.574 113.152 20.543L112.76 20.481C112.79 20.3879 112.82 20.2948 112.835 20.1862Z" fill="#03A447"/>
<path d="M132.336 20.031H132.638C132.411 21.1171 132.17 22.1876 131.928 23.2581H131.641C131.626 21.9083 131.053 20.543 129.377 20.543C128.29 20.543 127.067 21.1326 126.101 22.4048C125.286 23.4753 124.577 25.3371 124.577 26.9817C124.577 29.0917 125.588 30.3018 127.218 30.3018C128.335 30.3018 129.754 29.7123 130.766 28.1918L131.083 28.3625C130.841 28.859 130.6 29.3089 130.283 29.7123C129.045 30.6742 127.701 31 126.584 31C124.048 31 122.674 29.3244 122.674 26.9661C122.674 23.1495 125.663 20 129.362 20C130.041 20 130.464 20.1086 131.173 20.3568C131.339 20.4189 131.536 20.4965 131.702 20.4965C132.004 20.4965 132.17 20.2948 132.336 20.031Z" fill="#03A447"/>
<path d="M141.377 20.7757L139.143 29.2158C139.082 29.4175 139.067 29.6192 139.067 29.7743C139.067 30.3329 139.445 30.5035 140.275 30.5035C140.275 30.5501 140.29 30.5966 140.29 30.6432C140.275 30.6897 140.26 30.7518 140.26 30.7983H135.52C135.55 30.7207 135.565 30.5966 135.595 30.5035C136.758 30.5035 137.165 30.2087 137.422 29.2158L139.641 20.7757L138.252 20.8068C137.15 20.8843 136.214 21.8152 135.776 22.9633H135.459L136.305 20.1862H145L144.411 22.9788H144.094V22.7927C144.094 20.3724 142.524 20.7757 141.377 20.7757Z" fill="#03A447"/>
<path d="M43.5251 21.7842L42.6646 25.1044C43.5251 24.4838 44.3402 23.8011 45.1705 23.103L46.2725 22.1721C46.8914 21.6446 47.3292 21.1481 47.3443 20.8843C47.3443 20.6671 47.1028 20.512 46.6801 20.512H46.6499C46.665 20.4034 46.6952 20.2948 46.7254 20.1862H50.0314C50.0163 20.2948 50.0012 20.4034 49.971 20.512C49.1558 20.5585 48.5218 20.9464 47.6009 21.7221C46.4386 22.6841 45.2611 23.7391 44.0836 24.701C44.6723 25.6629 45.246 26.5938 45.8045 27.5712L46.7556 29.2158C47.1933 29.976 47.6462 30.4415 48.5067 30.5035L48.4463 30.7983H44.0232L44.0987 30.488C44.5818 30.488 44.9743 30.3173 44.9743 30.0226C44.9743 29.7743 44.8082 29.4795 44.7025 29.2623L44.4761 28.8124L43.4949 27.1213C43.2081 26.6248 42.8759 26.1284 42.6042 25.6319L42.5136 25.5853L41.5324 29.3399C41.4871 29.5261 41.4418 29.7123 41.4418 29.8674C41.4418 30.2863 41.7136 30.5035 42.6495 30.5035C42.6193 30.5966 42.6042 30.7207 42.574 30.7983H38C38.0302 30.7207 38.0453 30.5966 38.0755 30.5035C39.2831 30.5035 39.5851 30.1467 39.8266 29.2158L41.5173 22.8237C41.6532 22.2962 41.8947 21.6135 41.8947 21.1636C41.8947 20.6827 41.623 20.6051 40.7172 20.4499L40.7776 20.1862H45.2611L45.1705 20.512C44.0383 20.512 43.7515 20.9154 43.5251 21.7842Z" stroke="#03A447" stroke-width="1.4" mask="url(#path-2-outside-1_154_50)"/>
<path d="M57.2462 28.7348L56.2952 22.7306H56.2499C55.1932 24.701 54.1365 26.6869 53.0949 28.6728C52.7929 29.2313 52.6118 29.6347 52.5514 30.0071C52.6269 30.2863 53.0043 30.426 53.6232 30.488L53.5628 30.7983H50.4682C50.4682 30.7052 50.4682 30.5966 50.4984 30.488C51.1626 30.4104 51.6004 30.0071 52.0533 29.3399C53.7138 26.2214 55.3894 23.103 57.0802 20H57.5783C58.0614 23.0874 58.5595 26.1749 59.0577 29.2623C59.1936 30.1622 59.6766 30.457 60.4314 30.488C60.4163 30.519 60.4012 30.5501 60.4012 30.5811C60.4012 30.5966 60.4163 30.6121 60.4163 30.6276C60.4012 30.6897 60.4012 30.7362 60.4012 30.7983H56.1744L56.2197 30.488C56.6575 30.457 57.3519 30.426 57.3519 29.7123C57.3519 29.4175 57.2915 29.0451 57.2462 28.7348Z" stroke="#03A447" stroke-width="1.4" mask="url(#path-2-outside-1_154_50)"/>
<path d="M67.5931 27.7884H63.17C63.2153 27.4161 63.2757 27.0282 63.3059 26.6403H67.7289C67.6837 27.0282 67.6233 27.4161 67.5931 27.7884Z" stroke="#03A447" stroke-width="1.4" mask="url(#path-2-outside-1_154_50)"/>
<path d="M75.4699 22.4979L73.9754 28.1918H73.9905L79.8326 21.8307C79.9836 21.6291 80.1345 21.3653 80.1949 21.1636C80.1949 20.7447 80.0137 20.5585 79.0174 20.4965C79.0325 20.4034 79.0627 20.2948 79.108 20.1862H83.6518L83.5613 20.4965C82.3536 20.543 82.0215 20.9619 81.8252 21.7221L79.8779 29.2313C79.8175 29.4795 79.742 29.6812 79.7571 29.8519C79.7571 30.2863 79.9986 30.5035 80.8591 30.5035C80.8742 30.5501 80.9044 30.5811 80.9195 30.6121L80.8742 30.7983H76.3153C76.3455 30.7207 76.3606 30.5966 76.3908 30.5035C77.3569 30.457 77.689 30.2708 77.9607 29.7743L78.0815 29.4175C78.6702 27.1523 79.259 24.8872 79.8628 22.622C77.9456 24.67 76.0435 26.7334 73.8698 29.0917L73.8245 29.3089C73.7037 29.4951 73.598 29.6502 73.598 29.8519C73.598 30.2863 73.8698 30.5035 74.7604 30.5035C74.7453 30.5501 74.7302 30.5966 74.7302 30.6432L74.6849 30.7983H70.1411C70.1713 30.7207 70.1864 30.5966 70.2015 30.5035C71.2884 30.5035 71.6356 30.2087 71.8469 29.5571L72.013 29.0451L73.9301 21.7842C73.9905 21.536 74.0207 21.3498 74.0207 21.1636C74.0207 20.7447 73.7641 20.4965 72.9338 20.4965L72.8583 20.3879C72.8734 20.3258 72.9036 20.2638 72.9187 20.1862H77.4626C77.4475 20.2948 77.4173 20.4034 77.3871 20.4965C75.8473 20.5275 75.7567 21.3188 75.4699 22.4979Z" stroke="#03A447" stroke-width="1.4" mask="url(#path-2-outside-1_154_50)"/>
<path d="M89.7441 22.0635L88.9591 25.0578H93.2916L94.0765 22.048C94.1671 21.7532 94.2577 21.3808 94.2577 21.1946C94.2577 20.6051 93.7746 20.5275 93.0802 20.512C93.1104 20.4189 93.1255 20.2948 93.1557 20.1862H97.7146C97.6844 20.2948 97.6693 20.4189 97.6392 20.512C96.2352 20.512 96.0843 20.9619 95.7975 22.0635L93.986 28.9365V28.9986C93.8954 29.3244 93.8048 29.6812 93.8048 29.8829C93.8048 30.3794 94.1973 30.5035 95.0125 30.5035L94.937 30.7983H90.3932L90.4536 30.5035C91.8122 30.5035 91.948 30.0071 92.2349 29.0296C92.5519 27.9436 92.8538 26.7179 93.1406 25.6319H88.8081L87.9326 28.9676C87.7967 29.3554 87.7514 29.6812 87.7514 29.8829C87.7514 30.3173 88.008 30.5035 88.9289 30.5035L88.8534 30.7983H84.2945L84.385 30.5035C85.7588 30.5035 85.8946 30.0381 86.2116 28.9365L87.9929 22.1566C88.0835 21.7997 88.2043 21.4274 88.2043 21.1481C88.2043 20.6671 87.7967 20.512 86.9966 20.512L87.0872 20.1862H91.631C91.6008 20.2948 91.5857 20.4189 91.5405 20.512C90.1365 20.512 90.0158 21.1016 89.7441 22.0635Z" stroke="#03A447" stroke-width="1.4" mask="url(#path-2-outside-1_154_50)"/>
<path d="M101.039 20.2482C101.235 20.2327 101.462 20.2172 101.658 20.1862H105.19C107.802 20.1862 108.527 21.2257 108.527 22.4358C108.527 23.8166 107.44 24.7165 106.353 25.1199C106.232 25.1819 105.825 25.3216 105.825 25.3681C106.821 25.6008 107.636 26.268 107.636 27.4161C107.636 28.9055 106.443 30.7983 103.273 30.7983H98.2766L98.337 30.5035C99.2276 30.457 99.7258 30.3794 100.028 29.5416L100.269 28.7348L101.975 22.2496C102.035 21.8928 102.202 21.4739 102.202 21.1481C102.202 20.6516 101.764 20.5585 101.009 20.4965L101.039 20.2482ZM102.805 25.6164L101.945 28.89L101.613 30.1467C101.945 30.2398 102.292 30.2553 102.73 30.2553H102.775C104.632 30.2553 105.734 28.7969 105.734 27.2299C105.734 26.0508 104.934 25.5853 104.043 25.5853H103.741C103.409 25.5853 103.092 25.6164 102.805 25.6164ZM104.058 20.8223L103.892 21.4894L102.971 24.9803C103.183 25.0268 103.409 25.0578 103.681 25.0578C105.16 25.0578 106.715 24.1735 106.715 22.2652C106.715 21.0705 105.764 20.7447 104.979 20.7447C104.662 20.7447 104.36 20.7757 104.058 20.8223Z" stroke="#03A447" stroke-width="1.4" mask="url(#path-2-outside-1_154_50)"/>
<path d="M112.835 20.1862H120.504C120.353 21.0085 120.172 21.8152 120.006 22.6375H119.689C119.523 21.2877 119.251 20.8068 118.149 20.7602H115.854C115.477 22.11 115.13 23.5063 114.767 24.8717H115.869V24.8872C117.032 24.8872 117.59 24.5148 117.998 23.3822H118.3L117.334 27.0748H117.017C117.047 26.8575 117.077 26.6248 117.077 26.4231C117.077 25.6629 116.624 25.4302 115.643 25.4302H114.632L113.862 28.2849C113.741 28.7969 113.499 29.5261 113.499 29.8674C113.499 30.2398 113.816 30.2553 114.299 30.2553H114.737C116.534 30.2553 117.183 30.1777 118.164 29.1227L118.315 28.9831C118.557 28.6883 118.798 28.3315 119.024 27.9281H119.341L118.164 30.7983H110.058C110.073 30.6897 110.103 30.5966 110.148 30.5035L110.571 30.4725C111.341 30.4104 111.658 30.1312 111.884 29.2779L113.741 22.2496C113.862 21.7997 113.967 21.3498 113.967 21.0395C113.967 20.7137 113.65 20.574 113.152 20.543L112.76 20.481C112.79 20.3879 112.82 20.2948 112.835 20.1862Z" stroke="#03A447" stroke-width="1.4" mask="url(#path-2-outside-1_154_50)"/>
<path d="M132.336 20.031H132.638C132.411 21.1171 132.17 22.1876 131.928 23.2581H131.641C131.626 21.9083 131.053 20.543 129.377 20.543C128.29 20.543 127.067 21.1326 126.101 22.4048C125.286 23.4753 124.577 25.3371 124.577 26.9817C124.577 29.0917 125.588 30.3018 127.218 30.3018C128.335 30.3018 129.754 29.7123 130.766 28.1918L131.083 28.3625C130.841 28.859 130.6 29.3089 130.283 29.7123C129.045 30.6742 127.701 31 126.584 31C124.048 31 122.674 29.3244 122.674 26.9661C122.674 23.1495 125.663 20 129.362 20C130.041 20 130.464 20.1086 131.173 20.3568C131.339 20.4189 131.536 20.4965 131.702 20.4965C132.004 20.4965 132.17 20.2948 132.336 20.031Z" stroke="#03A447" stroke-width="1.4" mask="url(#path-2-outside-1_154_50)"/>
<path d="M141.377 20.7757L139.143 29.2158C139.082 29.4175 139.067 29.6192 139.067 29.7743C139.067 30.3329 139.445 30.5035 140.275 30.5035C140.275 30.5501 140.29 30.5966 140.29 30.6432C140.275 30.6897 140.26 30.7518 140.26 30.7983H135.52C135.55 30.7207 135.565 30.5966 135.595 30.5035C136.758 30.5035 137.165 30.2087 137.422 29.2158L139.641 20.7757L138.252 20.8068C137.15 20.8843 136.214 21.8152 135.776 22.9633H135.459L136.305 20.1862H145L144.411 22.9788H144.094V22.7927C144.094 20.3724 142.524 20.7757 141.377 20.7757Z" stroke="#03A447" stroke-width="1.4" mask="url(#path-2-outside-1_154_50)"/>
</g>
<g id="Vector">
<path d="M19 38C8.50659 38 0 29.4934 0 19C0 16.5424 0.466611 14.1937 1.31607 12.0378L5.02129 14.194C4.50339 15.7007 4.22222 17.3175 4.22222 19C4.22222 27.1615 10.8385 33.7778 19 33.7778C23.8428 33.7778 28.1415 31.4483 30.8367 27.8488L34.2411 30.3469C30.7773 34.992 25.2399 38 19 38Z" fill="#4B5457"/>
<path d="M37.6749 15.4815C37.8883 16.6217 38 17.7978 38 19C38 19.6101 37.9712 20.2135 37.915 20.8089C26.5526 17.3151 20.7121 18.7171 10.5556 22.8704C19.3001 16.3798 24.6293 13.5738 37.6749 15.4815Z" fill="#4B5457"/>
<path d="M37.4887 23.3966C37.0966 25.0519 36.4879 26.6234 35.6943 28.0796C27.4645 23.5987 23.8069 23.177 12.6667 22.8704C23.958 20.1446 29.705 19.5206 37.4887 23.3966Z" fill="#4B5457"/>
<path d="M2.20256 10.1123C5.39181 4.09725 11.7174 0 19 0C27.2727 0 34.3106 5.28711 36.9189 12.6667C22.5354 12.5362 17.3712 15.7233 9.14815 22.5185C14.1433 14.3907 18.0754 10.8639 29.3423 8.44444C26.6769 5.8326 23.0265 4.22222 19 4.22222C13.2826 4.22222 8.32362 7.46903 5.86617 12.2194L2.20256 10.1123Z" fill="#F27B05"/>
</g>
</g>
<defs>
<clipPath id="clip0_154_50">
<rect width="146" height="38" fill="white"/>
</clipPath>
</defs>
</svg>
