<svg width="20" height="20" viewBox="0 0 20 20" fill="none" xmlns="http://www.w3.org/2000/svg">
<path d="M10 20C4.47715 20 0 15.5228 0 10C0 8.70651 0.245585 7.47038 0.69267 6.3357L2.64278 7.47055C2.3702 8.26355 2.22222 9.11449 2.22222 10C2.22222 14.2955 5.70445 17.7778 10 17.7778C12.5488 17.7778 14.8113 16.5517 16.2299 14.6572L18.0216 15.9721C16.1986 18.4168 13.2842 20 10 20Z" fill="#4B5457"/>
<path d="M19.8289 8.14815C19.9412 8.74827 20 9.36727 20 10C20 10.3211 19.9849 10.6387 19.9553 10.9521C13.975 9.11323 10.9011 9.85111 5.55556 12.037C10.1579 8.62095 12.9628 7.14411 19.8289 8.14815Z" fill="#4B5457"/>
<path d="M19.7309 12.314C19.5245 13.1852 19.2042 14.0123 18.7865 14.7787C14.455 12.4204 12.53 12.1984 6.66667 12.037C12.6095 10.6024 15.6342 10.274 19.7309 12.314Z" fill="#4B5457"/>
<path d="M1.15922 5.32228C2.83777 2.15645 6.16704 0 9.99997 0C14.354 0 18.0582 2.78269 19.431 6.66667C11.8607 6.59803 9.1427 8.27543 4.81479 11.8519C7.4438 7.57408 9.51333 5.71782 15.4433 4.44444C14.0405 3.06979 12.1192 2.22222 9.99997 2.22222C6.99084 2.22222 4.38083 3.93107 3.08743 6.43127L1.15922 5.32228Z" fill="#F27B05"/>
</svg>
