<svg width="135" height="237" viewBox="0 0 135 237" fill="none" xmlns="http://www.w3.org/2000/svg">
<g id="Group 1">
<g id="Group 19">
<path id="Rectangle 42" d="M16.0012 0.362793L16.364 4.09504e-05L134.621 118.257L134.258 118.62L16.0012 0.362793Z" fill="url(#paint0_linear_107_1022)"/>
<path id="Rectangle 43" d="M134.621 118.355L134.258 117.992L16.0012 236.249L16.3639 236.612L134.621 118.355Z" fill="url(#paint1_linear_107_1022)"/>
<path id="Rectangle 44" d="M47.5847 63.1696L47.7543 63L103.037 118.283L102.868 118.453L47.5847 63.1696Z" fill="url(#paint2_linear_107_1022)"/>
<path id="Rectangle 45" d="M103.037 118.329L102.868 118.159L47.5847 173.442L47.7543 173.612L103.037 118.329Z" fill="url(#paint3_linear_107_1022)"/>
<g id="Group 18" opacity="0.5">
<path id="Rectangle 46" d="M16.0009 0.362793L0.392792 15.9709L118.65 134.228L134.258 118.62L16.0009 0.362793Z" fill="url(#paint4_linear_107_1022)"/>
<path id="Rectangle 47" d="M134.621 118.355L118.649 102.383L0.391619 220.64L16.3635 236.612L134.621 118.355Z" fill="url(#paint5_linear_107_1022)"/>
</g>
</g>
</g>
<defs>
<linearGradient id="paint0_linear_107_1022" x1="16.1826" y1="0.181417" x2="134.44" y2="118.439" gradientUnits="userSpaceOnUse">
<stop stop-color="white" stop-opacity="0"/>
<stop offset="0.5" stop-color="#4B5457"/>
<stop offset="1" stop-color="white" stop-opacity="0"/>
</linearGradient>
<linearGradient id="paint1_linear_107_1022" x1="134.44" y1="118.173" x2="16.1826" y2="236.431" gradientUnits="userSpaceOnUse">
<stop stop-color="white" stop-opacity="0"/>
<stop offset="0.5" stop-color="#4B5457"/>
<stop offset="1" stop-color="white" stop-opacity="0"/>
</linearGradient>
<linearGradient id="paint2_linear_107_1022" x1="47.6695" y1="63.0848" x2="102.953" y2="118.368" gradientUnits="userSpaceOnUse">
<stop stop-color="white" stop-opacity="0"/>
<stop offset="0.5" stop-color="#4B5457"/>
<stop offset="1" stop-color="white" stop-opacity="0"/>
</linearGradient>
<linearGradient id="paint3_linear_107_1022" x1="102.953" y1="118.244" x2="47.6695" y2="173.527" gradientUnits="userSpaceOnUse">
<stop stop-color="white" stop-opacity="0"/>
<stop offset="0.5" stop-color="#4B5457"/>
<stop offset="1" stop-color="white" stop-opacity="0"/>
</linearGradient>
<linearGradient id="paint4_linear_107_1022" x1="8.19682" y1="8.16682" x2="126.454" y2="126.424" gradientUnits="userSpaceOnUse">
<stop stop-color="white" stop-opacity="0"/>
<stop offset="0.5" stop-color="#F27B05"/>
<stop offset="1" stop-color="white" stop-opacity="0"/>
</linearGradient>
<linearGradient id="paint5_linear_107_1022" x1="126.635" y1="110.369" x2="8.37753" y2="228.626" gradientUnits="userSpaceOnUse">
<stop stop-color="white" stop-opacity="0"/>
<stop offset="0.5" stop-color="#F27B05"/>
<stop offset="1" stop-color="white" stop-opacity="0"/>
</linearGradient>
</defs>
</svg>
