<svg width="101" height="177" viewBox="0 0 101 177" fill="none" xmlns="http://www.w3.org/2000/svg">
<g id="Group 1">
<g id="Group 19">
<path id="Rectangle 42" d="M12.1198 0.271484L12.3912 0.000124024L100.855 88.4636L100.583 88.735L12.1198 0.271484Z" fill="url(#paint0_linear_164_1170)"/>
<path id="Rectangle 43" d="M100.855 88.5366L100.583 88.2653L12.1198 176.729L12.3911 177L100.855 88.5366Z" fill="url(#paint1_linear_164_1170)"/>
<path id="Rectangle 44" d="M35.7462 47.2544L35.873 47.1275L77.2281 88.4827L77.1013 88.6095L35.7462 47.2544Z" fill="url(#paint2_linear_164_1170)"/>
<path id="Rectangle 45" d="M77.2282 88.5171L77.1013 88.3902L35.7462 129.745L35.8731 129.872L77.2282 88.5171Z" fill="url(#paint3_linear_164_1170)"/>
<g id="Group 18" opacity="0.5">
<path id="Rectangle 46" d="M12.1196 0.271484L0.443799 11.9473L88.9073 100.411L100.583 88.735L12.1196 0.271484Z" fill="url(#paint4_linear_164_1170)"/>
<path id="Rectangle 47" d="M100.854 88.5366L88.9064 76.5887L0.442888 165.052L12.3908 177L100.854 88.5366Z" fill="url(#paint5_linear_164_1170)"/>
</g>
</g>
</g>
<defs>
<linearGradient id="paint0_linear_164_1170" x1="12.2555" y1="0.135804" x2="100.719" y2="88.5993" gradientUnits="userSpaceOnUse">
<stop stop-color="white" stop-opacity="0"/>
<stop offset="0.5" stop-color="#4B5457"/>
<stop offset="1" stop-color="white" stop-opacity="0"/>
</linearGradient>
<linearGradient id="paint1_linear_164_1170" x1="100.719" y1="88.4009" x2="12.2555" y2="176.864" gradientUnits="userSpaceOnUse">
<stop stop-color="white" stop-opacity="0"/>
<stop offset="0.5" stop-color="#4B5457"/>
<stop offset="1" stop-color="white" stop-opacity="0"/>
</linearGradient>
<linearGradient id="paint2_linear_164_1170" x1="35.8096" y1="47.191" x2="77.1647" y2="88.5461" gradientUnits="userSpaceOnUse">
<stop stop-color="white" stop-opacity="0"/>
<stop offset="0.5" stop-color="#4B5457"/>
<stop offset="1" stop-color="white" stop-opacity="0"/>
</linearGradient>
<linearGradient id="paint3_linear_164_1170" x1="77.1648" y1="88.4537" x2="35.8096" y2="129.809" gradientUnits="userSpaceOnUse">
<stop stop-color="white" stop-opacity="0"/>
<stop offset="0.5" stop-color="#4B5457"/>
<stop offset="1" stop-color="white" stop-opacity="0"/>
</linearGradient>
<linearGradient id="paint4_linear_164_1170" x1="6.28168" y1="6.10937" x2="94.7452" y2="94.5728" gradientUnits="userSpaceOnUse">
<stop stop-color="white" stop-opacity="0"/>
<stop offset="0.5" stop-color="#F27B05"/>
<stop offset="1" stop-color="white" stop-opacity="0"/>
</linearGradient>
<linearGradient id="paint5_linear_164_1170" x1="94.8803" y1="82.5627" x2="6.41683" y2="171.026" gradientUnits="userSpaceOnUse">
<stop stop-color="white" stop-opacity="0"/>
<stop offset="0.5" stop-color="#F27B05"/>
<stop offset="1" stop-color="white" stop-opacity="0"/>
</linearGradient>
</defs>
</svg>
